<?xml version="1.0" encoding="UTF-8"?>
<svg width="239px" height="25px" viewBox="0 0 239 25" version="1.1" xmlns="http://www.w3.org/2000/svg" xmlns:xlink="http://www.w3.org/1999/xlink">
    <!-- Generator: Sketch 52.5 (67469) - http://www.bohemiancoding.com/sketch -->
    <title>operatorhub-lite</title>
    <desc>Created with Sketch.</desc>
    <g id="Page-1" stroke="none" stroke-width="1" fill="none" fill-rule="evenodd">
        <g id="operatorhub-lite" fill="#FFFFFF" fill-rule="nonzero">
            <path d="M191.559336,1.202 L191.559336,20 L188.049336,20 L188.049336,11.784 L179.222336,11.784 L179.222336,20 L175.712336,20 L175.712336,1.202 L179.222336,1.202 L179.222336,9.288 L188.049336,9.288 L188.049336,1.202 L191.559336,1.202 Z M214.628719,6.662 L214.628719,20 L212.665719,20 C212.24105,20 211.972386,19.805002 211.859719,19.415 L211.638719,18.349 C211.092716,18.9036694 210.490389,19.352165 209.831719,19.6945 C209.173049,20.036835 208.39739,20.208 207.504719,20.208 C206.776715,20.208 206.133222,20.0845012 205.574219,19.8375 C205.015216,19.5904988 204.545054,19.2416689 204.163719,18.791 C203.782384,18.3403311 203.49422,17.8051698 203.299219,17.1855 C203.104218,16.5658302 203.006719,15.8833371 203.006719,15.138 L203.006719,6.662 L206.217719,6.662 L206.217719,15.138 C206.217719,15.9526707 206.406217,16.5831644 206.783219,17.0295 C207.160221,17.4758356 207.725715,17.699 208.479719,17.699 C209.034388,17.699 209.554383,17.5755012 210.039719,17.3285 C210.525055,17.0814988 210.984383,16.7413355 211.417719,16.308 L211.417719,6.662 L214.628719,6.662 Z M229.157102,8.3 C229.694438,7.73666385 230.290265,7.28816833 230.944602,6.9545 C231.598939,6.62083166 232.346431,6.454 233.187102,6.454 C233.958439,6.454 234.653932,6.60566515 235.273602,6.909 C235.893272,7.21233485 236.421933,7.64783049 236.859602,8.2155 C237.297271,8.7831695 237.633101,9.46999597 237.867102,10.276 C238.101103,11.082004 238.218102,11.9876616 238.218102,12.993 C238.218102,14.0763387 238.08377,15.0599956 237.815102,15.944 C237.546434,16.8280044 237.162938,17.5841635 236.664602,18.2125 C236.166266,18.8408365 235.566106,19.3283316 234.864102,19.675 C234.162098,20.0216684 233.382106,20.195 232.524102,20.195 C232.1081,20.195 231.731104,20.1538337 231.393102,20.0715 C231.0551,19.9891663 230.743103,19.8743341 230.457102,19.727 C230.171101,19.5796659 229.908937,19.3998344 229.670602,19.1875 C229.432267,18.9751656 229.20477,18.7390013 228.988102,18.479 L228.845102,19.376 C228.793102,19.6013345 228.704269,19.7616662 228.578602,19.857 C228.452935,19.9523338 228.28177,20 228.065102,20 L225.946102,20 L225.946102,0.682 L229.157102,0.682 L229.157102,8.3 Z M229.157102,16.542 C229.521104,16.9840022 229.9176,17.2959991 230.346602,17.478 C230.775604,17.6600009 231.228433,17.751 231.705102,17.751 C232.199104,17.751 232.643267,17.6621676 233.037602,17.4845 C233.431937,17.3068324 233.767767,17.0295019 234.045102,16.6525 C234.322437,16.2754981 234.534768,15.7945029 234.682102,15.2095 C234.829436,14.6244971 234.903102,13.9246707 234.903102,13.11 C234.903102,11.645326 234.660438,10.5858366 234.175102,9.9315 C233.689766,9.27716339 232.992107,8.95 232.082102,8.95 C231.466766,8.95 230.929438,9.09083192 230.470102,9.3725 C230.010766,9.65416807 229.573104,10.0506641 229.157102,10.562 L229.157102,16.542 Z" id="Hub" fill-opacity="0.7"></path>
            <path d="M20.02,10.601 C20.02,11.9790069 19.7925023,13.2551608 19.3375,14.4295 C18.8824977,15.6038392 18.2390042,16.6199957 17.407,17.478 C16.5749958,18.3360043 15.5740059,19.0054976 14.404,19.4865 C13.2339941,19.9675024 11.9340072,20.208 10.504,20.208 C9.08265956,20.208 7.78700585,19.9675024 6.617,19.4865 C5.44699415,19.0054976 4.44383751,18.3360043 3.6075,17.478 C2.77116249,16.6199957 2.12333563,15.6038392 1.664,14.4295 C1.20466437,13.2551608 0.975,11.9790069 0.975,10.601 C0.975,9.22299311 1.20466437,7.94683921 1.664,6.7725 C2.12333563,5.5981608 2.77116249,4.58200429 3.6075,3.724 C4.44383751,2.86599571 5.44699415,2.19650241 6.617,1.7155 C7.78700585,1.2344976 9.08265956,0.994 10.504,0.994 C11.4573381,0.994 12.3543291,1.1044989 13.195,1.3255 C14.0356709,1.54650111 14.8069965,1.85849799 15.509,2.2615 C16.2110035,2.66450202 16.8414972,3.15416379 17.4005,3.7305 C17.9595028,4.30683622 18.4339981,4.95032978 18.824,5.661 C19.214002,6.37167022 19.5108323,7.14299584 19.7145,7.975 C19.9181677,8.80700416 20.02,9.68232874 20.02,10.601 Z M16.445,10.601 C16.445,9.56966151 16.3063347,8.6445041 16.029,7.8255 C15.7516653,7.00649591 15.3573359,6.31100286 14.846,5.739 C14.3346641,5.16699714 13.712837,4.72933485 12.9805,4.426 C12.248163,4.12266515 11.4226713,3.971 10.504,3.971 C9.58532874,3.971 8.75983699,4.12266515 8.0275,4.426 C7.29516301,4.72933485 6.67116925,5.16699714 6.1555,5.739 C5.63983076,6.31100286 5.24333472,7.00649591 4.966,7.8255 C4.68866528,8.6445041 4.55,9.56966151 4.55,10.601 C4.55,11.6323385 4.68866528,12.5574959 4.966,13.3765 C5.24333472,14.1955041 5.63983076,14.8888305 6.1555,15.4565 C6.67116925,16.0241695 7.29516301,16.4596652 8.0275,16.763 C8.75983699,17.0663349 9.58532874,17.218 10.504,17.218 C11.4226713,17.218 12.248163,17.0663349 12.9805,16.763 C13.712837,16.4596652 14.3346641,16.0241695 14.846,15.4565 C15.3573359,14.8888305 15.7516653,14.1955041 16.029,13.3765 C16.3063347,12.5574959 16.445,11.6323385 16.445,10.601 Z M34.042667,16.542 C34.4066688,16.9840022 34.8031649,17.2959991 35.232167,17.478 C35.6611691,17.6600009 36.1269978,17.751 36.629667,17.751 C37.1150028,17.751 37.552665,17.6600009 37.942667,17.478 C38.3326689,17.2959991 38.6641656,17.0186685 38.937167,16.646 C39.2101684,16.2733315 39.4203329,15.8031695 39.567667,15.2355 C39.7150011,14.6678305 39.788667,13.9983372 39.788667,13.227 C39.788667,12.4469961 39.7258343,11.7861694 39.600167,11.2445 C39.4744997,10.7028306 39.2946682,10.2630017 39.060667,9.925 C38.8266658,9.58699831 38.5428353,9.34000078 38.209167,9.184 C37.8754987,9.02799922 37.4963358,8.95 37.071667,8.95 C36.4043303,8.95 35.8366693,9.09083193 35.368667,9.3725 C34.9006647,9.65416808 34.4586691,10.0506641 34.042667,10.562 L34.042667,16.542 Z M33.873667,8.482 C34.4196697,7.86666359 35.0393302,7.36833524 35.732667,6.987 C36.4260038,6.60566476 37.2406623,6.415 38.176667,6.415 C38.9046706,6.415 39.5698307,6.56666515 40.172167,6.87 C40.7745033,7.17333485 41.2944981,7.61316379 41.732167,8.1895 C42.1698359,8.76583622 42.5078325,9.47649578 42.746167,10.3215 C42.9845015,11.1665042 43.103667,12.1349945 43.103667,13.227 C43.103667,14.2236717 42.969335,15.1466624 42.700667,15.996 C42.431999,16.8453376 42.0485028,17.5819969 41.550167,18.206 C41.0518312,18.8300031 40.4495039,19.3174982 39.743167,19.6685 C39.0368301,20.0195018 38.2460047,20.195 37.370667,20.195 C36.6253299,20.195 35.9883363,20.0801678 35.459667,19.8505 C34.9309977,19.6208322 34.4586691,19.3023354 34.042667,18.895 L34.042667,24.355 L30.831667,24.355 L30.831667,6.662 L32.794667,6.662 C33.2106691,6.662 33.4836663,6.85699805 33.613667,7.247 L33.873667,8.482 Z M62.651334,11.797 C62.651334,11.3809979 62.5928346,10.9888352 62.475834,10.6205 C62.3588334,10.2521648 62.1833352,9.92933472 61.949334,9.652 C61.7153328,9.37466528 61.4185025,9.15583414 61.058834,8.9955 C60.6991655,8.83516587 60.2810031,8.755 59.804334,8.755 C58.876996,8.755 58.1468367,9.01933069 57.613834,9.548 C57.0808313,10.0766693 56.7406681,10.8263285 56.593334,11.797 L62.651334,11.797 Z M56.528334,13.734 C56.5803343,14.4186701 56.7016664,15.0101642 56.892334,15.5085 C57.0830016,16.0068358 57.3343324,16.4184984 57.646334,16.7435 C57.9583356,17.0685016 58.3288319,17.3111659 58.757834,17.4715 C59.1868361,17.6318341 59.6613314,17.712 60.181334,17.712 C60.7013366,17.712 61.1498321,17.6513339 61.526834,17.53 C61.9038359,17.4086661 62.2331659,17.2743341 62.514834,17.127 C62.7965021,16.9796659 63.0434996,16.8453339 63.255834,16.724 C63.4681684,16.6026661 63.6739997,16.542 63.873334,16.542 C64.142002,16.542 64.3413333,16.6416657 64.471334,16.841 L65.394334,18.011 C65.0389989,18.4270021 64.6403362,18.7758319 64.198334,19.0575 C63.7563318,19.3391681 63.2948364,19.5644992 62.813834,19.7335 C62.3328316,19.9025008 61.8431698,20.0216663 61.344834,20.091 C60.8464982,20.1603337 60.3633363,20.195 59.895334,20.195 C58.967996,20.195 58.1056713,20.0411682 57.308334,19.7335 C56.5109967,19.4258318 55.8176703,18.9708363 55.228334,18.3685 C54.6389977,17.7661637 54.1753357,17.0208378 53.837334,16.1325 C53.4993323,15.2441622 53.330334,14.2150059 53.330334,13.045 C53.330334,12.1349955 53.4776659,11.2791707 53.772334,10.4775 C54.0670021,9.67582933 54.4894979,8.97816964 55.039834,8.3845 C55.5901701,7.79083037 56.26183,7.3206684 57.054834,6.974 C57.847838,6.6273316 58.7426623,6.454 59.739334,6.454 C60.5800049,6.454 61.3556638,6.58833199 62.066334,6.857 C62.7770042,7.12566801 63.3879981,7.51783076 63.899334,8.0335 C64.4106699,8.54916925 64.8114992,9.18182959 65.101834,9.9315 C65.3921688,10.6811704 65.537334,11.5369952 65.537334,12.499 C65.537334,12.9843358 65.4853345,13.3114992 65.381334,13.4805 C65.2773335,13.6495008 65.0780021,13.734 64.783334,13.734 L56.528334,13.734 Z M79.430001,8.976 C79.8460031,8.17866268 80.3399981,7.55250228 80.912001,7.0975 C81.4840039,6.64249773 82.1599971,6.415 82.940001,6.415 C83.5553374,6.415 84.0493325,6.54933199 84.422001,6.818 L84.214001,9.223 C84.1706674,9.37900078 84.1078347,9.48949968 84.025501,9.5545 C83.9431673,9.61950033 83.8326684,9.652 83.694001,9.652 C83.5640004,9.652 83.3711689,9.63033355 83.115501,9.587 C82.8598331,9.54366645 82.6106689,9.522 82.368001,9.522 C82.0126659,9.522 81.6963357,9.57399948 81.419001,9.678 C81.1416663,9.78200052 80.8925021,9.93149903 80.671501,10.1265 C80.4504999,10.321501 80.2555018,10.5576653 80.086501,10.835 C79.9175002,11.1123347 79.7593351,11.4286649 79.612001,11.784 L79.612001,20 L76.401001,20 L76.401001,6.662 L78.286001,6.662 C78.615336,6.662 78.8450004,6.72049942 78.975001,6.8375 C79.1050017,6.95450059 79.1916674,7.16466515 79.235001,7.468 L79.430001,8.976 Z M101.434668,14.306 C100.50733,14.3493336 99.7273378,14.4294994 99.094668,14.5465 C98.4619982,14.6635006 97.9550032,14.8129991 97.573668,14.995 C97.1923328,15.1770009 96.9193355,15.3893321 96.754668,15.632 C96.5900005,15.8746679 96.507668,16.1389986 96.507668,16.425 C96.507668,16.9883362 96.6744997,17.3913321 97.008168,17.634 C97.3418363,17.8766679 97.777332,17.998 98.314668,17.998 C98.973338,17.998 99.5431656,17.8788345 100.024168,17.6405 C100.50517,17.4021655 100.975332,17.0403358 101.434668,16.555 L101.434668,14.306 Z M94.076668,8.521 C95.6106757,7.11699298 97.4566572,6.415 99.614668,6.415 C100.394672,6.415 101.092332,6.54283206 101.707668,6.7985 C102.323004,7.05416795 102.842999,7.40949773 103.267668,7.8645 C103.692337,8.31950228 104.015167,8.86333017 104.236168,9.496 C104.457169,10.1286698 104.567668,10.8219962 104.567668,11.576 L104.567668,20 L103.111668,20 C102.808333,20 102.574335,19.9545005 102.409668,19.8635 C102.245001,19.7724995 102.115002,19.5883347 102.019668,19.311 L101.733668,18.349 C101.395666,18.6523349 101.066336,18.9188322 100.745668,19.1485 C100.425,19.3781678 100.091336,19.5709992 99.744668,19.727 C99.3979996,19.8830008 99.0275033,20.0021663 98.633168,20.0845 C98.2388327,20.1668337 97.8033371,20.208 97.326668,20.208 C96.7633319,20.208 96.2433371,20.1321674 95.766668,19.9805 C95.289999,19.8288326 94.8783364,19.6013349 94.531668,19.298 C94.1849996,18.9946652 93.9163356,18.6176689 93.725668,18.167 C93.5350004,17.7163311 93.439668,17.192003 93.439668,16.594 C93.439668,16.2559983 93.4960008,15.9201683 93.608668,15.5865 C93.7213352,15.2528317 93.9055001,14.9343349 94.161168,14.631 C94.4168359,14.3276652 94.7483326,14.041668 95.155668,13.773 C95.5630034,13.504332 96.0634984,13.2703343 96.657168,13.071 C97.2508376,12.8716657 97.9419974,12.7091673 98.730668,12.5835 C99.5193386,12.4578327 100.420663,12.3820001 101.434668,12.356 L101.434668,11.576 C101.434668,10.6833289 101.244003,10.0225021 100.862668,9.5935 C100.481333,9.16449786 99.9310049,8.95 99.211668,8.95 C98.6916654,8.95 98.260503,9.01066606 97.918168,9.132 C97.575833,9.25333394 97.2746693,9.38983258 97.014668,9.5415 C96.7546667,9.69316743 96.5185024,9.82966606 96.306168,9.951 C96.0938336,10.0723339 95.8576693,10.133 95.597668,10.133 C95.3723335,10.133 95.1816688,10.0745006 95.025668,9.9575 C94.8696672,9.84049942 94.7440018,9.70400078 94.648668,9.548 L94.076668,8.521 Z M120.306335,20.208 C119.144996,20.208 118.254505,19.8808366 117.634835,19.2265 C117.015165,18.5721634 116.705335,17.6686724 116.705335,16.516 L116.705335,9.067 L115.340335,9.067 C115.167001,9.067 115.019669,9.01066723 114.898335,8.898 C114.777001,8.78533277 114.716335,8.61633446 114.716335,8.391 L114.716335,7.117 L116.861335,6.766 L117.537335,3.126 C117.580669,2.9526658 117.663001,2.81833381 117.784335,2.723 C117.905669,2.62766619 118.061667,2.58 118.252335,2.58 L119.916335,2.58 L119.916335,6.779 L123.478335,6.779 L123.478335,9.067 L119.916335,9.067 L119.916335,16.295 C119.916335,16.7110021 120.018167,17.0359988 120.221835,17.27 C120.425503,17.5040012 120.705,17.621 121.060335,17.621 C121.259669,17.621 121.426501,17.5971669 121.560835,17.5495 C121.695169,17.5018331 121.812168,17.4520003 121.911835,17.4 C122.011502,17.3479997 122.100335,17.2981669 122.178335,17.2505 C122.256335,17.2028331 122.334335,17.179 122.412335,17.179 C122.507669,17.179 122.585668,17.2028331 122.646335,17.2505 C122.707002,17.2981669 122.772001,17.3696662 122.841335,17.465 L123.803335,19.025 C123.335333,19.415002 122.798005,19.7096657 122.191335,19.909 C121.584665,20.1083343 120.956338,20.208 120.306335,20.208 Z M139.789002,6.454 C140.777007,6.454 141.676165,6.61433173 142.486502,6.935 C143.296839,7.25566827 143.990166,7.71066372 144.566502,8.3 C145.142838,8.88933628 145.587,9.60866242 145.899002,10.458 C146.211004,11.3073376 146.367002,12.2563281 146.367002,13.305 C146.367002,14.3623386 146.211004,15.3156624 145.899002,16.165 C145.587,17.0143376 145.142838,17.737997 144.566502,18.336 C143.990166,18.934003 143.296839,19.3933317 142.486502,19.714 C141.676165,20.0346683 140.777007,20.195 139.789002,20.195 C138.79233,20.195 137.886673,20.0346683 137.072002,19.714 C136.257331,19.3933317 135.561838,18.934003 134.985502,18.336 C134.409166,17.737997 133.962837,17.0143376 133.646502,16.165 C133.330167,15.3156624 133.172002,14.3623386 133.172002,13.305 C133.172002,12.2563281 133.330167,11.3073376 133.646502,10.458 C133.962837,9.60866242 134.409166,8.88933628 134.985502,8.3 C135.561838,7.71066372 136.257331,7.25566827 137.072002,6.935 C137.886673,6.61433173 138.79233,6.454 139.789002,6.454 Z M139.789002,17.725 C140.898341,17.725 141.719499,17.3523371 142.252502,16.607 C142.785505,15.8616629 143.052002,14.7696739 143.052002,13.331 C143.052002,11.8923261 142.785505,10.7960038 142.252502,10.042 C141.719499,9.28799623 140.898341,8.911 139.789002,8.911 C138.66233,8.911 137.828171,9.29016288 137.286502,10.0485 C136.744833,10.8068371 136.474002,11.9009929 136.474002,13.331 C136.474002,14.7610072 136.744833,15.8508296 137.286502,16.6005 C137.828171,17.3501704 138.66233,17.725 139.789002,17.725 Z M160.311669,8.976 C160.727671,8.17866268 161.221666,7.55250228 161.793669,7.0975 C162.365672,6.64249773 163.041665,6.415 163.821669,6.415 C164.437005,6.415 164.931,6.54933199 165.303669,6.818 L165.095669,9.223 C165.052335,9.37900078 164.989503,9.48949968 164.907169,9.5545 C164.824835,9.61950033 164.714336,9.652 164.575669,9.652 C164.445668,9.652 164.252837,9.63033355 163.997169,9.587 C163.741501,9.54366645 163.492337,9.522 163.249669,9.522 C162.894334,9.522 162.578004,9.57399948 162.300669,9.678 C162.023334,9.78200052 161.77417,9.93149903 161.553169,10.1265 C161.332168,10.321501 161.13717,10.5576653 160.968169,10.835 C160.799168,11.1123347 160.641003,11.4286649 160.493669,11.784 L160.493669,20 L157.282669,20 L157.282669,6.662 L159.167669,6.662 C159.497004,6.662 159.726668,6.72049942 159.856669,6.8375 C159.98667,6.95450059 160.073335,7.16466515 160.116669,7.468 L160.311669,8.976 Z" id="Operator"></path>
        </g>
    </g>
</svg>