<?xml version="1.0" encoding="UTF-8"?>
<svg width="256px" height="63px" viewBox="0 0 256 63" version="1.1" xmlns="http://www.w3.org/2000/svg" xmlns:xlink="http://www.w3.org/1999/xlink">
    <!-- Generator: Sketch 52.5 (67469) - http://www.bohemiancoding.com/sketch -->
    <title>operator-framework-logo-lite</title>
    <desc>Created with Sketch.</desc>
    <g id="Page-1" stroke="none" stroke-width="1" fill="none" fill-rule="evenodd">
        <g id="Redline-v3" transform="translate(-438.000000, -4629.000000)" fill="#FFFFFF">
            <g id="Group-13" transform="translate(65.000000, 3888.000000)">
                <g id="Group-8">
                    <g id="Group-15" transform="translate(362.000000, 740.000000)">
                        <g id="operator-framework-logo-lite" transform="translate(11.000000, 1.000000)">
                            <path d="M31.2506875,4.12114787e-13 C48.4788505,4.12114787e-13 62.4973043,14.0618333 62.4973043,31.3462917 C62.4973043,48.6319167 48.4788505,62.692875 31.2506875,62.692875 C14.0172908,62.692875 -1.22213351e-12,48.6319167 -1.22213351e-12,31.3462917 C-1.22213351e-12,14.0618333 14.0172908,4.12114787e-13 31.2506875,4.12114787e-13 Z M14,36.4123711 L16.063372,36.4123711 L31.0228192,36.4123711 C32.0545052,36.4123711 32.5703482,36.9278351 32.0545052,37.9587629 C30.5069762,43.628866 28.9594472,48.7835052 27.4119181,54.4536082 C27.4119181,54.9690722 26.8960751,55.4845361 27.4119181,56 C27.9277611,56 27.9277611,55.4845361 28.4436041,54.9690722 L48.0456383,29.1958763 C48.0456383,29.1958763 48.5614814,28.6804124 48.5614814,28.1649485 L47.5297953,28.1649485 L32.0545052,28.1649485 C30.5069762,28.1649485 30.5069762,27.6494845 31.0228192,26.1030928 C33.6020342,19.9175258 35.6654062,14.2474227 37.7287782,8.06185567 C37.7287782,7.54639175 38.2446212,7.03092784 37.7287782,6 L14,36.4123711 Z" id="Combined-Shape"></path>
                            <path d="M94.288,15.36 C94.288,16.6400064 94.0800021,17.8199946 93.664,18.9 C93.2479979,19.9800054 92.6620038,20.9099961 91.906,21.69 C91.1499962,22.4700039 90.2420053,23.0799978 89.182,23.52 C88.1219947,23.9600022 86.9440065,24.18 85.648,24.18 C84.3599936,24.18 83.1860053,23.9600022 82.126,23.52 C81.0659947,23.0799978 80.1560038,22.4700039 79.396,21.69 C78.6359962,20.9099961 78.0480021,19.9800054 77.632,18.9 C77.2159979,17.8199946 77.008,16.6400064 77.008,15.36 C77.008,14.0799936 77.2159979,12.9000054 77.632,11.82 C78.0480021,10.7399946 78.6359962,9.80800392 79.396,9.024 C80.1560038,8.23999608 81.0659947,7.6280022 82.126,7.188 C83.1860053,6.7479978 84.3599936,6.528 85.648,6.528 C86.9440065,6.528 88.1219947,6.7479978 89.182,7.188 C90.2420053,7.6280022 91.1499962,8.23999608 91.906,9.024 C92.6620038,9.80800392 93.2479979,10.7399946 93.664,11.82 C94.0800021,12.9000054 94.288,14.0799936 94.288,15.36 Z M91.42,15.36 C91.42,14.367995 91.2860013,13.476004 91.018,12.684 C90.7499987,11.891996 90.3660025,11.2200028 89.866,10.668 C89.3659975,10.1159972 88.7600036,9.69200148 88.048,9.396 C87.3359964,9.09999852 86.5360044,8.952 85.648,8.952 C84.7679956,8.952 83.9720036,9.09999852 83.26,9.396 C82.5479964,9.69200148 81.9400025,10.1159972 81.436,10.668 C80.9319975,11.2200028 80.5440014,11.891996 80.272,12.684 C79.9999986,13.476004 79.864,14.367995 79.864,15.36 C79.864,16.360005 79.9999986,17.255996 80.272,18.048 C80.5440014,18.840004 80.9319975,19.5099973 81.436,20.058 C81.9400025,20.6060027 82.5479964,21.0259985 83.26,21.318 C83.9720036,21.6100015 84.7679956,21.756 85.648,21.756 C86.5360044,21.756 87.3359964,21.6100015 88.048,21.318 C88.7600036,21.0259985 89.3659975,20.6060027 89.866,20.058 C90.3660025,19.5099973 90.7499987,18.840004 91.018,18.048 C91.2860013,17.255996 91.42,16.360005 91.42,15.36 Z M99.244,20.928 C99.6040018,21.3920023 99.9979979,21.7179991 100.426,21.906 C100.854002,22.0940009 101.327997,22.188 101.848,22.188 C102.856005,22.188 103.641997,21.8200037 104.206,21.084 C104.770003,20.3479963 105.052,19.2520073 105.052,17.796 C105.052,17.0439962 104.988001,16.4020027 104.86,15.87 C104.731999,15.3379973 104.548001,14.9040017 104.308,14.568 C104.067999,14.2319983 103.776002,13.9880008 103.432,13.836 C103.087998,13.6839992 102.700002,13.608 102.268,13.608 C101.611997,13.608 101.046002,13.7499986 100.57,14.034 C100.093998,14.3180014 99.652002,14.7239974 99.244,15.252 L99.244,20.928 Z M99.112,13.536 C99.6240026,12.935997 100.205997,12.4520018 100.858,12.084 C101.510003,11.7159982 102.267996,11.532 103.132,11.532 C103.820003,11.532 104.443997,11.6699986 105.004,11.946 C105.564003,12.2220014 106.043998,12.6239974 106.444,13.152 C106.844002,13.6800026 107.153999,14.3339961 107.374,15.114 C107.594001,15.8940039 107.704,16.787995 107.704,17.796 C107.704,18.7000045 107.582001,19.5419961 107.338,20.322 C107.093999,21.1020039 106.744002,21.7779971 106.288,22.35 C105.831998,22.9220029 105.280003,23.3699984 104.632,23.694 C103.983997,24.0180016 103.252004,24.18 102.436,24.18 C101.715996,24.18 101.106003,24.0640012 100.606,23.832 C100.105998,23.5999988 99.652002,23.280002 99.244,22.872 L99.244,28.068 L96.664,28.068 L96.664,11.76 L98.224,11.76 C98.5760018,11.76 98.7999995,11.9239984 98.896,12.252 L99.112,13.536 Z M118.24,16.5 C118.24,16.0679978 118.178001,15.6660019 118.054,15.294 C117.929999,14.9219981 117.748001,14.5980014 117.508,14.322 C117.267999,14.0459986 116.970002,13.8300008 116.614,13.674 C116.257998,13.5179992 115.848002,13.44 115.384,13.44 C114.447995,13.44 113.712003,13.7079973 113.176,14.244 C112.639997,14.7800027 112.300001,15.5319952 112.156,16.5 L118.24,16.5 Z M112.084,18.084 C112.116,18.7800035 112.223999,19.3819975 112.408,19.89 C112.592001,20.3980025 112.837998,20.8199983 113.146,21.156 C113.454002,21.4920017 113.821998,21.7419992 114.25,21.906 C114.678002,22.0700008 115.155997,22.152 115.684,22.152 C116.188003,22.152 116.623998,22.0940006 116.992,21.978 C117.360002,21.8619994 117.679999,21.7340007 117.952,21.594 C118.224001,21.4539993 118.455999,21.3260006 118.648,21.21 C118.840001,21.0939994 119.015999,21.036 119.176,21.036 C119.384001,21.036 119.543999,21.1159992 119.656,21.276 L120.388,22.224 C120.083998,22.5840018 119.740002,22.8879988 119.356,23.136 C118.971998,23.3840012 118.564002,23.5859992 118.132,23.742 C117.699998,23.8980008 117.256002,24.0099997 116.8,24.078 C116.343998,24.1460003 115.900002,24.18 115.468,24.18 C114.619996,24.18 113.834004,24.0380014 113.11,23.754 C112.385996,23.4699986 111.758003,23.0520028 111.226,22.5 C110.693997,21.9479972 110.278002,21.2640041 109.978,20.448 C109.677999,19.6319959 109.528,18.6920053 109.528,17.628 C109.528,16.7799958 109.661999,15.9880037 109.93,15.252 C110.198001,14.5159963 110.581998,13.8760027 111.082,13.332 C111.582003,12.7879973 112.189996,12.3580016 112.906,12.042 C113.622004,11.7259984 114.431995,11.568 115.336,11.568 C116.088004,11.568 116.783997,11.6899988 117.424,11.934 C118.064003,12.1780012 118.615998,12.5359976 119.08,13.008 C119.544002,13.4800024 119.905999,14.0579966 120.166,14.742 C120.426001,15.4260034 120.556,16.2039956 120.556,17.076 C120.556,17.476002 120.512,17.7439993 120.424,17.88 C120.336,18.0160007 120.176001,18.084 119.944,18.084 L112.084,18.084 Z M125.392,14.028 C125.776002,13.2519961 126.239997,12.6420022 126.784,12.198 C127.328003,11.7539978 127.979996,11.532 128.74,11.532 C129.004001,11.532 129.251999,11.5619997 129.484,11.622 C129.716001,11.6820003 129.923999,11.7719994 130.108,11.892 L129.928,13.836 C129.896,13.9720007 129.846,14.0659997 129.778,14.118 C129.71,14.1700003 129.620001,14.196 129.508,14.196 C129.387999,14.196 129.216001,14.1740002 128.992,14.13 C128.767999,14.0859998 128.532001,14.064 128.284,14.064 C127.923998,14.064 127.606001,14.1159995 127.33,14.22 C127.053999,14.3240005 126.806001,14.475999 126.586,14.676 C126.365999,14.876001 126.172001,15.1199986 126.004,15.408 C125.835999,15.6960014 125.680001,16.0239982 125.536,16.392 L125.536,24 L122.956,24 L122.956,11.76 L124.456,11.76 C124.728001,11.76 124.915999,11.8099995 125.02,11.91 C125.124001,12.0100005 125.196,12.1839988 125.236,12.432 L125.392,14.028 Z M138.172,18.648 C137.251995,18.6800002 136.476003,18.7539994 135.844,18.87 C135.211997,18.9860006 134.700002,19.1339991 134.308,19.314 C133.915998,19.4940009 133.634001,19.7079988 133.462,19.956 C133.289999,20.2040012 133.204,20.4759985 133.204,20.772 C133.204,21.0600014 133.25,21.305999 133.342,21.51 C133.434,21.714001 133.561999,21.8819993 133.726,22.014 C133.890001,22.1460007 134.081999,22.2419997 134.302,22.302 C134.522001,22.3620003 134.763999,22.392 135.028,22.392 C135.700003,22.392 136.277998,22.2660013 136.762,22.014 C137.246002,21.7619987 137.715998,21.3960024 138.172,20.916 L138.172,18.648 Z M131.332,13.464 C132.716007,12.1759936 134.36399,11.532 136.276,11.532 C136.980004,11.532 137.605997,11.6459989 138.154,11.874 C138.702003,12.1020011 139.161998,12.4239979 139.534,12.84 C139.906002,13.2560021 140.189999,13.7499971 140.386,14.322 C140.582001,14.8940029 140.68,15.5279965 140.68,16.224 L140.68,24 L139.528,24 C139.279999,24 139.092001,23.9620004 138.964,23.886 C138.835999,23.8099996 138.728,23.6560012 138.64,23.424 L138.388,22.428 C138.075998,22.7080014 137.768002,22.9579989 137.464,23.178 C137.159998,23.3980011 136.846002,23.5839992 136.522,23.736 C136.197998,23.8880008 135.850002,24.0019996 135.478,24.078 C135.105998,24.1540004 134.696002,24.192 134.248,24.192 C133.751998,24.192 133.290002,24.1240007 132.862,23.988 C132.433998,23.8519993 132.064002,23.6460014 131.752,23.37 C131.439998,23.0939986 131.194001,22.752002 131.014,22.344 C130.833999,21.935998 130.744,21.4560028 130.744,20.904 C130.744,20.4319976 130.869999,19.9720022 131.122,19.524 C131.374001,19.0759978 131.789997,18.6740018 132.37,18.318 C132.950003,17.9619982 133.713995,17.6680012 134.662,17.436 C135.610005,17.2039988 136.779993,17.0720002 138.172,17.04 L138.172,16.224 C138.172,15.3439956 137.984002,14.6880022 137.608,14.256 C137.231998,13.8239978 136.680004,13.608 135.952,13.608 C135.455998,13.608 135.040002,13.6699994 134.704,13.794 C134.367998,13.9180006 134.076001,14.0519993 133.828,14.196 C133.579999,14.3400007 133.360001,14.4739994 133.168,14.598 C132.975999,14.7220006 132.772001,14.784 132.556,14.784 C132.379999,14.784 132.230001,14.7380005 132.106,14.646 C131.981999,14.5539995 131.88,14.4400007 131.8,14.304 L131.332,13.464 Z M147.448,24.192 C146.431995,24.192 145.650003,23.9060029 145.102,23.334 C144.553997,22.7619971 144.28,21.9560052 144.28,20.916 L144.28,13.788 L142.936,13.788 C142.791999,13.788 142.668001,13.7420005 142.564,13.65 C142.459999,13.5579995 142.408,13.4200009 142.408,13.236 L142.408,12.192 L144.388,11.904 L144.952,8.364 C144.992,8.22799932 145.06,8.11800042 145.156,8.034 C145.252,7.94999958 145.379999,7.908 145.54,7.908 L146.86,7.908 L146.86,11.928 L150.256,11.928 L150.256,13.788 L146.86,13.788 L146.86,20.736 C146.86,21.1760022 146.967999,21.5119988 147.184,21.744 C147.400001,21.9760012 147.687998,22.092 148.048,22.092 C148.248001,22.092 148.419999,22.0660003 148.564,22.014 C148.708001,21.9619997 148.831999,21.9060003 148.936,21.846 C149.040001,21.7859997 149.13,21.7300003 149.206,21.678 C149.282,21.6259997 149.356,21.6 149.428,21.6 C149.572001,21.6 149.688,21.6799992 149.776,21.84 L150.544,23.1 C150.143998,23.4520018 149.672003,23.7219991 149.128,23.91 C148.583997,24.0980009 148.024003,24.192 147.448,24.192 Z M157.504,11.568 C158.408005,11.568 159.225996,11.7159985 159.958,12.012 C160.690004,12.3080015 161.313997,12.7279973 161.83,13.272 C162.346003,13.8160027 162.743999,14.4759961 163.024,15.252 C163.304001,16.0280039 163.444,16.8999952 163.444,17.868 C163.444,18.8360048 163.304001,19.7079961 163.024,20.484 C162.743999,21.2600039 162.346003,21.9219973 161.83,22.47 C161.313997,23.0180027 160.690004,23.4399985 159.958,23.736 C159.225996,24.0320015 158.408005,24.18 157.504,24.18 C156.591995,24.18 155.770004,24.0320015 155.038,23.736 C154.305996,23.4399985 153.680003,23.0180027 153.16,22.47 C152.639997,21.9219973 152.240001,21.2600039 151.96,20.484 C151.679999,19.7079961 151.54,18.8360048 151.54,17.868 C151.54,16.8999952 151.679999,16.0280039 151.96,15.252 C152.240001,14.4759961 152.639997,13.8160027 153.16,13.272 C153.680003,12.7279973 154.305996,12.3080015 155.038,12.012 C155.770004,11.7159985 156.591995,11.568 157.504,11.568 Z M157.504,22.164 C158.608006,22.164 159.429997,21.7940037 159.97,21.054 C160.510003,20.3139963 160.78,19.2560069 160.78,17.88 C160.78,16.5039931 160.510003,15.4420037 159.97,14.694 C159.429997,13.9459963 158.608006,13.572 157.504,13.572 C156.383994,13.572 155.552003,13.9459963 155.008,14.694 C154.463997,15.4420037 154.192,16.5039931 154.192,17.88 C154.192,19.2560069 154.463997,20.3139963 155.008,21.054 C155.552003,21.7940037 156.383994,22.164 157.504,22.164 Z M168.352,14.028 C168.736002,13.2519961 169.199997,12.6420022 169.744,12.198 C170.288003,11.7539978 170.939996,11.532 171.7,11.532 C171.964001,11.532 172.211999,11.5619997 172.444,11.622 C172.676001,11.6820003 172.883999,11.7719994 173.068,11.892 L172.888,13.836 C172.856,13.9720007 172.806,14.0659997 172.738,14.118 C172.67,14.1700003 172.580001,14.196 172.468,14.196 C172.347999,14.196 172.176001,14.1740002 171.952,14.13 C171.727999,14.0859998 171.492001,14.064 171.244,14.064 C170.883998,14.064 170.566001,14.1159995 170.29,14.22 C170.013999,14.3240005 169.766001,14.475999 169.546,14.676 C169.325999,14.876001 169.132001,15.1199986 168.964,15.408 C168.795999,15.6960014 168.640001,16.0239982 168.496,16.392 L168.496,24 L165.916,24 L165.916,11.76 L167.416,11.76 C167.688001,11.76 167.875999,11.8099995 167.98,11.91 C168.084001,12.0100005 168.156,12.1839988 168.196,12.432 L168.352,14.028 Z M83.308,30.482 L83.308,38.78 L93.442,38.78 L93.442,42.182 L83.308,42.182 L83.308,53 L79.078,53 L79.078,27.08 L95.242,27.08 L95.242,30.482 L83.308,30.482 Z M100.876,38.042 C101.452003,36.8779942 102.147996,35.9630033 102.964,35.297 C103.780004,34.6309967 104.757994,34.298 105.898,34.298 C106.294002,34.298 106.665998,34.3429995 107.014,34.433 C107.362002,34.5230004 107.673999,34.6579991 107.95,34.838 L107.68,37.754 C107.632,37.958001 107.557001,38.0989996 107.455,38.177 C107.352999,38.2550004 107.218001,38.294 107.05,38.294 C106.869999,38.294 106.612002,38.2610003 106.276,38.195 C105.939998,38.1289997 105.586002,38.096 105.214,38.096 C104.673997,38.096 104.197002,38.1739992 103.783,38.33 C103.368998,38.4860008 102.997002,38.7139985 102.667,39.014 C102.336998,39.3140015 102.046001,39.6799978 101.794,40.112 C101.541999,40.5440022 101.308001,41.0359972 101.092,41.588 L101.092,53 L97.222,53 L97.222,34.64 L99.472,34.64 C99.880002,34.64 100.161999,34.7149992 100.318,34.865 C100.474001,35.0150007 100.582,35.2759981 100.642,35.648 L100.876,38.042 Z M120.046,44.972 C118.665993,45.0200002 117.502005,45.1309991 116.554,45.305 C115.605995,45.4790009 114.838003,45.7009986 114.25,45.971 C113.661997,46.2410013 113.239001,46.5619981 112.981,46.934 C112.722999,47.3060019 112.594,47.7139978 112.594,48.158 C112.594,48.5900022 112.662999,48.9589985 112.801,49.265 C112.939001,49.5710015 113.130999,49.822999 113.377,50.021 C113.623001,50.219001 113.910998,50.3629995 114.241,50.453 C114.571002,50.5430004 114.933998,50.588 115.33,50.588 C116.338005,50.588 117.204996,50.3990019 117.931,50.021 C118.657004,49.6429981 119.361997,49.0940036 120.046,48.374 L120.046,44.972 Z M109.786,37.196 C111.86201,35.2639903 114.333986,34.298 117.202,34.298 C118.258005,34.298 119.196996,34.4689983 120.019,34.811 C120.841004,35.1530017 121.530997,35.6359969 122.089,36.26 C122.647003,36.8840031 123.072999,37.6249957 123.367,38.483 C123.661001,39.3410043 123.808,40.2919948 123.808,41.336 L123.808,53 L122.08,53 C121.707998,53 121.426001,52.9430006 121.234,52.829 C121.041999,52.7149994 120.880001,52.4840017 120.748,52.136 L120.37,50.642 C119.901998,51.0620021 119.440002,51.4369983 118.984,51.767 C118.527998,52.0970016 118.057002,52.3759989 117.571,52.604 C117.084998,52.8320011 116.563003,53.0029994 116.005,53.117 C115.446997,53.2310006 114.832003,53.288 114.16,53.288 C113.415996,53.288 112.723003,53.186001 112.081,52.982 C111.438997,52.777999 110.884002,52.4690021 110.416,52.055 C109.947998,51.6409979 109.579001,51.1280031 109.309,50.516 C109.038999,49.9039969 108.904,49.1840041 108.904,48.356 C108.904,47.6479965 109.092998,46.9580034 109.471,46.286 C109.849002,45.6139966 110.472996,45.0110027 111.343,44.477 C112.213004,43.9429973 113.358993,43.5020017 114.781,43.154 C116.203007,42.8059983 117.95799,42.6080002 120.046,42.56 L120.046,41.336 C120.046,40.0159934 119.764003,39.0320032 119.2,38.384 C118.635997,37.7359968 117.808005,37.412 116.716,37.412 C115.971996,37.412 115.348003,37.5049991 114.844,37.691 C114.339997,37.8770009 113.902002,38.0779989 113.53,38.294 C113.157998,38.5100011 112.828001,38.7109991 112.54,38.897 C112.251999,39.0830009 111.946002,39.176 111.622,39.176 C111.357999,39.176 111.133001,39.1070007 110.947,38.969 C110.760999,38.8309993 110.608001,38.660001 110.488,38.456 L109.786,37.196 Z M128.326,53 L128.326,34.64 L130.666,34.64 C131.194003,34.64 131.529999,34.8859975 131.674,35.378 L131.926,36.98 C132.262002,36.5959981 132.609998,36.2450016 132.97,35.927 C133.330002,35.6089984 133.716998,35.3330012 134.131,35.099 C134.545002,34.8649988 134.988998,34.6820007 135.463,34.55 C135.937002,34.4179993 136.449997,34.352 137.002,34.352 C137.590003,34.352 138.129998,34.4359992 138.622,34.604 C139.114002,34.7720008 139.548998,35.0119984 139.927,35.324 C140.305002,35.6360016 140.631999,36.0139978 140.908,36.458 C141.184001,36.9020022 141.411999,37.3999972 141.592,37.952 C141.868001,37.3159968 142.215998,36.7700023 142.636,36.314 C143.056002,35.8579977 143.523997,35.4860014 144.04,35.198 C144.556003,34.9099986 145.104997,34.6970007 145.687,34.559 C146.269003,34.4209993 146.859997,34.352 147.46,34.352 C148.444005,34.352 149.322996,34.5079984 150.097,34.82 C150.871004,35.1320016 151.524997,35.584997 152.059,36.179 C152.593003,36.773003 152.997999,37.5019957 153.274,38.366 C153.550001,39.2300043 153.688,40.2139945 153.688,41.318 L153.688,53 L149.818,53 L149.818,41.318 C149.818,40.0219935 149.539003,39.0470033 148.981,38.393 C148.422997,37.7389967 147.598005,37.412 146.506,37.412 C146.013998,37.412 145.552002,37.4959992 145.12,37.664 C144.687998,37.8320008 144.310002,38.0779984 143.986,38.402 C143.661998,38.7260016 143.407001,39.1309976 143.221,39.617 C143.034999,40.1030024 142.942,40.6699968 142.942,41.318 L142.942,53 L139.072,53 L139.072,41.318 C139.072,39.9739933 138.802003,38.9870031 138.262,38.357 C137.721997,37.7269968 136.930005,37.412 135.886,37.412 C135.165996,37.412 134.500003,37.5949982 133.888,37.961 C133.275997,38.3270018 132.712003,38.8279968 132.196,39.464 L132.196,53 L128.326,53 Z M170.266,41.75 C170.266,41.1019968 170.173001,40.4990028 169.987,39.941 C169.800999,39.3829972 169.528002,38.8970021 169.168,38.483 C168.807998,38.0689979 168.361003,37.7450012 167.827,37.511 C167.292997,37.2769988 166.678003,37.16 165.982,37.16 C164.577993,37.16 163.474004,37.561996 162.67,38.366 C161.865996,39.170004 161.356001,40.2979927 161.14,41.75 L170.266,41.75 Z M161.032,44.126 C161.08,45.1700052 161.241999,46.0729962 161.518,46.835 C161.794001,47.5970038 162.162998,48.2299975 162.625,48.734 C163.087002,49.2380025 163.638997,49.6129988 164.281,49.859 C164.923003,50.1050012 165.639996,50.228 166.432,50.228 C167.188004,50.228 167.841997,50.1410009 168.394,49.967 C168.946003,49.7929991 169.425998,49.601001 169.834,49.391 C170.242002,49.1809989 170.589999,48.9890009 170.878,48.815 C171.166001,48.6409991 171.429999,48.554 171.67,48.554 C171.982002,48.554 172.221999,48.6739988 172.39,48.914 L173.488,50.336 C173.031998,50.8760027 172.516003,51.3319981 171.94,51.704 C171.363997,52.0760019 170.752003,52.3789988 170.104,52.613 C169.455997,52.8470012 168.790003,53.0149995 168.106,53.117 C167.421997,53.2190005 166.756003,53.27 166.108,53.27 C164.835994,53.27 163.657005,53.0570021 162.571,52.631 C161.484995,52.2049979 160.543004,51.5780041 159.745,50.75 C158.946996,49.9219959 158.323002,48.8960061 157.873,47.672 C157.422998,46.4479939 157.198,45.038008 157.198,43.442 C157.198,42.1699936 157.398998,40.9820055 157.801,39.878 C158.203002,38.7739945 158.778996,37.8140041 159.529,36.998 C160.279004,36.1819959 161.190995,35.5370024 162.265,35.063 C163.339005,34.5889976 164.553993,34.352 165.91,34.352 C167.038006,34.352 168.081995,34.5349982 169.042,34.901 C170.002005,35.2670018 170.829997,35.8039965 171.526,36.512 C172.222003,37.2200035 172.764998,38.0869949 173.155,39.113 C173.545002,40.1390051 173.74,41.3059935 173.74,42.614 C173.74,43.214003 173.674001,43.615999 173.542,43.82 C173.409999,44.024001 173.170002,44.126 172.822,44.126 L161.032,44.126 Z M202.918,34.64 L197.032,53 L193.954,53 C193.593998,53 193.342001,52.7660023 193.198,52.298 L189.544,40.868 C189.448,40.5439984 189.361,40.2200016 189.283,39.896 C189.205,39.5719984 189.136,39.2540016 189.076,38.942 C188.943999,39.5900032 188.782001,40.2379968 188.59,40.886 L184.882,52.298 C184.749999,52.7660023 184.468002,53 184.036,53 L181.102,53 L175.216,34.64 L178.276,34.64 C178.576002,34.64 178.824999,34.7149992 179.023,34.865 C179.221001,35.0150007 179.35,35.191999 179.41,35.396 L182.47,46.088 C182.590001,46.5800025 182.695,47.0569977 182.785,47.519 C182.875,47.9810023 182.956,48.4399977 183.028,48.896 C183.148001,48.4399977 183.273999,47.9810023 183.406,47.519 C183.538001,47.0569977 183.675999,46.5800025 183.82,46.088 L187.258,35.342 C187.318,35.1259989 187.440999,34.9490007 187.627,34.811 C187.813001,34.6729993 188.037999,34.604 188.302,34.604 L189.994,34.604 C190.270001,34.604 190.503999,34.6729993 190.696,34.811 C190.888001,34.9490007 191.014,35.1259989 191.074,35.342 L194.422,46.088 C194.566001,46.5800025 194.700999,47.0599977 194.827,47.528 C194.953001,47.9960023 195.069999,48.4639977 195.178,48.932 C195.262,48.4759977 195.352,48.0140023 195.448,47.546 C195.544,47.0779977 195.657999,46.5920025 195.79,46.088 L198.904,35.396 C198.976,35.1799989 199.107999,35.0000007 199.3,34.856 C199.492001,34.7119993 199.725999,34.64 200.002,34.64 L202.918,34.64 Z M213.376,34.352 C214.732007,34.352 215.958995,34.5739978 217.057,35.018 C218.155005,35.4620022 219.090996,36.0919959 219.865,36.908 C220.639004,37.7240041 221.235998,38.7139942 221.656,39.878 C222.076002,41.0420058 222.286,42.3499927 222.286,43.802 C222.286,45.2540073 222.076002,46.5619942 221.656,47.726 C221.235998,48.8900058 220.639004,49.8829959 219.865,50.705 C219.090996,51.5270041 218.155005,52.1599978 217.057,52.604 C215.958995,53.0480022 214.732007,53.27 213.376,53.27 C212.007993,53.27 210.775005,53.0480022 209.677,52.604 C208.578995,52.1599978 207.640004,51.5270041 206.86,50.705 C206.079996,49.8829959 205.480002,48.8900058 205.06,47.726 C204.639998,46.5619942 204.43,45.2540073 204.43,43.802 C204.43,42.3499927 204.639998,41.0420058 205.06,39.878 C205.480002,38.7139942 206.079996,37.7240041 206.86,36.908 C207.640004,36.0919959 208.578995,35.4620022 209.677,35.018 C210.775005,34.5739978 212.007993,34.352 213.376,34.352 Z M213.376,50.246 C215.032008,50.246 216.264996,49.6910055 217.075,48.581 C217.885004,47.4709944 218.29,45.8840103 218.29,43.82 C218.29,41.7559897 217.885004,40.1630056 217.075,39.041 C216.264996,37.9189944 215.032008,37.358 213.376,37.358 C211.695992,37.358 210.448004,37.9189944 209.632,39.041 C208.815996,40.1630056 208.408,41.7559897 208.408,43.82 C208.408,45.8840103 208.815996,47.4709944 209.632,48.581 C210.448004,49.6910055 211.695992,50.246 213.376,50.246 Z M229.648,38.042 C230.224003,36.8779942 230.919996,35.9630033 231.736,35.297 C232.552004,34.6309967 233.529994,34.298 234.67,34.298 C235.066002,34.298 235.437998,34.3429995 235.786,34.433 C236.134002,34.5230004 236.445999,34.6579991 236.722,34.838 L236.452,37.754 C236.404,37.958001 236.329001,38.0989996 236.227,38.177 C236.124999,38.2550004 235.990001,38.294 235.822,38.294 C235.641999,38.294 235.384002,38.2610003 235.048,38.195 C234.711998,38.1289997 234.358002,38.096 233.986,38.096 C233.445997,38.096 232.969002,38.1739992 232.555,38.33 C232.140998,38.4860008 231.769002,38.7139985 231.439,39.014 C231.108998,39.3140015 230.818001,39.6799978 230.566,40.112 C230.313999,40.5440022 230.080001,41.0359972 229.864,41.588 L229.864,53 L225.994,53 L225.994,34.64 L228.244,34.64 C228.652002,34.64 228.933999,34.7149992 229.09,34.865 C229.246001,35.0150007 229.354,35.2759981 229.414,35.648 L229.648,38.042 Z M243.148,26.36 L243.148,41.804 L243.976,41.804 C244.240001,41.804 244.455999,41.7680004 244.624,41.696 C244.792001,41.6239996 244.965999,41.4740011 245.146,41.246 L250.294,35.36 C250.474001,35.1199988 250.671999,34.9400006 250.888,34.82 C251.104001,34.6999994 251.379998,34.64 251.716,34.64 L255.226,34.64 L249.034,41.624 C248.673998,42.0920023 248.278002,42.4639986 247.846,42.74 C248.086001,42.9080008 248.295999,43.0969989 248.476,43.307 C248.656001,43.517001 248.829999,43.7539987 248.998,44.018 L255.604,53 L252.148,53 C251.835998,53 251.569001,52.9490005 251.347,52.847 C251.124999,52.7449995 250.930001,52.5560014 250.762,52.28 L245.452,45.08 C245.271999,44.8039986 245.092001,44.6270004 244.912,44.549 C244.731999,44.4709996 244.462002,44.432 244.102,44.432 L243.148,44.432 L243.148,53 L239.278,53 L239.278,26.36 L243.148,26.36 Z" id="Operator-Framework-Copy"></path>
                        </g>
                    </g>
                </g>
            </g>
        </g>
    </g>
</svg>