<?xml version="1.0" encoding="UTF-8"?>
<svg version="1.1" viewBox="0 0 291 25" xmlns="http://www.w3.org/2000/svg">
<title>Group 47</title>
<desc>Created with Sketch.</desc>
<g fill="none" fill-rule="evenodd">
<g fill="#fff">
<path d="m191.56 1.202v18.798h-3.51v-8.216h-8.827v8.216h-3.51v-18.798h3.51v8.086h8.827v-8.086h3.51zm23.069 5.46v13.338h-1.963c-0.42467 0-0.69333-0.195-0.806-0.585l-0.221-1.066c-0.546 0.55467-1.1483 1.0032-1.807 1.3455s-1.4343 0.5135-2.327 0.5135c-0.728 0-1.3715-0.1235-1.9305-0.3705s-1.0292-0.59583-1.4105-1.0465-0.6695-0.98583-0.8645-1.6055-0.2925-1.3022-0.2925-2.0475v-8.476h3.211v8.476c0 0.81467 0.1885 1.4452 0.5655 1.8915s0.9425 0.6695 1.6965 0.6695c0.55467 0 1.0747-0.1235 1.56-0.3705s0.94466-0.58716 1.378-1.0205v-9.646h3.211zm14.528 1.638c0.53734-0.56334 1.1332-1.0118 1.7875-1.3455 0.65434-0.33367 1.4018-0.5005 2.2425-0.5005 0.77134 0 1.4668 0.15167 2.0865 0.455s1.1483 0.73883 1.586 1.3065c0.43767 0.56767 0.7735 1.2545 1.0075 2.0605 0.234 0.806 0.351 1.7117 0.351 2.717 0 1.0833-0.13433 2.067-0.403 2.951s-0.65216 1.6402-1.1505 2.2685-1.0985 1.1158-1.8005 1.4625-1.482 0.52-2.34 0.52c-0.416 0-0.793-0.041166-1.131-0.1235s-0.65-0.19717-0.936-0.3445-0.54816-0.32717-0.7865-0.5395-0.46583-0.4485-0.6825-0.7085l-0.143 0.897c-0.052 0.22533-0.14083 0.38567-0.2665 0.481s-0.29683 0.143-0.5135 0.143h-2.119v-19.318h3.211v7.618zm0 8.242c0.364 0.442 0.7605 0.754 1.1895 0.936s0.88183 0.273 1.3585 0.273c0.494 0 0.93816-0.088832 1.3325-0.2665s0.73016-0.455 1.0075-0.832 0.48967-0.858 0.637-1.443 0.221-1.2848 0.221-2.0995c0-1.4647-0.24266-2.5242-0.728-3.1785-0.48534-0.65434-1.183-0.9815-2.093-0.9815-0.61534 0-1.1527 0.14083-1.612 0.4225-0.45934 0.28167-0.897 0.67816-1.313 1.1895v5.98zm19.221 1.69c0-0.26867 0.049833-0.52433 0.1495-0.767s0.23617-0.45067 0.4095-0.624 0.38133-0.312 0.624-0.416 0.50266-0.156 0.78-0.156 0.53516 0.052 0.7735 0.156 0.44633 0.24267 0.624 0.416 0.3185 0.38133 0.4225 0.624 0.156 0.49833 0.156 0.767c0 0.27733-0.051999 0.53517-0.156 0.7735s-0.24483 0.44417-0.4225 0.6175-0.38566 0.30983-0.624 0.4095-0.49616 0.1495-0.7735 0.1495-0.53733-0.049833-0.78-0.1495-0.45067-0.23617-0.624-0.4095-0.30983-0.37917-0.4095-0.6175-0.1495-0.49617-0.1495-0.7735zm18.116-11.57v13.338h-3.224v-13.338h3.224zm0.442-3.887c0 0.27733-0.056333 0.53733-0.169 0.78s-0.26217 0.455-0.4485 0.637-0.40516 0.32717-0.6565 0.4355c-0.25134 0.10833-0.52 0.1625-0.806 0.1625-0.27734 0-0.5395-0.054166-0.7865-0.1625-0.247-0.10833-0.4615-0.2535-0.6435-0.4355s-0.32717-0.39433-0.4355-0.637-0.1625-0.50267-0.1625-0.78c0-0.286 0.054166-0.55467 0.1625-0.806s0.2535-0.468 0.4355-0.65 0.3965-0.32717 0.6435-0.4355 0.50916-0.1625 0.7865-0.1625c0.286 0 0.55466 0.054166 0.806 0.1625s0.47017 0.2535 0.6565 0.4355 0.33583 0.39867 0.4485 0.65 0.169 0.52 0.169 0.806zm16.881 3.679c0.988 0 1.8872 0.16033 2.6975 0.481s1.5037 0.77566 2.08 1.365 1.0205 1.3087 1.3325 2.158c0.312 0.84934 0.468 1.7983 0.468 2.847 0 1.0573-0.156 2.0107-0.468 2.86s-0.75616 1.573-1.3325 2.171-1.2697 1.0573-2.08 1.378-1.7095 0.481-2.6975 0.481c-0.99667 0-1.9023-0.16033-2.717-0.481s-1.5102-0.78-2.0865-1.378-1.0227-1.3217-1.339-2.171-0.4745-1.8027-0.4745-2.86c0-1.0487 0.15816-1.9977 0.4745-2.847 0.31634-0.84934 0.76266-1.5687 1.339-2.158s1.2718-1.0443 2.0865-1.365 1.7203-0.481 2.717-0.481zm0 11.271c1.1093 0 1.9305-0.37266 2.4635-1.118s0.7995-1.8373 0.7995-3.276-0.2665-2.535-0.7995-3.289c-0.533-0.754-1.3542-1.131-2.4635-1.131-1.1267 0-1.9608 0.37916-2.5025 1.1375-0.54167 0.75834-0.8125 1.8525-0.8125 3.2825 0 1.43 0.27083 2.5198 0.8125 3.2695s1.3758 1.1245 2.5025 1.1245z" fill-opacity=".7"/>
<path d="m20.02 10.601c0 1.378-0.2275 2.6542-0.6825 3.8285s-1.0985 2.1905-1.9305 3.0485-1.833 1.5275-3.003 2.0085-2.47 0.7215-3.9 0.7215c-1.4213 0-2.717-0.2405-3.887-0.7215s-2.1732-1.1505-3.0095-2.0085-1.4842-1.8742-1.9435-3.0485-0.689-2.4505-0.689-3.8285c0-1.378 0.22966-2.6542 0.689-3.8285 0.45934-1.1743 1.1072-2.1905 1.9435-3.0485s1.8395-1.5275 3.0095-2.0085c1.17-0.481 2.4657-0.7215 3.887-0.7215 0.95334 0 1.8503 0.1105 2.691 0.3315 0.84067 0.221 1.612 0.533 2.314 0.936 0.702 0.403 1.3325 0.89266 1.8915 1.469 0.559 0.57634 1.0335 1.2198 1.4235 1.9305 0.39 0.71067 0.68683 1.482 0.8905 2.314s0.3055 1.7073 0.3055 2.626zm-3.575 0c0-1.0313-0.13867-1.9565-0.416-2.7755-0.27733-0.819-0.67166-1.5145-1.183-2.0865s-1.1332-1.0097-1.8655-1.313-1.5578-0.455-2.4765-0.455c-0.91867 0-1.7442 0.15167-2.4765 0.455s-1.3563 0.741-1.872 1.313c-0.51567 0.572-0.91217 1.2675-1.1895 2.0865-0.27733 0.819-0.416 1.7442-0.416 2.7755 0 1.0313 0.13867 1.9565 0.416 2.7755s0.67383 1.5123 1.1895 2.08c0.51567 0.56767 1.1397 1.0032 1.872 1.3065 0.73234 0.30333 1.5578 0.455 2.4765 0.455 0.91867 0 1.7442-0.15167 2.4765-0.455 0.73234-0.30333 1.3542-0.73883 1.8655-1.3065s0.90567-1.261 1.183-2.08 0.416-1.7442 0.416-2.7755zm17.598 5.941c0.364 0.442 0.7605 0.754 1.1895 0.936s0.89483 0.273 1.3975 0.273c0.48534 0 0.923-0.090999 1.313-0.273 0.39-0.182 0.7215-0.45933 0.9945-0.832s0.48317-0.84283 0.6305-1.4105 0.221-1.2372 0.221-2.0085c0-0.78-0.062833-1.4408-0.1885-1.9825s-0.3055-0.9815-0.5395-1.3195c-0.234-0.338-0.51783-0.585-0.8515-0.741s-0.71283-0.234-1.1375-0.234c-0.66734 0-1.235 0.14083-1.703 0.4225-0.468 0.28167-0.91 0.67816-1.326 1.1895v5.98zm-0.169-8.06c0.546-0.61534 1.1657-1.1137 1.859-1.495s1.508-0.572 2.444-0.572c0.728 0 1.3932 0.15167 1.9955 0.455s1.1223 0.74316 1.56 1.3195c0.43767 0.57634 0.77567 1.287 1.014 2.132 0.23833 0.845 0.3575 1.8135 0.3575 2.9055 0 0.99667-0.13433 1.9197-0.403 2.769s-0.65216 1.586-1.1505 2.21-1.1007 1.1115-1.807 1.4625-1.4972 0.5265-2.3725 0.5265c-0.74534 0-1.3823-0.11483-1.911-0.3445s-1.001-0.54816-1.417-0.9555v5.46h-3.211v-17.693h1.963c0.416 0 0.689 0.195 0.819 0.585l0.26 1.235zm28.778 3.315c0-0.416-0.058499-0.80816-0.1755-1.1765s-0.2925-0.69117-0.5265-0.9685-0.53083-0.49617-0.8905-0.6565c-0.35967-0.16033-0.77783-0.2405-1.2545-0.2405-0.92734 0-1.6575 0.26433-2.1905 0.793-0.533 0.52867-0.87317 1.2783-1.0205 2.249h6.058zm-6.123 1.937c0.052 0.68467 0.17333 1.2762 0.364 1.7745s0.442 0.91 0.754 1.235 0.6825 0.56767 1.1115 0.728 0.9035 0.2405 1.4235 0.2405 0.9685-0.060666 1.3455-0.182 0.70633-0.25567 0.988-0.403 0.52867-0.28167 0.741-0.403 0.41817-0.182 0.6175-0.182c0.26867 0 0.468 0.099666 0.598 0.299l0.923 1.17c-0.35534 0.416-0.754 0.76483-1.196 1.0465s-0.9035 0.507-1.3845 0.676-0.97066 0.28817-1.469 0.3575-0.9815 0.104-1.4495 0.104c-0.92734 0-1.7897-0.15383-2.587-0.4615s-1.4907-0.76266-2.08-1.365-1.053-1.3477-1.391-2.236-0.507-1.9175-0.507-3.0875c0-0.91 0.14733-1.7658 0.442-2.5675 0.29467-0.80167 0.71716-1.4993 1.2675-2.093 0.55034-0.59367 1.222-1.0638 2.015-1.4105s1.6878-0.52 2.6845-0.52c0.84067 0 1.6163 0.13433 2.327 0.403s1.3217 0.66083 1.833 1.1765c0.51134 0.51567 0.91217 1.1483 1.2025 1.898 0.29033 0.74967 0.4355 1.6055 0.4355 2.5675 0 0.48534-0.052 0.8125-0.156 0.9815s-0.30333 0.2535-0.598 0.2535h-8.255zm22.902-4.758c0.416-0.79734 0.91-1.4235 1.482-1.8785 0.572-0.455 1.248-0.6825 2.028-0.6825 0.61534 0 1.1093 0.13433 1.482 0.403l-0.208 2.405c-0.043334 0.156-0.10617 0.2665-0.1885 0.3315-0.082334 0.065-0.19283 0.0975-0.3315 0.0975-0.13 0-0.32283-0.021666-0.5785-0.065s-0.50483-0.065-0.7475-0.065c-0.35534 0-0.67167 0.051999-0.949 0.156s-0.5265 0.2535-0.7475 0.4485c-0.221 0.195-0.416 0.43117-0.585 0.7085s-0.32717 0.59366-0.4745 0.949v8.216h-3.211v-13.338h1.885c0.32934 0 0.559 0.058499 0.689 0.1755 0.13 0.117 0.21667 0.32717 0.26 0.6305l0.195 1.508zm22.005 5.33c-0.92734 0.043334-1.7073 0.1235-2.34 0.2405s-1.1397 0.2665-1.521 0.4485-0.65433 0.39433-0.819 0.637-0.247 0.507-0.247 0.793c0 0.56334 0.16683 0.96633 0.5005 1.209s0.76916 0.364 1.3065 0.364c0.65867 0 1.2285-0.11917 1.7095-0.3575 0.481-0.23833 0.95116-0.60016 1.4105-1.0855v-2.249zm-7.358-5.785c1.534-1.404 3.38-2.106 5.538-2.106 0.78 0 1.4777 0.12783 2.093 0.3835 0.61534 0.25567 1.1353 0.611 1.56 1.066 0.42467 0.455 0.7475 0.99883 0.9685 1.6315 0.221 0.63267 0.3315 1.326 0.3315 2.08v8.424h-1.456c-0.30334 0-0.53733-0.0455-0.702-0.1365s-0.29467-0.27517-0.39-0.5525l-0.286-0.962c-0.338 0.30333-0.66733 0.56983-0.988 0.7995s-0.65433 0.4225-1.001 0.5785c-0.34667 0.156-0.71716 0.27517-1.1115 0.3575s-0.82983 0.1235-1.3065 0.1235c-0.56334 0-1.0833-0.075833-1.56-0.2275-0.47667-0.15167-0.88833-0.37917-1.235-0.6825-0.34667-0.30333-0.61533-0.68033-0.806-1.131s-0.286-0.975-0.286-1.573c0-0.338 0.056333-0.67383 0.169-1.0075s0.29683-0.65217 0.5525-0.9555c0.25567-0.30333 0.58716-0.58933 0.9945-0.858s0.90783-0.50267 1.5015-0.702 1.2848-0.36183 2.0735-0.4875 1.69-0.2015 2.704-0.2275v-0.78c0-0.89267-0.19066-1.5535-0.572-1.9825-0.38134-0.429-0.93166-0.6435-1.651-0.6435-0.52 0-0.95116 0.060666-1.2935 0.182s-0.6435 0.25783-0.9035 0.4095c-0.26 0.15167-0.49617 0.28817-0.7085 0.4095-0.21233 0.12133-0.4485 0.182-0.7085 0.182-0.22533 0-0.416-0.058499-0.572-0.1755-0.156-0.117-0.28167-0.2535-0.377-0.4095l-0.572-1.027zm26.23 11.687c-1.1613 0-2.0518-0.32716-2.6715-0.9815s-0.9295-1.5578-0.9295-2.7105v-7.449h-1.365c-0.17333 0-0.32067-0.056333-0.442-0.169s-0.182-0.28167-0.182-0.507v-1.274l2.145-0.351 0.676-3.64c0.043334-0.17333 0.12567-0.30767 0.247-0.403s0.27733-0.143 0.468-0.143h1.664v4.199h3.562v2.288h-3.562v7.228c0 0.416 0.10183 0.741 0.3055 0.975s0.48316 0.351 0.8385 0.351c0.19933 0 0.36617-0.023833 0.5005-0.0715s0.25133-0.0975 0.351-0.1495 0.1885-0.10183 0.2665-0.1495 0.156-0.0715 0.234-0.0715c0.095334 0 0.17333 0.023833 0.234 0.0715s0.12567 0.11917 0.195 0.2145l0.962 1.56c-0.468 0.39-1.0053 0.68467-1.612 0.884s-1.235 0.299-1.885 0.299zm19.483-13.754c0.988 0 1.8872 0.16033 2.6975 0.481s1.5037 0.77566 2.08 1.365 1.0205 1.3087 1.3325 2.158c0.312 0.84934 0.468 1.7983 0.468 2.847 0 1.0573-0.156 2.0107-0.468 2.86s-0.75616 1.573-1.3325 2.171-1.2697 1.0573-2.08 1.378-1.7095 0.481-2.6975 0.481c-0.99667 0-1.9023-0.16033-2.717-0.481s-1.5102-0.78-2.0865-1.378-1.0227-1.3217-1.339-2.171-0.4745-1.8027-0.4745-2.86c0-1.0487 0.15816-1.9977 0.4745-2.847 0.31634-0.84934 0.76266-1.5687 1.339-2.158s1.2718-1.0443 2.0865-1.365 1.7203-0.481 2.717-0.481zm0 11.271c1.1093 0 1.9305-0.37266 2.4635-1.118s0.7995-1.8373 0.7995-3.276-0.2665-2.535-0.7995-3.289c-0.533-0.754-1.3542-1.131-2.4635-1.131-1.1267 0-1.9608 0.37916-2.5025 1.1375-0.54167 0.75834-0.8125 1.8525-0.8125 3.2825 0 1.43 0.27083 2.5198 0.8125 3.2695s1.3758 1.1245 2.5025 1.1245zm20.523-8.749c0.416-0.79734 0.91-1.4235 1.482-1.8785 0.572-0.455 1.248-0.6825 2.028-0.6825 0.61534 0 1.1093 0.13433 1.482 0.403l-0.208 2.405c-0.043334 0.156-0.10617 0.2665-0.1885 0.3315-0.082334 0.065-0.19283 0.0975-0.3315 0.0975-0.13 0-0.32283-0.021666-0.5785-0.065s-0.50483-0.065-0.7475-0.065c-0.35534 0-0.67166 0.051999-0.949 0.156s-0.5265 0.2535-0.7475 0.4485c-0.221 0.195-0.416 0.43117-0.585 0.7085s-0.32717 0.59366-0.4745 0.949v8.216h-3.211v-13.338h1.885c0.32934 0 0.559 0.058499 0.689 0.1755 0.13 0.117 0.21667 0.32717 0.26 0.6305l0.195 1.508z"/>
</g>
</g>
</svg>
