<?xml version="1.0" encoding="UTF-8"?>
<svg width="139px" height="124px" viewBox="0 0 139 124" version="1.1" xmlns="http://www.w3.org/2000/svg" xmlns:xlink="http://www.w3.org/1999/xlink">
    <!-- Generator: Sketch 52.5 (67469) - http://www.bohemiancoding.com/sketch -->
    <title>level-4</title>
    <desc>Created with Sketch.</desc>
    <g id="Page-1" stroke="none" stroke-width="1" fill="none" fill-rule="evenodd">
        <g id="operatorhub-details-view-v10_1440px@2x-copy-4" transform="translate(-1267.000000, -710.000000)">
            <g id="level-4" transform="translate(1267.000000, 710.000000)">
                <path d="M25.802,9.922 C26.1893353,9.922 26.5229986,9.87766711 26.803,9.789 C27.0830014,9.70033289 27.3128324,9.5755008 27.4925,9.4145 C27.6721676,9.25349919 27.8039996,9.06216777 27.888,8.8405 C27.9720004,8.61883222 28.014,8.37500133 28.014,8.109 C28.014,7.59099741 27.8296685,7.1815015 27.461,6.8805 C27.0923315,6.57949849 26.539337,6.429 25.802,6.429 L23.632,6.429 L23.632,9.922 L25.802,9.922 Z M23.632,2.04 L23.632,5.463 L25.424,5.463 C25.8066686,5.463 26.1391653,5.42100042 26.4215,5.337 C26.7038347,5.25299958 26.9371657,5.13633408 27.1215,4.987 C27.3058343,4.83766592 27.4423329,4.65683439 27.531,4.4445 C27.6196671,4.2321656 27.664,4.00000126 27.664,3.748 C27.664,3.15533037 27.4866684,2.72250136 27.132,2.4495 C26.7773316,2.17649863 26.2266704,2.04 25.48,2.04 L23.632,2.04 Z M25.48,0.969 C26.0960031,0.969 26.6268311,1.02966606 27.0725,1.151 C27.5181689,1.27233394 27.8844986,1.44499888 28.1715,1.669 C28.4585014,1.89300112 28.669666,2.16716504 28.805,2.4915 C28.940334,2.81583495 29.008,3.18099797 29.008,3.587 C29.008,3.83433457 28.9695004,4.07116553 28.8925,4.2975 C28.8154996,4.52383446 28.7000008,4.73499902 28.546,4.931 C28.3919992,5.12700098 28.1971678,5.30316588 27.9615,5.4595 C27.7258322,5.61583411 27.4493349,5.74299951 27.132,5.841 C27.869337,5.9810007 28.4234981,6.24349807 28.7945,6.6285 C29.1655019,7.01350192 29.351,7.51866354 29.351,8.144 C29.351,8.56866879 29.2728341,8.95599825 29.1165,9.306 C28.9601659,9.65600175 28.7315015,9.95699874 28.4305,10.209 C28.1294985,10.4610013 27.7596689,10.6558326 27.321,10.7935 C26.8823311,10.9311674 26.3830028,11 25.823,11 L22.281,11 L22.281,0.969 L25.48,0.969 Z M34.769,7.808 C34.1949971,7.82666676 33.7061687,7.8721663 33.3025,7.9445 C32.8988313,8.01683369 32.5698346,8.11133275 32.3155,8.228 C32.0611654,8.34466725 31.8768339,8.48233254 31.7625,8.641 C31.6481661,8.79966746 31.591,8.97699902 31.591,9.173 C31.591,9.3596676 31.621333,9.52066599 31.682,9.656 C31.742667,9.79133401 31.8254995,9.90216623 31.9305,9.9885 C32.0355005,10.0748338 32.159166,10.1378331 32.3015,10.1775 C32.443834,10.2171669 32.5966658,10.237 32.76,10.237 C32.9793344,10.237 33.1799991,10.2148336 33.362,10.1705 C33.5440009,10.1261664 33.7154992,10.0620004 33.8765,9.978 C34.0375008,9.89399958 34.1914993,9.79366725 34.3385,9.677 C34.4855007,9.56033275 34.6289993,9.42733408 34.769,9.278 L34.769,7.808 Z M30.744,4.91 C31.136002,4.53199811 31.5583311,4.2496676 32.011,4.063 C32.4636689,3.8763324 32.9653306,3.783 33.516,3.783 C33.9126686,3.783 34.2649985,3.84833268 34.573,3.979 C34.8810015,4.10966732 35.1399989,4.2916655 35.35,4.525 C35.560001,4.7583345 35.7186661,5.04066501 35.826,5.372 C35.9333339,5.70333499 35.987,6.06733135 35.987,6.464 L35.987,11 L35.434,11 C35.3126661,11 35.2193337,10.9801669 35.154,10.9405 C35.0886663,10.9008331 35.0373335,10.8226672 35,10.706 L34.86,10.034 C34.6733324,10.2066675 34.4913342,10.3594993 34.314,10.4925 C34.1366658,10.6255007 33.950001,10.7374995 33.754,10.8285 C33.557999,10.9195005 33.3491678,10.9894998 33.1275,11.0385 C32.9058322,11.0875002 32.659668,11.112 32.389,11.112 C32.1136653,11.112 31.8546679,11.0735004 31.612,10.9965 C31.3693321,10.9194996 31.1581676,10.8040008 30.9785,10.65 C30.7988324,10.4959992 30.6565005,10.3011678 30.5515,10.0655 C30.4464995,9.82983215 30.394,9.55100161 30.394,9.229 C30.394,8.9489986 30.4709992,8.67950129 30.625,8.4205 C30.7790008,8.1614987 31.0286649,7.93166767 31.374,7.731 C31.7193351,7.53033233 32.1696639,7.36583397 32.725,7.2375 C33.2803361,7.10916602 33.9616626,7.03566676 34.769,7.017 L34.769,6.464 C34.769,5.91333058 34.6500012,5.49683474 34.412,5.2145 C34.1739988,4.93216525 33.8263356,4.791 33.369,4.791 C33.0609985,4.791 32.8031677,4.82949961 32.5955,4.9065 C32.3878323,4.98350038 32.2081674,5.06983285 32.0565,5.1655 C31.9048326,5.26116714 31.7741672,5.34749961 31.6645,5.4245 C31.5548328,5.50150038 31.4463339,5.54 31.339,5.54 C31.2549996,5.54 31.182667,5.51783355 31.122,5.4735 C31.061333,5.42916644 31.0100002,5.37433366 30.968,5.309 L30.744,4.91 Z M42.014,5.078 C41.9579997,5.18066718 41.8716672,5.232 41.755,5.232 C41.6849996,5.232 41.6056671,5.20633359 41.517,5.155 C41.4283329,5.10366641 41.319834,5.04650031 41.1915,4.9835 C41.063166,4.92049968 40.9103342,4.86216693 40.733,4.8085 C40.5556658,4.75483306 40.3456679,4.728 40.103,4.728 C39.8929989,4.728 39.7040008,4.75483306 39.536,4.8085 C39.3679992,4.86216693 39.2245006,4.9356662 39.1055,5.029 C38.9864994,5.1223338 38.8955003,5.23083271 38.8325,5.3545 C38.7694997,5.47816728 38.738,5.61233261 38.738,5.757 C38.738,5.93900091 38.7904995,6.09066606 38.8955,6.212 C39.0005005,6.33333394 39.1393325,6.43833289 39.312,6.527 C39.4846675,6.61566711 39.6806656,6.69383299 39.9,6.7615 C40.1193344,6.829167 40.3444988,6.90149961 40.5755,6.9785 C40.8065012,7.05550038 41.0316656,7.1406662 41.251,7.234 C41.4703344,7.3273338 41.6663325,7.4439993 41.839,7.584 C42.0116675,7.7240007 42.1504995,7.89549898 42.2555,8.0985 C42.3605005,8.30150101 42.413,8.54533191 42.413,8.83 C42.413,9.1566683 42.3546672,9.45883194 42.238,9.7365 C42.1213327,10.0141681 41.9486678,10.254499 41.72,10.4575 C41.4913322,10.660501 41.211335,10.8203327 40.88,10.937 C40.548665,11.0536672 40.1660022,11.112 39.732,11.112 C39.2373309,11.112 38.7893353,11.0315008 38.388,10.8705 C37.9866647,10.7094992 37.6460014,10.5030013 37.366,10.251 L37.66,9.775 C37.6973335,9.71433303 37.7416664,9.66766683 37.793,9.635 C37.8443336,9.60233317 37.9096663,9.586 37.989,9.586 C38.0730004,9.586 38.1616662,9.61866634 38.255,9.684 C38.3483338,9.74933366 38.4614993,9.82166627 38.5945,9.901 C38.7275007,9.98033373 38.8896657,10.0526663 39.081,10.118 C39.2723343,10.1833337 39.5103319,10.216 39.795,10.216 C40.0376679,10.216 40.2499991,10.1845003 40.432,10.1215 C40.6140009,10.0584997 40.7656661,9.97333387 40.887,9.866 C41.0083339,9.75866613 41.0981664,9.6350007 41.1565,9.495 C41.2148336,9.3549993 41.244,9.20566746 41.244,9.047 C41.244,8.85099902 41.1915005,8.68883397 41.0865,8.5605 C40.9814995,8.43216602 40.8426675,8.32250045 40.67,8.2315 C40.4973325,8.14049954 40.3001678,8.061167 40.0785,7.9935 C39.8568322,7.92583299 39.6305012,7.85466704 39.3995,7.78 C39.1684988,7.70533296 38.9421678,7.62016714 38.7205,7.5245 C38.4988322,7.42883285 38.3016675,7.30866739 38.129,7.164 C37.9563325,7.01933261 37.8175005,6.84083439 37.7125,6.6285 C37.6074995,6.4161656 37.555,6.15833485 37.555,5.855 C37.555,5.58433198 37.6109994,5.32416791 37.723,5.0745 C37.8350006,4.82483208 37.9983323,4.60550094 38.213,4.4165 C38.4276677,4.22749905 38.6913318,4.07700056 39.004,3.965 C39.3166682,3.85299944 39.6736647,3.797 40.075,3.797 C40.541669,3.797 40.9604981,3.87049926 41.3315,4.0175 C41.7025019,4.16450073 42.023332,4.36633205 42.294,4.623 L42.014,5.078 Z M45.262,3.909 L45.262,11 L44.016,11 L44.016,3.909 L45.262,3.909 Z M45.528,1.683 C45.528,1.80433394 45.5035002,1.91749947 45.4545,2.0225 C45.4054998,2.12750052 45.3401671,2.22083292 45.2585,2.3025 C45.1768329,2.38416707 45.0811672,2.4483331 44.9715,2.495 C44.8618328,2.5416669 44.7463339,2.565 44.625,2.565 C44.5036661,2.565 44.3905005,2.5416669 44.2855,2.495 C44.1804995,2.4483331 44.0883337,2.38416707 44.009,2.3025 C43.9296663,2.22083292 43.8666669,2.12750052 43.82,2.0225 C43.7733331,1.91749947 43.75,1.80433394 43.75,1.683 C43.75,1.56166606 43.7733331,1.44616721 43.82,1.3365 C43.8666669,1.22683278 43.9296663,1.13116707 44.009,1.0495 C44.0883337,0.967832925 44.1804995,0.9036669 44.2855,0.857 C44.3905005,0.8103331 44.5036661,0.787 44.625,0.787 C44.7463339,0.787 44.8618328,0.8103331 44.9715,0.857 C45.0811672,0.9036669 45.1768329,0.967832925 45.2585,1.0495 C45.3401671,1.13116707 45.4054998,1.22683278 45.4545,1.3365 C45.5035002,1.44616721 45.528,1.56166606 45.528,1.683 Z M52.241,5.169 C52.2036665,5.22033359 52.1663335,5.25999986 52.129,5.288 C52.0916665,5.31600014 52.0403337,5.33 51.975,5.33 C51.9049996,5.33 51.8280004,5.30083362 51.744,5.2425 C51.6599996,5.18416637 51.5561673,5.12000035 51.4325,5.05 C51.3088327,4.97999965 51.1571676,4.91583362 50.9775,4.8575 C50.7978324,4.79916637 50.5773346,4.77 50.316,4.77 C49.9659982,4.77 49.6580013,4.83183271 49.392,4.9555 C49.1259987,5.07916728 48.9031676,5.2576655 48.7235,5.491 C48.5438324,5.7243345 48.4085005,6.00666501 48.3175,6.338 C48.2264995,6.66933499 48.181,7.04033128 48.181,7.451 C48.181,7.88033548 48.2299995,8.26183166 48.328,8.5955 C48.4260005,8.92916833 48.5648324,9.20916553 48.7445,9.4355 C48.9241676,9.66183446 49.1411654,9.8344994 49.3955,9.9535 C49.6498346,10.0725006 49.9356651,10.132 50.253,10.132 C50.5563348,10.132 50.805999,10.0958337 51.002,10.0235 C51.198001,9.9511663 51.360166,9.87066711 51.4885,9.782 C51.616834,9.69333289 51.7241662,9.61283369 51.8105,9.5405 C51.8968338,9.4681663 51.9819996,9.432 52.066,9.432 C52.1686672,9.432 52.2479997,9.47166627 52.304,9.551 L52.654,10.006 C52.4999992,10.1973343 52.325001,10.360666 52.129,10.496 C51.932999,10.631334 51.7218345,10.7444995 51.4955,10.8355 C51.2691655,10.9265005 51.0323346,10.9929998 50.785,11.035 C50.5376654,11.0770002 50.2856679,11.098 50.029,11.098 C49.5856644,11.098 49.1738352,11.0163341 48.7935,10.853 C48.4131648,10.6896658 48.0830014,10.4528349 47.803,10.1425 C47.5229986,9.83216511 47.3036675,9.45066893 47.145,8.998 C46.9863325,8.54533107 46.907,8.02966956 46.907,7.451 C46.907,6.92366403 46.9804993,6.43600224 47.1275,5.988 C47.2745007,5.53999776 47.4891653,5.15383495 47.7715,4.8295 C48.0538347,4.50516504 48.4014979,4.25200091 48.8145,4.07 C49.2275021,3.88799909 49.7023306,3.797 50.239,3.797 C50.7383358,3.797 51.1781648,3.87749919 51.5585,4.0385 C51.9388352,4.1995008 52.2759985,4.42699853 52.57,4.721 L52.241,5.169 Z M59.227,11 L57.869,11 L57.869,0.969 L59.227,0.969 L59.227,11 Z M62.566,4.938 C62.7200008,4.76533247 62.8833325,4.6090007 63.056,4.469 C63.2286675,4.3289993 63.4118324,4.20883383 63.6055,4.1085 C63.7991676,4.00816616 64.0044989,3.93116693 64.2215,3.8775 C64.4385011,3.82383306 64.6729987,3.797 64.925,3.797 C65.3123353,3.797 65.6541652,3.86116602 65.9505,3.9895 C66.2468348,4.11783397 66.4941657,4.29983215 66.6925,4.5355 C66.8908343,4.77116784 67.0413328,5.05466501 67.144,5.386 C67.2466672,5.71733499 67.298,6.08366466 67.298,6.485 L67.298,11 L66.045,11 L66.045,6.485 C66.045,5.94833065 65.9225012,5.53183481 65.6775,5.2355 C65.4324988,4.93916518 65.0603358,4.791 64.561,4.791 C64.1923315,4.791 63.8481683,4.87966578 63.5285,5.057 C63.2088317,5.23433422 62.913668,5.47466515 62.643,5.778 L62.643,11 L61.39,11 L61.39,3.909 L62.139,3.909 C62.3163342,3.909 62.4259998,3.99533247 62.468,4.168 L62.566,4.938 Z M73.332,5.078 C73.2759997,5.18066718 73.1896672,5.232 73.073,5.232 C73.0029996,5.232 72.9236671,5.20633359 72.835,5.155 C72.7463329,5.10366641 72.637834,5.04650031 72.5095,4.9835 C72.381166,4.92049968 72.2283342,4.86216693 72.051,4.8085 C71.8736658,4.75483306 71.6636679,4.728 71.421,4.728 C71.2109989,4.728 71.0220008,4.75483306 70.854,4.8085 C70.6859992,4.86216693 70.5425006,4.9356662 70.4235,5.029 C70.3044994,5.1223338 70.2135003,5.23083271 70.1505,5.3545 C70.0874997,5.47816728 70.056,5.61233261 70.056,5.757 C70.056,5.93900091 70.1084995,6.09066606 70.2135,6.212 C70.3185005,6.33333394 70.4573325,6.43833289 70.63,6.527 C70.8026675,6.61566711 70.9986656,6.69383299 71.218,6.7615 C71.4373344,6.829167 71.6624988,6.90149961 71.8935,6.9785 C72.1245012,7.05550038 72.3496656,7.1406662 72.569,7.234 C72.7883344,7.3273338 72.9843325,7.4439993 73.157,7.584 C73.3296675,7.7240007 73.4684995,7.89549898 73.5735,8.0985 C73.6785005,8.30150101 73.731,8.54533191 73.731,8.83 C73.731,9.1566683 73.6726672,9.45883194 73.556,9.7365 C73.4393327,10.0141681 73.2666678,10.254499 73.038,10.4575 C72.8093322,10.660501 72.529335,10.8203327 72.198,10.937 C71.866665,11.0536672 71.4840022,11.112 71.05,11.112 C70.5553309,11.112 70.1073353,11.0315008 69.706,10.8705 C69.3046647,10.7094992 68.9640014,10.5030013 68.684,10.251 L68.978,9.775 C69.0153335,9.71433303 69.0596664,9.66766683 69.111,9.635 C69.1623336,9.60233317 69.2276663,9.586 69.307,9.586 C69.3910004,9.586 69.4796662,9.61866634 69.573,9.684 C69.6663338,9.74933366 69.7794993,9.82166627 69.9125,9.901 C70.0455007,9.98033373 70.2076657,10.0526663 70.399,10.118 C70.5903343,10.1833337 70.8283319,10.216 71.113,10.216 C71.3556679,10.216 71.5679991,10.1845003 71.75,10.1215 C71.9320009,10.0584997 72.0836661,9.97333387 72.205,9.866 C72.3263339,9.75866613 72.4161664,9.6350007 72.4745,9.495 C72.5328336,9.3549993 72.562,9.20566746 72.562,9.047 C72.562,8.85099902 72.5095005,8.68883397 72.4045,8.5605 C72.2994995,8.43216602 72.1606675,8.32250045 71.988,8.2315 C71.8153325,8.14049954 71.6181678,8.061167 71.3965,7.9935 C71.1748322,7.92583299 70.9485012,7.85466704 70.7175,7.78 C70.4864988,7.70533296 70.2601678,7.62016714 70.0385,7.5245 C69.8168322,7.42883285 69.6196675,7.30866739 69.447,7.164 C69.2743325,7.01933261 69.1355005,6.84083439 69.0305,6.6285 C68.9254995,6.4161656 68.873,6.15833485 68.873,5.855 C68.873,5.58433198 68.9289994,5.32416791 69.041,5.0745 C69.1530006,4.82483208 69.3163323,4.60550094 69.531,4.4165 C69.7456677,4.22749905 70.0093318,4.07700056 70.322,3.965 C70.6346682,3.85299944 70.9916647,3.797 71.393,3.797 C71.859669,3.797 72.2784981,3.87049926 72.6495,4.0175 C73.0205019,4.16450073 73.341332,4.36633205 73.612,4.623 L73.332,5.078 Z M77.441,11.112 C76.8809972,11.112 76.4505015,10.9556682 76.1495,10.643 C75.8484985,10.3303318 75.698,9.88000294 75.698,9.292 L75.698,4.952 L74.844,4.952 C74.769333,4.952 74.7063336,4.92983355 74.655,4.8855 C74.6036664,4.84116644 74.578,4.7723338 74.578,4.679 L74.578,4.182 L75.74,4.035 L76.027,1.844 C76.0410001,1.77399965 76.0724998,1.71683355 76.1215,1.6725 C76.1705002,1.62816644 76.2346663,1.606 76.314,1.606 L76.944,1.606 L76.944,4.049 L78.995,4.049 L78.995,4.952 L76.944,4.952 L76.944,9.208 C76.944,9.50666816 77.0163326,9.72833261 77.161,9.873 C77.3056674,10.0176674 77.4923322,10.09 77.721,10.09 C77.8516673,10.09 77.9648329,10.0725002 78.0605,10.0375 C78.1561671,10.0024998 78.2389996,9.96400021 78.309,9.922 C78.3790003,9.87999979 78.4384998,9.84150017 78.4875,9.8065 C78.5365002,9.77149982 78.5796665,9.754 78.617,9.754 C78.6823337,9.754 78.7406664,9.79366627 78.792,9.873 L79.156,10.468 C78.9413323,10.6686677 78.6823348,10.8261661 78.379,10.9405 C78.0756651,11.0548339 77.7630016,11.112 77.441,11.112 Z M84.126,7.808 C83.5519971,7.82666676 83.0631687,7.8721663 82.6595,7.9445 C82.2558313,8.01683369 81.9268346,8.11133275 81.6725,8.228 C81.4181654,8.34466725 81.2338339,8.48233254 81.1195,8.641 C81.0051661,8.79966746 80.948,8.97699902 80.948,9.173 C80.948,9.3596676 80.978333,9.52066599 81.039,9.656 C81.099667,9.79133401 81.1824995,9.90216623 81.2875,9.9885 C81.3925005,10.0748338 81.516166,10.1378331 81.6585,10.1775 C81.800834,10.2171669 81.9536658,10.237 82.117,10.237 C82.3363344,10.237 82.5369991,10.2148336 82.719,10.1705 C82.9010009,10.1261664 83.0724992,10.0620004 83.2335,9.978 C83.3945008,9.89399958 83.5484993,9.79366725 83.6955,9.677 C83.8425007,9.56033275 83.9859993,9.42733408 84.126,9.278 L84.126,7.808 Z M80.101,4.91 C80.493002,4.53199811 80.9153311,4.2496676 81.368,4.063 C81.8206689,3.8763324 82.3223306,3.783 82.873,3.783 C83.2696686,3.783 83.6219985,3.84833268 83.93,3.979 C84.2380015,4.10966732 84.4969989,4.2916655 84.707,4.525 C84.917001,4.7583345 85.0756661,5.04066501 85.183,5.372 C85.2903339,5.70333499 85.344,6.06733135 85.344,6.464 L85.344,11 L84.791,11 C84.6696661,11 84.5763337,10.9801669 84.511,10.9405 C84.4456663,10.9008331 84.3943335,10.8226672 84.357,10.706 L84.217,10.034 C84.0303324,10.2066675 83.8483342,10.3594993 83.671,10.4925 C83.4936658,10.6255007 83.307001,10.7374995 83.111,10.8285 C82.914999,10.9195005 82.7061678,10.9894998 82.4845,11.0385 C82.2628322,11.0875002 82.016668,11.112 81.746,11.112 C81.4706653,11.112 81.2116679,11.0735004 80.969,10.9965 C80.7263321,10.9194996 80.5151676,10.8040008 80.3355,10.65 C80.1558324,10.4959992 80.0135005,10.3011678 79.9085,10.0655 C79.8034995,9.82983215 79.751,9.55100161 79.751,9.229 C79.751,8.9489986 79.8279992,8.67950129 79.982,8.4205 C80.1360008,8.1614987 80.3856649,7.93166767 80.731,7.731 C81.0763351,7.53033233 81.5266639,7.36583397 82.082,7.2375 C82.6373361,7.10916602 83.3186626,7.03566676 84.126,7.017 L84.126,6.464 C84.126,5.91333058 84.0070012,5.49683474 83.769,5.2145 C83.5309988,4.93216525 83.1833356,4.791 82.726,4.791 C82.4179985,4.791 82.1601677,4.82949961 81.9525,4.9065 C81.7448323,4.98350038 81.5651674,5.06983285 81.4135,5.1655 C81.2618326,5.26116714 81.1311672,5.34749961 81.0215,5.4245 C80.9118328,5.50150038 80.8033339,5.54 80.696,5.54 C80.6119996,5.54 80.539667,5.51783355 80.479,5.4735 C80.418333,5.42916644 80.3670002,5.37433366 80.325,5.309 L80.101,4.91 Z M88.529,0.689 L88.529,11 L87.283,11 L87.283,0.689 L88.529,0.689 Z M91.833,0.689 L91.833,11 L90.587,11 L90.587,0.689 L91.833,0.689 Z" id="Basic-Install" fill="#333F52"></path>
                <path d="M30.975,89.988 C30.975,90.7393371 30.8560012,91.4229969 30.618,92.039 C30.3799988,92.6550031 30.0440022,93.1823311 29.61,93.621 C29.1759978,94.0596689 28.654503,94.3991655 28.0455,94.6395 C27.436497,94.8798345 26.763337,95 26.026,95 L22.281,95 L22.281,84.969 L26.026,84.969 C26.763337,84.969 27.436497,85.0891655 28.0455,85.3295 C28.654503,85.5698345 29.1759978,85.9104978 29.61,86.3515 C30.0440022,86.7925022 30.3799988,87.3209969 30.618,87.937 C30.8560012,88.5530031 30.975,89.2366629 30.975,89.988 Z M29.582,89.988 C29.582,89.3719969 29.4980008,88.8213358 29.33,88.336 C29.1619992,87.8506642 28.9240015,87.4400017 28.616,87.104 C28.3079985,86.7679983 27.9346689,86.5113342 27.496,86.334 C27.0573311,86.1566658 26.567336,86.068 26.026,86.068 L23.639,86.068 L23.639,93.901 L26.026,93.901 C26.567336,93.901 27.0573311,93.8123342 27.496,93.635 C27.9346689,93.4576658 28.3079985,93.2021683 28.616,92.8685 C28.9240015,92.5348317 29.1619992,92.1253358 29.33,91.64 C29.4980008,91.1546642 29.582,90.6040031 29.582,89.988 Z M37.282,90.681 C37.282,90.3916652 37.2411671,90.1268345 37.1595,89.8865 C37.0778329,89.6461655 36.9588341,89.4385009 36.8025,89.2635 C36.6461659,89.0884991 36.4560011,88.9531671 36.232,88.8575 C36.0079989,88.7618329 35.7536681,88.714 35.469,88.714 C34.8716637,88.714 34.3991684,88.8878316 34.0515,89.2355 C33.7038316,89.5831684 33.4880004,90.0649969 33.404,90.681 L37.282,90.681 Z M38.29,94.006 C38.1359992,94.1926676 37.9516677,94.3548326 37.737,94.4925 C37.5223323,94.6301674 37.2925012,94.7433329 37.0475,94.832 C36.8024988,94.9206671 36.5493346,94.9871664 36.288,95.0315 C36.0266654,95.0758336 35.767668,95.098 35.511,95.098 C35.0209975,95.098 34.5695021,95.0151675 34.1565,94.8495 C33.7434979,94.6838325 33.3865015,94.4411683 33.0855,94.1215 C32.7844985,93.8018317 32.5500008,93.4063357 32.382,92.935 C32.2139992,92.4636643 32.13,91.9223364 32.13,91.311 C32.13,90.8163309 32.2058326,90.3543355 32.3575,89.925 C32.5091674,89.4956645 32.7273319,89.1235016 33.012,88.8085 C33.2966681,88.4934984 33.6443313,88.2461676 34.055,88.0665 C34.4656687,87.8868324 34.9276641,87.797 35.441,87.797 C35.8656688,87.797 36.2588315,87.868166 36.6205,88.0105 C36.9821685,88.152834 37.294832,88.3581653 37.5585,88.6265 C37.822168,88.8948347 38.0286659,89.2261647 38.178,89.6205 C38.3273341,90.0148353 38.402,90.4639975 38.402,90.968 C38.402,91.164001 38.3810002,91.2946663 38.339,91.36 C38.2969998,91.4253337 38.2176673,91.458 38.101,91.458 L33.362,91.458 C33.3760001,91.9060022 33.4378328,92.295665 33.5475,92.627 C33.6571672,92.958335 33.809999,93.2348322 34.006,93.4565 C34.202001,93.6781678 34.435332,93.8438328 34.706,93.9535 C34.976668,94.0631672 35.2799983,94.118 35.616,94.118 C35.9286682,94.118 36.1981655,94.0818337 36.4245,94.0095 C36.6508345,93.9371663 36.8456659,93.8590004 37.009,93.775 C37.1723341,93.6909996 37.3088328,93.6128337 37.4185,93.5405 C37.5281672,93.4681663 37.6226663,93.432 37.702,93.432 C37.8046672,93.432 37.8839997,93.4716663 37.94,93.551 L38.29,94.006 Z M44.674,90.681 C44.674,90.3916652 44.6331671,90.1268345 44.5515,89.8865 C44.4698329,89.6461655 44.3508341,89.4385009 44.1945,89.2635 C44.0381659,89.0884991 43.8480011,88.9531671 43.624,88.8575 C43.3999989,88.7618329 43.1456681,88.714 42.861,88.714 C42.2636637,88.714 41.7911684,88.8878316 41.4435,89.2355 C41.0958316,89.5831684 40.8800004,90.0649969 40.796,90.681 L44.674,90.681 Z M45.682,94.006 C45.5279992,94.1926676 45.3436677,94.3548326 45.129,94.4925 C44.9143323,94.6301674 44.6845012,94.7433329 44.4395,94.832 C44.1944988,94.9206671 43.9413346,94.9871664 43.68,95.0315 C43.4186654,95.0758336 43.1596679,95.098 42.903,95.098 C42.4129976,95.098 41.9615021,95.0151675 41.5485,94.8495 C41.1354979,94.6838325 40.7785015,94.4411683 40.4775,94.1215 C40.1764985,93.8018317 39.9420008,93.4063357 39.774,92.935 C39.6059992,92.4636643 39.522,91.9223364 39.522,91.311 C39.522,90.8163309 39.5978326,90.3543355 39.7495,89.925 C39.9011674,89.4956645 40.1193319,89.1235016 40.404,88.8085 C40.6886681,88.4934984 41.0363313,88.2461676 41.447,88.0665 C41.8576687,87.8868324 42.3196641,87.797 42.833,87.797 C43.2576688,87.797 43.6508315,87.868166 44.0125,88.0105 C44.3741685,88.152834 44.686832,88.3581653 44.9505,88.6265 C45.214168,88.8948347 45.4206659,89.2261647 45.57,89.6205 C45.7193341,90.0148353 45.794,90.4639975 45.794,90.968 C45.794,91.164001 45.7730002,91.2946663 45.731,91.36 C45.6889998,91.4253337 45.6096673,91.458 45.493,91.458 L40.754,91.458 C40.7680001,91.9060022 40.8298328,92.295665 40.9395,92.627 C41.0491672,92.958335 41.201999,93.2348322 41.398,93.4565 C41.594001,93.6781678 41.827332,93.8438328 42.098,93.9535 C42.368668,94.0631672 42.6719983,94.118 43.008,94.118 C43.3206682,94.118 43.5901655,94.0818337 43.8165,94.0095 C44.0428345,93.9371663 44.2376658,93.8590004 44.401,93.775 C44.5643342,93.6909996 44.7008328,93.6128337 44.8105,93.5405 C44.9201672,93.4681663 45.0146663,93.432 45.094,93.432 C45.1966672,93.432 45.2759997,93.4716663 45.332,93.551 L45.682,94.006 Z M48.573,93.292 C48.8016678,93.6000015 49.051332,93.8169994 49.322,93.943 C49.592668,94.0690006 49.8959983,94.132 50.232,94.132 C50.89467,94.132 51.4033316,93.8963357 51.758,93.425 C52.1126684,92.9536643 52.29,92.281671 52.29,91.409 C52.29,90.9469977 52.2491671,90.550335 52.1675,90.219 C52.0858329,89.887665 51.9680008,89.6158344 51.814,89.4035 C51.6599992,89.1911656 51.4710011,89.0360005 51.247,88.938 C51.0229989,88.8399995 50.7686681,88.791 50.484,88.791 C50.077998,88.791 49.7221682,88.8843324 49.4165,89.071 C49.1108318,89.2576676 48.829668,89.5213316 48.573,89.862 L48.573,93.292 Z M48.51,89.008 C48.8086682,88.6393315 49.153998,88.3430011 49.546,88.119 C49.938002,87.8949989 50.3859975,87.783 50.89,87.783 C51.3006687,87.783 51.671665,87.8611659 52.003,88.0175 C52.334335,88.1738341 52.6166655,88.4048318 52.85,88.7105 C53.0833345,89.0161682 53.2629994,89.3953311 53.389,89.848 C53.5150006,90.3006689 53.578,90.8209971 53.578,91.409 C53.578,91.9316693 53.5080007,92.4181644 53.368,92.8685 C53.2279993,93.3188356 53.026168,93.7084984 52.7625,94.0375 C52.498832,94.3665016 52.1768352,94.6254991 51.7965,94.8145 C51.4161648,95.0035009 50.9880024,95.098 50.512,95.098 C50.0779978,95.098 49.7058349,95.0245007 49.3955,94.8775 C49.0851651,94.7304993 48.8110012,94.5263346 48.573,94.265 L48.573,97.401 L47.32,97.401 L47.32,87.909 L48.069,87.909 C48.2463342,87.909 48.3559998,87.9953325 48.398,88.168 L48.51,89.008 Z M60.403,95 L59.045,95 L59.045,84.969 L60.403,84.969 L60.403,95 Z M63.742,88.938 C63.8960008,88.7653325 64.0593325,88.6090007 64.232,88.469 C64.4046675,88.3289993 64.5878324,88.2088338 64.7815,88.1085 C64.9751676,88.0081662 65.1804989,87.9311669 65.3975,87.8775 C65.6145011,87.8238331 65.8489987,87.797 66.101,87.797 C66.4883353,87.797 66.8301652,87.861166 67.1265,87.9895 C67.4228348,88.117834 67.6701657,88.2998322 67.8685,88.5355 C68.0668343,88.7711678 68.2173328,89.054665 68.32,89.386 C68.4226672,89.717335 68.474,90.0836647 68.474,90.485 L68.474,95 L67.221,95 L67.221,90.485 C67.221,89.9483307 67.0985012,89.5318348 66.8535,89.2355 C66.6084988,88.9391652 66.2363358,88.791 65.737,88.791 C65.3683315,88.791 65.0241683,88.8796658 64.7045,89.057 C64.3848317,89.2343342 64.089668,89.4746651 63.819,89.778 L63.819,95 L62.566,95 L62.566,87.909 L63.315,87.909 C63.4923342,87.909 63.6019998,87.9953325 63.644,88.168 L63.742,88.938 Z M74.508,89.078 C74.4519997,89.1806672 74.3656673,89.232 74.249,89.232 C74.1789996,89.232 74.0996671,89.2063336 74.011,89.155 C73.9223329,89.1036664 73.813834,89.0465003 73.6855,88.9835 C73.557166,88.9204997 73.4043342,88.8621669 73.227,88.8085 C73.0496658,88.7548331 72.8396679,88.728 72.597,88.728 C72.3869989,88.728 72.1980008,88.7548331 72.03,88.8085 C71.8619992,88.8621669 71.7185006,88.9356662 71.5995,89.029 C71.4804994,89.1223338 71.3895003,89.2308327 71.3265,89.3545 C71.2634997,89.4781673 71.232,89.6123326 71.232,89.757 C71.232,89.9390009 71.2844995,90.0906661 71.3895,90.212 C71.4945005,90.3333339 71.6333325,90.4383329 71.806,90.527 C71.9786675,90.6156671 72.1746656,90.693833 72.394,90.7615 C72.6133344,90.829167 72.8384988,90.9014996 73.0695,90.9785 C73.3005012,91.0555004 73.5256656,91.1406662 73.745,91.234 C73.9643344,91.3273338 74.1603325,91.4439993 74.333,91.584 C74.5056675,91.7240007 74.6444995,91.895499 74.7495,92.0985 C74.8545005,92.301501 74.907,92.5453319 74.907,92.83 C74.907,93.1566683 74.8486673,93.4588319 74.732,93.7365 C74.6153327,94.0141681 74.4426678,94.254499 74.214,94.4575 C73.9853322,94.660501 73.705335,94.8203328 73.374,94.937 C73.042665,95.0536673 72.6600022,95.112 72.226,95.112 C71.7313309,95.112 71.2833353,95.0315008 70.882,94.8705 C70.4806647,94.7094992 70.1400014,94.5030013 69.86,94.251 L70.154,93.775 C70.1913335,93.714333 70.2356664,93.6676668 70.287,93.635 C70.3383336,93.6023332 70.4036663,93.586 70.483,93.586 C70.5670004,93.586 70.6556662,93.6186663 70.749,93.684 C70.8423338,93.7493337 70.9554993,93.8216663 71.0885,93.901 C71.2215007,93.9803337 71.3836657,94.0526663 71.575,94.118 C71.7663343,94.1833337 72.0043319,94.216 72.289,94.216 C72.5316679,94.216 72.7439991,94.1845003 72.926,94.1215 C73.1080009,94.0584997 73.2596661,93.9733339 73.381,93.866 C73.5023339,93.7586661 73.5921664,93.6350007 73.6505,93.495 C73.7088336,93.3549993 73.738,93.2056675 73.738,93.047 C73.738,92.850999 73.6855005,92.688834 73.5805,92.5605 C73.4754995,92.432166 73.3366675,92.3225005 73.164,92.2315 C72.9913325,92.1404995 72.7941678,92.061167 72.5725,91.9935 C72.3508322,91.925833 72.1245012,91.854667 71.8935,91.78 C71.6624988,91.705333 71.4361678,91.6201671 71.2145,91.5245 C70.9928322,91.4288329 70.7956675,91.3086674 70.623,91.164 C70.4503325,91.0193326 70.3115005,90.8408344 70.2065,90.6285 C70.1014995,90.4161656 70.049,90.1583349 70.049,89.855 C70.049,89.584332 70.1049994,89.3241679 70.217,89.0745 C70.3290006,88.8248321 70.4923323,88.6055009 70.707,88.4165 C70.9216677,88.2274991 71.1853318,88.0770006 71.498,87.965 C71.8106682,87.8529994 72.1676647,87.797 72.569,87.797 C73.035669,87.797 73.4544981,87.8704993 73.8255,88.0175 C74.1965019,88.1645007 74.517332,88.366332 74.788,88.623 L74.508,89.078 Z M77.756,87.909 L77.756,95 L76.51,95 L76.51,87.909 L77.756,87.909 Z M78.022,85.683 C78.022,85.8043339 77.9975002,85.9174995 77.9485,86.0225 C77.8994998,86.1275005 77.8341671,86.2208329 77.7525,86.3025 C77.6708329,86.3841671 77.5751672,86.4483331 77.4655,86.495 C77.3558328,86.5416669 77.2403339,86.565 77.119,86.565 C76.9976661,86.565 76.8845005,86.5416669 76.7795,86.495 C76.6744995,86.4483331 76.5823337,86.3841671 76.503,86.3025 C76.4236663,86.2208329 76.3606669,86.1275005 76.314,86.0225 C76.2673331,85.9174995 76.244,85.8043339 76.244,85.683 C76.244,85.5616661 76.2673331,85.4461672 76.314,85.3365 C76.3606669,85.2268328 76.4236663,85.1311671 76.503,85.0495 C76.5823337,84.9678329 76.6744995,84.9036669 76.7795,84.857 C76.8845005,84.8103331 76.9976661,84.787 77.119,84.787 C77.2403339,84.787 77.3558328,84.8103331 77.4655,84.857 C77.5751672,84.9036669 77.6708329,84.9678329 77.7525,85.0495 C77.8341671,85.1311671 77.8994998,85.2268328 77.9485,85.3365 C77.9975002,85.4461672 78.022,85.5616661 78.022,85.683 Z M82.271,91.535 C82.5230013,91.535 82.7446657,91.5000003 82.936,91.43 C83.1273343,91.3599996 83.2883327,91.2620006 83.419,91.136 C83.5496673,91.0099994 83.6476663,90.8595009 83.713,90.6845 C83.7783337,90.5094991 83.811,90.3170011 83.811,90.107 C83.811,89.6729978 83.679168,89.327668 83.4155,89.071 C83.151832,88.8143321 82.7703358,88.686 82.271,88.686 C81.7669975,88.686 81.383168,88.8143321 81.1195,89.071 C80.855832,89.327668 80.724,89.6729978 80.724,90.107 C80.724,90.3170011 80.757833,90.5094991 80.8255,90.6845 C80.893167,90.8595009 80.9923327,91.0099994 81.123,91.136 C81.2536673,91.2620006 81.4146657,91.3599996 81.606,91.43 C81.7973343,91.5000003 82.0189987,91.535 82.271,91.535 Z M84.518,95.385 C84.518,95.2123325 84.4690005,95.0723339 84.371,94.965 C84.2729995,94.8576661 84.1411675,94.773667 83.9755,94.713 C83.8098325,94.652333 83.6173344,94.6091668 83.398,94.5835 C83.1786656,94.5578332 82.9465012,94.5380001 82.7015,94.524 C82.4564988,94.5099999 82.2080013,94.4960001 81.956,94.482 C81.7039987,94.4679999 81.4613345,94.4446668 81.228,94.412 C80.9666654,94.5333339 80.7531675,94.6861657 80.5875,94.8705 C80.4218325,95.0548343 80.339,95.2706654 80.339,95.518 C80.339,95.6766675 80.3798329,95.8248326 80.4615,95.9625 C80.5431671,96.1001674 80.6679992,96.2191662 80.836,96.3195 C81.0040008,96.4198338 81.2151654,96.4991664 81.4695,96.5575 C81.7238346,96.6158336 82.0236649,96.645 82.369,96.645 C82.7050017,96.645 83.0059987,96.614667 83.272,96.554 C83.5380013,96.493333 83.7631657,96.4070006 83.9475,96.295 C84.1318343,96.1829994 84.2729995,96.0500008 84.371,95.896 C84.4690005,95.7419992 84.518,95.5716676 84.518,95.385 Z M85.785,88.189 L85.785,88.651 C85.785,88.8050008 85.687001,88.9029998 85.491,88.945 L84.686,89.05 C84.8446675,89.3580015 84.924,89.6986648 84.924,90.072 C84.924,90.4173351 84.8575007,90.7311653 84.7245,91.0135 C84.5914993,91.2958347 84.4083345,91.5373323 84.175,91.738 C83.9416655,91.9386677 83.6616683,92.0926661 83.335,92.2 C83.0083317,92.3073339 82.6536686,92.361 82.271,92.361 C81.939665,92.361 81.6270015,92.3213337 81.333,92.242 C81.1836659,92.3353338 81.0693337,92.4344995 80.99,92.5395 C80.9106663,92.6445005 80.871,92.7506661 80.871,92.858 C80.871,93.0260008 80.9398326,93.1531662 81.0775,93.2395 C81.2151674,93.3258338 81.3959989,93.3876665 81.62,93.425 C81.8440011,93.4623335 82.0994986,93.4856666 82.3865,93.495 C82.6735014,93.5043334 82.9674985,93.5194999 83.2685,93.5405 C83.5695015,93.5615001 83.8634986,93.5976664 84.1505,93.649 C84.4375014,93.7003336 84.6929989,93.7843328 84.917,93.901 C85.1410011,94.0176673 85.3218326,94.1786656 85.4595,94.384 C85.5971674,94.5893344 85.666,94.8553317 85.666,95.182 C85.666,95.4853349 85.5901674,95.7793319 85.4385,96.064 C85.2868326,96.3486681 85.0686681,96.6018322 84.784,96.8235 C84.4993319,97.0451678 84.1505021,97.2224993 83.7375,97.3555 C83.3244979,97.4885007 82.8590026,97.555 82.341,97.555 C81.8229974,97.555 81.3703353,97.5036672 80.983,97.401 C80.5956647,97.2983328 80.2736679,97.1606675 80.017,96.988 C79.7603321,96.8153325 79.567834,96.6158345 79.4395,96.3895 C79.311166,96.1631655 79.247,95.9263346 79.247,95.679 C79.247,95.3289982 79.3566656,95.0326679 79.576,94.79 C79.7953344,94.5473321 80.0963314,94.3536674 80.479,94.209 C80.2689989,94.1156662 80.1021673,93.9908341 79.9785,93.8345 C79.8548327,93.6781659 79.793,93.4670013 79.793,93.201 C79.793,93.0983328 79.8116665,92.9921672 79.849,92.8825 C79.8863335,92.7728328 79.9434996,92.6631672 80.0205,92.5535 C80.0975004,92.4438328 80.1919994,92.3400005 80.304,92.242 C80.4160006,92.1439995 80.5466659,92.057667 80.696,91.983 C80.3459982,91.786999 80.073001,91.526835 79.877,91.2025 C79.680999,90.878165 79.583,90.5013355 79.583,90.072 C79.583,89.7266649 79.6494993,89.4128347 79.7825,89.1305 C79.9155007,88.8481653 80.1009988,88.6078343 80.339,88.4095 C80.5770012,88.2111657 80.8604984,88.0583339 81.1895,87.951 C81.5185016,87.8436661 81.878998,87.79 82.271,87.79 C82.5790015,87.79 82.8659987,87.823833 83.132,87.8915 C83.3980013,87.959167 83.6406656,88.0583327 83.86,88.189 L85.785,88.189 Z M88.333,88.854 C88.6363348,88.5319984 88.9723315,88.2753343 89.341,88.084 C89.7096685,87.8926657 90.1343309,87.797 90.615,87.797 C91.0023353,87.797 91.3441652,87.861166 91.6405,87.9895 C91.9368348,88.117834 92.1841657,88.2998322 92.3825,88.5355 C92.5808343,88.7711678 92.7313328,89.054665 92.834,89.386 C92.9366672,89.717335 92.988,90.0836647 92.988,90.485 L92.988,95 L91.735,95 L91.735,90.485 C91.735,89.9483307 91.6125012,89.5318348 91.3675,89.2355 C91.1224988,88.9391652 90.7503358,88.791 90.251,88.791 C89.8823315,88.791 89.5381683,88.8796658 89.2185,89.057 C88.8988317,89.2343342 88.603668,89.4746651 88.333,89.778 L88.333,95 L87.08,95 L87.08,84.689 L88.333,84.689 L88.333,88.854 Z M96.971,95.112 C96.4109972,95.112 95.9805015,94.9556682 95.6795,94.643 C95.3784985,94.3303318 95.228,93.8800029 95.228,93.292 L95.228,88.952 L94.374,88.952 C94.299333,88.952 94.2363336,88.9298336 94.185,88.8855 C94.1336664,88.8411664 94.108,88.7723338 94.108,88.679 L94.108,88.182 L95.27,88.035 L95.557,85.844 C95.5710001,85.7739997 95.6024998,85.7168336 95.6515,85.6725 C95.7005002,85.6281664 95.7646663,85.606 95.844,85.606 L96.474,85.606 L96.474,88.049 L98.525,88.049 L98.525,88.952 L96.474,88.952 L96.474,93.208 C96.474,93.5066682 96.5463326,93.7283326 96.691,93.873 C96.8356674,94.0176674 97.0223322,94.09 97.251,94.09 C97.3816673,94.09 97.4948329,94.0725002 97.5905,94.0375 C97.6861671,94.0024998 97.7689996,93.9640002 97.839,93.922 C97.9090003,93.8799998 97.9684998,93.8415002 98.0175,93.8065 C98.0665002,93.7714998 98.1096665,93.754 98.147,93.754 C98.2123337,93.754 98.2706664,93.7936663 98.322,93.873 L98.686,94.468 C98.4713323,94.6686677 98.2123348,94.8261661 97.909,94.9405 C97.6056651,95.0548339 97.2930016,95.112 96.971,95.112 Z M103.943,89.078 C103.887,89.1806672 103.800667,89.232 103.684,89.232 C103.614,89.232 103.534667,89.2063336 103.446,89.155 C103.357333,89.1036664 103.248834,89.0465003 103.1205,88.9835 C102.992166,88.9204997 102.839334,88.8621669 102.662,88.8085 C102.484666,88.7548331 102.274668,88.728 102.032,88.728 C101.821999,88.728 101.633001,88.7548331 101.465,88.8085 C101.296999,88.8621669 101.153501,88.9356662 101.0345,89.029 C100.915499,89.1223338 100.8245,89.2308327 100.7615,89.3545 C100.6985,89.4781673 100.667,89.6123326 100.667,89.757 C100.667,89.9390009 100.719499,90.0906661 100.8245,90.212 C100.929501,90.3333339 101.068332,90.4383329 101.241,90.527 C101.413668,90.6156671 101.609666,90.693833 101.829,90.7615 C102.048334,90.829167 102.273499,90.9014996 102.5045,90.9785 C102.735501,91.0555004 102.960666,91.1406662 103.18,91.234 C103.399334,91.3273338 103.595332,91.4439993 103.768,91.584 C103.940668,91.7240007 104.079499,91.895499 104.1845,92.0985 C104.289501,92.301501 104.342,92.5453319 104.342,92.83 C104.342,93.1566683 104.283667,93.4588319 104.167,93.7365 C104.050333,94.0141681 103.877668,94.254499 103.649,94.4575 C103.420332,94.660501 103.140335,94.8203328 102.809,94.937 C102.477665,95.0536673 102.095002,95.112 101.661,95.112 C101.166331,95.112 100.718335,95.0315008 100.317,94.8705 C99.9156647,94.7094992 99.5750014,94.5030013 99.295,94.251 L99.589,93.775 C99.6263335,93.714333 99.6706664,93.6676668 99.722,93.635 C99.7733336,93.6023332 99.8386663,93.586 99.918,93.586 C100.002,93.586 100.090666,93.6186663 100.184,93.684 C100.277334,93.7493337 100.390499,93.8216663 100.5235,93.901 C100.656501,93.9803337 100.818666,94.0526663 101.01,94.118 C101.201334,94.1833337 101.439332,94.216 101.724,94.216 C101.966668,94.216 102.178999,94.1845003 102.361,94.1215 C102.543001,94.0584997 102.694666,93.9733339 102.816,93.866 C102.937334,93.7586661 103.027166,93.6350007 103.0855,93.495 C103.143834,93.3549993 103.173,93.2056675 103.173,93.047 C103.173,92.850999 103.120501,92.688834 103.0155,92.5605 C102.910499,92.432166 102.771668,92.3225005 102.599,92.2315 C102.426332,92.1404995 102.229168,92.061167 102.0075,91.9935 C101.785832,91.925833 101.559501,91.854667 101.3285,91.78 C101.097499,91.705333 100.871168,91.6201671 100.6495,91.5245 C100.427832,91.4288329 100.230668,91.3086674 100.058,91.164 C99.8853325,91.0193326 99.7465005,90.8408344 99.6415,90.6285 C99.5364995,90.4161656 99.484,90.1583349 99.484,89.855 C99.484,89.584332 99.5399994,89.3241679 99.652,89.0745 C99.7640006,88.8248321 99.9273323,88.6055009 100.142,88.4165 C100.356668,88.2274991 100.620332,88.0770006 100.933,87.965 C101.245668,87.8529994 101.602665,87.797 102.004,87.797 C102.470669,87.797 102.889498,87.8704993 103.2605,88.0175 C103.631502,88.1645007 103.952332,88.366332 104.223,88.623 L103.943,89.078 Z" id="Deep-Insights" fill="#333F52"></path>
                <path d="M27.608,119.276 L26.033,115.195 C25.9863331,115.073666 25.9373336,114.932501 25.886,114.7715 C25.8346664,114.610499 25.7856669,114.439001 25.739,114.257 C25.6409995,114.635002 25.5406672,114.949999 25.438,115.202 L23.863,119.276 L27.608,119.276 Z M30.436,123 L29.386,123 C29.2646661,123 29.166667,122.969667 29.092,122.909 C29.017333,122.848333 28.9613335,122.771334 28.924,122.678 L27.986,120.256 L23.485,120.256 L22.547,122.678 C22.5189999,122.762 22.4653337,122.836666 22.386,122.902 C22.3066663,122.967334 22.2086673,123 22.092,123 L21.042,123 L25.053,112.969 L26.425,112.969 L30.436,123 Z M37.121,115.909 L37.121,123 L36.379,123 C36.2016658,123 36.0896669,122.913668 36.043,122.741 L35.945,121.978 C35.6369985,122.318668 35.2916686,122.592832 34.909,122.8005 C34.5263314,123.008168 34.0876691,123.112 33.593,123.112 C33.2056647,123.112 32.8638348,123.047834 32.5675,122.9195 C32.2711652,122.791166 32.0226677,122.610334 31.822,122.377 C31.6213323,122.143665 31.4708338,121.861335 31.3705,121.53 C31.2701662,121.198665 31.22,120.832335 31.22,120.431 L31.22,115.909 L32.466,115.909 L32.466,120.431 C32.466,120.967669 32.5884988,121.382999 32.8335,121.677 C33.0785012,121.971001 33.4529975,122.118 33.957,122.118 C34.3256685,122.118 34.6698317,122.030501 34.9895,121.8555 C35.3091683,121.680499 35.604332,121.439002 35.875,121.131 L35.875,115.909 L37.121,115.909 Z M41.272,123.112 C40.7119972,123.112 40.2815015,122.955668 39.9805,122.643 C39.6794985,122.330332 39.529,121.880003 39.529,121.292 L39.529,116.952 L38.675,116.952 C38.600333,116.952 38.5373336,116.929834 38.486,116.8855 C38.4346664,116.841166 38.409,116.772334 38.409,116.679 L38.409,116.182 L39.571,116.035 L39.858,113.844 C39.8720001,113.774 39.9034998,113.716834 39.9525,113.6725 C40.0015002,113.628166 40.0656663,113.606 40.145,113.606 L40.775,113.606 L40.775,116.049 L42.826,116.049 L42.826,116.952 L40.775,116.952 L40.775,121.208 C40.775,121.506668 40.8473326,121.728333 40.992,121.873 C41.1366674,122.017667 41.3233322,122.09 41.552,122.09 C41.6826673,122.09 41.7958329,122.0725 41.8915,122.0375 C41.9871671,122.0025 42.0699996,121.964 42.14,121.922 C42.2100004,121.88 42.2694998,121.8415 42.3185,121.8065 C42.3675002,121.7715 42.4106665,121.754 42.448,121.754 C42.5133337,121.754 42.5716664,121.793666 42.623,121.873 L42.987,122.468 C42.7723323,122.668668 42.5133348,122.826166 42.21,122.9405 C41.9066652,123.054834 41.5940016,123.112 41.272,123.112 Z M47.068,115.797 C47.5860026,115.797 48.0526646,115.883332 48.468,116.056 C48.8833354,116.228668 49.2379985,116.473665 49.532,116.791 C49.8260015,117.108335 50.0511659,117.492164 50.2075,117.9425 C50.3638341,118.392836 50.442,118.895664 50.442,119.451 C50.442,120.011003 50.3638341,120.514998 50.2075,120.963 C50.0511659,121.411002 49.8260015,121.793665 49.532,122.111 C49.2379985,122.428335 48.8833354,122.672166 48.468,122.8425 C48.0526646,123.012834 47.5860026,123.098 47.068,123.098 C46.5453307,123.098 46.0751688,123.012834 45.6575,122.8425 C45.2398312,122.672166 44.8840015,122.428335 44.59,122.111 C44.2959985,121.793665 44.0708341,121.411002 43.9145,120.963 C43.7581659,120.514998 43.68,120.011003 43.68,119.451 C43.68,118.895664 43.7581659,118.392836 43.9145,117.9425 C44.0708341,117.492164 44.2959985,117.108335 44.59,116.791 C44.8840015,116.473665 45.2398312,116.228668 45.6575,116.056 C46.0751688,115.883332 46.5453307,115.797 47.068,115.797 Z M47.068,122.125 C47.7680035,122.125 48.2906649,121.890502 48.636,121.4215 C48.9813351,120.952498 49.154,120.298004 49.154,119.458 C49.154,118.613329 48.9813351,117.955336 48.636,117.484 C48.2906649,117.012664 47.7680035,116.777 47.068,116.777 C46.7133316,116.777 46.404168,116.837666 46.1405,116.959 C45.876832,117.080334 45.6575009,117.255332 45.4825,117.484 C45.3074991,117.712668 45.1768338,117.993832 45.0905,118.3275 C45.0041662,118.661168 44.961,119.037998 44.961,119.458 C44.961,120.298004 45.1348316,120.952498 45.4825,121.4215 C45.8301684,121.890502 46.3586631,122.125 47.068,122.125 Z M58.856,118.17 C59.2433353,118.17 59.5851652,118.118667 59.8815,118.016 C60.1778348,117.913333 60.427499,117.769834 60.6305,117.5855 C60.833501,117.401166 60.9863328,117.180668 61.089,116.924 C61.1916672,116.667332 61.243,116.385002 61.243,116.077 C61.243,115.437663 61.0458353,114.938335 60.6515,114.579 C60.2571647,114.219665 59.6586707,114.04 58.856,114.04 L57.246,114.04 L57.246,118.17 L58.856,118.17 Z M58.856,112.969 C59.4906698,112.969 60.0424977,113.042499 60.5115,113.1895 C60.9805023,113.336501 61.3689985,113.545332 61.677,113.816 C61.9850015,114.086668 62.2148326,114.413331 62.3665,114.796 C62.5181674,115.178669 62.594,115.605664 62.594,116.077 C62.594,116.543669 62.5123341,116.970665 62.349,117.358 C62.1856658,117.745335 61.9465016,118.078999 61.6315,118.359 C61.3164984,118.639001 60.9268357,118.857166 60.4625,119.0135 C59.9981643,119.169834 59.4626697,119.248 58.856,119.248 L57.246,119.248 L57.246,123 L55.895,123 L55.895,112.969 L58.856,112.969 Z M65.282,115.909 L65.282,123 L64.036,123 L64.036,115.909 L65.282,115.909 Z M65.548,113.683 C65.548,113.804334 65.5235002,113.917499 65.4745,114.0225 C65.4254998,114.127501 65.3601671,114.220833 65.2785,114.3025 C65.1968329,114.384167 65.1011672,114.448333 64.9915,114.495 C64.8818328,114.541667 64.7663339,114.565 64.645,114.565 C64.5236661,114.565 64.4105005,114.541667 64.3055,114.495 C64.2004995,114.448333 64.1083337,114.384167 64.029,114.3025 C63.9496663,114.220833 63.8866669,114.127501 63.84,114.0225 C63.7933331,113.917499 63.77,113.804334 63.77,113.683 C63.77,113.561666 63.7933331,113.446167 63.84,113.3365 C63.8866669,113.226833 63.9496663,113.131167 64.029,113.0495 C64.1083337,112.967833 64.2004995,112.903667 64.3055,112.857 C64.4105005,112.810333 64.5236661,112.787 64.645,112.787 C64.7663339,112.787 64.8818328,112.810333 64.9915,112.857 C65.1011672,112.903667 65.1968329,112.967833 65.2785,113.0495 C65.3601671,113.131167 65.4254998,113.226833 65.4745,113.3365 C65.5235002,113.446167 65.548,113.561666 65.548,113.683 Z M68.614,112.689 L68.614,123 L67.368,123 L67.368,112.689 L68.614,112.689 Z M73.619,115.797 C74.1370026,115.797 74.6036646,115.883332 75.019,116.056 C75.4343354,116.228668 75.7889985,116.473665 76.083,116.791 C76.3770015,117.108335 76.6021659,117.492164 76.7585,117.9425 C76.9148341,118.392836 76.993,118.895664 76.993,119.451 C76.993,120.011003 76.9148341,120.514998 76.7585,120.963 C76.6021659,121.411002 76.3770015,121.793665 76.083,122.111 C75.7889985,122.428335 75.4343354,122.672166 75.019,122.8425 C74.6036646,123.012834 74.1370026,123.098 73.619,123.098 C73.0963307,123.098 72.6261688,123.012834 72.2085,122.8425 C71.7908312,122.672166 71.4350015,122.428335 71.141,122.111 C70.8469985,121.793665 70.6218341,121.411002 70.4655,120.963 C70.3091659,120.514998 70.231,120.011003 70.231,119.451 C70.231,118.895664 70.3091659,118.392836 70.4655,117.9425 C70.6218341,117.492164 70.8469985,117.108335 71.141,116.791 C71.4350015,116.473665 71.7908312,116.228668 72.2085,116.056 C72.6261688,115.883332 73.0963307,115.797 73.619,115.797 Z M73.619,122.125 C74.3190035,122.125 74.8416649,121.890502 75.187,121.4215 C75.5323351,120.952498 75.705,120.298004 75.705,119.458 C75.705,118.613329 75.5323351,117.955336 75.187,117.484 C74.8416649,117.012664 74.3190035,116.777 73.619,116.777 C73.2643316,116.777 72.955168,116.837666 72.6915,116.959 C72.427832,117.080334 72.2085009,117.255332 72.0335,117.484 C71.8584991,117.712668 71.7278338,117.993832 71.6415,118.3275 C71.5551662,118.661168 71.512,119.037998 71.512,119.458 C71.512,120.298004 71.6858316,120.952498 72.0335,121.4215 C72.3811684,121.890502 72.9096631,122.125 73.619,122.125 Z M80.619,123.112 C80.0589972,123.112 79.6285015,122.955668 79.3275,122.643 C79.0264985,122.330332 78.876,121.880003 78.876,121.292 L78.876,116.952 L78.022,116.952 C77.947333,116.952 77.8843336,116.929834 77.833,116.8855 C77.7816664,116.841166 77.756,116.772334 77.756,116.679 L77.756,116.182 L78.918,116.035 L79.205,113.844 C79.2190001,113.774 79.2504998,113.716834 79.2995,113.6725 C79.3485002,113.628166 79.4126663,113.606 79.492,113.606 L80.122,113.606 L80.122,116.049 L82.173,116.049 L82.173,116.952 L80.122,116.952 L80.122,121.208 C80.122,121.506668 80.1943326,121.728333 80.339,121.873 C80.4836674,122.017667 80.6703322,122.09 80.899,122.09 C81.0296673,122.09 81.1428329,122.0725 81.2385,122.0375 C81.3341671,122.0025 81.4169996,121.964 81.487,121.922 C81.5570003,121.88 81.6164998,121.8415 81.6655,121.8065 C81.7145002,121.7715 81.7576665,121.754 81.795,121.754 C81.8603337,121.754 81.9186664,121.793666 81.97,121.873 L82.334,122.468 C82.1193323,122.668668 81.8603349,122.826166 81.557,122.9405 C81.2536652,123.054834 80.9410016,123.112 80.619,123.112 Z" id="Auto-Pilot" fill="#333F52" opacity="0.5"></path>
                <path d="M23.639,58.075 L23.639,61.582 L27.762,61.582 L27.762,62.688 L23.639,62.688 L23.639,67 L22.281,67 L22.281,56.969 L28.462,56.969 L28.462,58.075 L23.639,58.075 Z M35.21,59.909 L35.21,67 L34.468,67 C34.2906658,67 34.1786669,66.9136675 34.132,66.741 L34.034,65.978 C33.7259985,66.3186684 33.3806686,66.5928323 32.998,66.8005 C32.6153314,67.0081677 32.1766691,67.112 31.682,67.112 C31.2946647,67.112 30.9528348,67.047834 30.6565,66.9195 C30.3601652,66.791166 30.1116677,66.6103345 29.911,66.377 C29.7103323,66.1436655 29.5598338,65.861335 29.4595,65.53 C29.3591662,65.198665 29.309,64.8323353 29.309,64.431 L29.309,59.909 L30.555,59.909 L30.555,64.431 C30.555,64.9676693 30.6774988,65.3829985 30.9225,65.677 C31.1675012,65.9710015 31.5419975,66.118 32.046,66.118 C32.4146685,66.118 32.7588317,66.0305009 33.0785,65.8555 C33.3981683,65.6804991 33.693332,65.4390015 33.964,65.131 L33.964,59.909 L35.21,59.909 Z M38.472,56.689 L38.472,67 L37.226,67 L37.226,56.689 L38.472,56.689 Z M41.776,56.689 L41.776,67 L40.53,67 L40.53,56.689 L41.776,56.689 Z M53.361,65.859 L53.361,67 L47.67,67 L47.67,56.969 L49.021,56.969 L49.021,65.859 L53.361,65.859 Z M55.881,59.909 L55.881,67 L54.635,67 L54.635,59.909 L55.881,59.909 Z M56.147,57.683 C56.147,57.8043339 56.1225002,57.9174995 56.0735,58.0225 C56.0244998,58.1275005 55.9591671,58.2208329 55.8775,58.3025 C55.7958329,58.3841671 55.7001672,58.4483331 55.5905,58.495 C55.4808328,58.5416669 55.3653339,58.565 55.244,58.565 C55.1226661,58.565 55.0095005,58.5416669 54.9045,58.495 C54.7994995,58.4483331 54.7073337,58.3841671 54.628,58.3025 C54.5486663,58.2208329 54.4856669,58.1275005 54.439,58.0225 C54.3923331,57.9174995 54.369,57.8043339 54.369,57.683 C54.369,57.5616661 54.3923331,57.4461672 54.439,57.3365 C54.4856669,57.2268328 54.5486663,57.1311671 54.628,57.0495 C54.7073337,56.9678329 54.7994995,56.9036669 54.9045,56.857 C55.0095005,56.8103331 55.1226661,56.787 55.244,56.787 C55.3653339,56.787 55.4808328,56.8103331 55.5905,56.857 C55.7001672,56.9036669 55.7958329,56.9678329 55.8775,57.0495 C55.9591671,57.1311671 56.0244998,57.2268328 56.0735,57.3365 C56.1225002,57.4461672 56.147,57.5616661 56.147,57.683 Z M58.387,67 L58.387,60.973 L57.603,60.882 C57.5049995,60.8586665 57.4245003,60.8225002 57.3615,60.7735 C57.2984997,60.7244998 57.267,60.6533338 57.267,60.56 L57.267,60.049 L58.387,60.049 L58.387,59.363 C58.387,58.956998 58.4441661,58.5965016 58.5585,58.2815 C58.6728339,57.9664984 58.8361656,57.7005011 59.0485,57.4835 C59.2608344,57.2664989 59.5163318,57.1020006 59.815,56.99 C60.1136682,56.8779994 60.4496648,56.822 60.823,56.822 C61.1403349,56.822 61.4319987,56.8686662 61.698,56.962 L61.67,57.585 C61.6606666,57.6970006 61.5988339,57.7576666 61.4845,57.767 C61.3701661,57.7763334 61.2173343,57.781 61.026,57.781 C60.8113323,57.781 60.6165009,57.8089997 60.4415,57.865 C60.2664991,57.9210003 60.1160006,58.0119994 59.99,58.138 C59.8639994,58.2640006 59.767167,58.4296656 59.6995,58.635 C59.631833,58.8403344 59.598,59.0946651 59.598,59.398 L59.598,60.049 L61.642,60.049 L61.642,60.952 L59.64,60.952 L59.64,67 L58.387,67 Z M67.347,62.681 C67.347,62.3916652 67.3061671,62.1268345 67.2245,61.8865 C67.1428329,61.6461655 67.0238341,61.4385009 66.8675,61.2635 C66.7111659,61.0884991 66.5210011,60.9531671 66.297,60.8575 C66.0729989,60.7618329 65.8186681,60.714 65.534,60.714 C64.9366637,60.714 64.4641684,60.8878316 64.1165,61.2355 C63.7688316,61.5831684 63.5530004,62.0649969 63.469,62.681 L67.347,62.681 Z M68.355,66.006 C68.2009992,66.1926676 68.0166677,66.3548326 67.802,66.4925 C67.5873323,66.6301674 67.3575012,66.7433329 67.1125,66.832 C66.8674988,66.9206671 66.6143346,66.9871664 66.353,67.0315 C66.0916654,67.0758336 65.832668,67.098 65.576,67.098 C65.0859976,67.098 64.6345021,67.0151675 64.2215,66.8495 C63.8084979,66.6838325 63.4515015,66.4411683 63.1505,66.1215 C62.8494985,65.8018317 62.6150008,65.4063357 62.447,64.935 C62.2789992,64.4636643 62.195,63.9223364 62.195,63.311 C62.195,62.8163309 62.2708326,62.3543355 62.4225,61.925 C62.5741674,61.4956645 62.7923319,61.1235016 63.077,60.8085 C63.3616681,60.4934984 63.7093313,60.2461676 64.12,60.0665 C64.5306687,59.8868324 64.9926641,59.797 65.506,59.797 C65.9306688,59.797 66.3238315,59.868166 66.6855,60.0105 C67.0471685,60.152834 67.359832,60.3581653 67.6235,60.6265 C67.887168,60.8948347 68.0936659,61.2261647 68.243,61.6205 C68.3923341,62.0148353 68.467,62.4639975 68.467,62.968 C68.467,63.164001 68.4460002,63.2946663 68.404,63.36 C68.3619998,63.4253337 68.2826673,63.458 68.166,63.458 L63.427,63.458 C63.4410001,63.9060022 63.5028328,64.295665 63.6125,64.627 C63.7221672,64.958335 63.874999,65.2348322 64.071,65.4565 C64.267001,65.6781678 64.500332,65.8438328 64.771,65.9535 C65.041668,66.0631672 65.3449983,66.118 65.681,66.118 C65.9936682,66.118 66.2631655,66.0818337 66.4895,66.0095 C66.7158345,65.9371663 66.9106659,65.8590004 67.074,65.775 C67.2373342,65.6909996 67.3738328,65.6128337 67.4835,65.5405 C67.5931672,65.4681663 67.6876663,65.432 67.767,65.432 C67.8696672,65.432 67.9489997,65.4716663 68.005,65.551 L68.355,66.006 Z M74.928,61.169 C74.8906665,61.2203336 74.8533335,61.2599999 74.816,61.288 C74.7786665,61.3160001 74.7273337,61.33 74.662,61.33 C74.5919997,61.33 74.5150004,61.3008336 74.431,61.2425 C74.3469996,61.1841664 74.2431673,61.1200003 74.1195,61.05 C73.9958327,60.9799996 73.8441676,60.9158336 73.6645,60.8575 C73.4848324,60.7991664 73.2643346,60.77 73.003,60.77 C72.6529983,60.77 72.3450013,60.8318327 72.079,60.9555 C71.8129987,61.0791673 71.5901676,61.2576655 71.4105,61.491 C71.2308324,61.7243345 71.0955005,62.006665 71.0045,62.338 C70.9134995,62.669335 70.868,63.0403313 70.868,63.451 C70.868,63.8803355 70.9169995,64.2618317 71.015,64.5955 C71.1130005,64.9291683 71.2518324,65.2091655 71.4315,65.4355 C71.6111676,65.6618345 71.8281654,65.8344994 72.0825,65.9535 C72.3368346,66.0725006 72.6226651,66.132 72.94,66.132 C73.2433349,66.132 73.492999,66.0958337 73.689,66.0235 C73.885001,65.9511663 74.047166,65.8706671 74.1755,65.782 C74.303834,65.6933329 74.4111662,65.6128337 74.4975,65.5405 C74.5838338,65.4681663 74.6689996,65.432 74.753,65.432 C74.8556672,65.432 74.9349997,65.4716663 74.991,65.551 L75.341,66.006 C75.1869992,66.1973343 75.012001,66.360666 74.816,66.496 C74.619999,66.631334 74.4088345,66.7444995 74.1825,66.8355 C73.9561655,66.9265005 73.7193346,66.9929998 73.472,67.035 C73.2246654,67.0770002 72.972668,67.098 72.716,67.098 C72.2726645,67.098 71.8608352,67.0163342 71.4805,66.853 C71.1001648,66.6896658 70.7700014,66.4528349 70.49,66.1425 C70.2099986,65.8321651 69.9906675,65.4506689 69.832,64.998 C69.6733325,64.5453311 69.594,64.0296696 69.594,63.451 C69.594,62.923664 69.6674993,62.4360022 69.8145,61.988 C69.9615007,61.5399978 70.1761653,61.153835 70.4585,60.8295 C70.7408347,60.505165 71.0884979,60.2520009 71.5015,60.07 C71.9145021,59.8879991 72.3893307,59.797 72.926,59.797 C73.4253358,59.797 73.8651648,59.8774992 74.2455,60.0385 C74.6258352,60.1995008 74.9629985,60.4269985 75.257,60.721 L74.928,61.169 Z M82.796,59.909 L78.841,69.093 C78.7989998,69.1863338 78.7465003,69.2609997 78.6835,69.317 C78.6204997,69.3730003 78.5236673,69.401 78.393,69.401 L77.469,69.401 L78.764,66.587 L75.838,59.909 L76.916,59.909 C77.0233339,59.909 77.1084997,59.9358331 77.1715,59.9895 C77.2345003,60.0431669 77.2776666,60.1026663 77.301,60.168 L79.198,64.634 C79.272667,64.830001 79.3356664,65.0353323 79.387,65.25 C79.4523337,65.0306656 79.522333,64.823001 79.597,64.627 L81.438,60.168 C81.4660001,60.093333 81.513833,60.0315002 81.5815,59.9825 C81.649167,59.9334998 81.7249996,59.909 81.809,59.909 L82.796,59.909 Z M88.634,61.169 C88.5966665,61.2203336 88.5593335,61.2599999 88.522,61.288 C88.4846665,61.3160001 88.4333337,61.33 88.368,61.33 C88.2979997,61.33 88.2210004,61.3008336 88.137,61.2425 C88.0529996,61.1841664 87.9491673,61.1200003 87.8255,61.05 C87.7018327,60.9799996 87.5501676,60.9158336 87.3705,60.8575 C87.1908324,60.7991664 86.9703346,60.77 86.709,60.77 C86.3589983,60.77 86.0510013,60.8318327 85.785,60.9555 C85.5189987,61.0791673 85.2961676,61.2576655 85.1165,61.491 C84.9368324,61.7243345 84.8015005,62.006665 84.7105,62.338 C84.6194995,62.669335 84.574,63.0403313 84.574,63.451 C84.574,63.8803355 84.6229995,64.2618317 84.721,64.5955 C84.8190005,64.9291683 84.9578324,65.2091655 85.1375,65.4355 C85.3171676,65.6618345 85.5341654,65.8344994 85.7885,65.9535 C86.0428346,66.0725006 86.3286651,66.132 86.646,66.132 C86.9493349,66.132 87.198999,66.0958337 87.395,66.0235 C87.591001,65.9511663 87.753166,65.8706671 87.8815,65.782 C88.009834,65.6933329 88.1171662,65.6128337 88.2035,65.5405 C88.2898338,65.4681663 88.3749996,65.432 88.459,65.432 C88.5616672,65.432 88.6409997,65.4716663 88.697,65.551 L89.047,66.006 C88.8929992,66.1973343 88.718001,66.360666 88.522,66.496 C88.325999,66.631334 88.1148345,66.7444995 87.8885,66.8355 C87.6621655,66.9265005 87.4253346,66.9929998 87.178,67.035 C86.9306654,67.0770002 86.678668,67.098 86.422,67.098 C85.9786644,67.098 85.5668352,67.0163342 85.1865,66.853 C84.8061648,66.6896658 84.4760014,66.4528349 84.196,66.1425 C83.9159986,65.8321651 83.6966675,65.4506689 83.538,64.998 C83.3793325,64.5453311 83.3,64.0296696 83.3,63.451 C83.3,62.923664 83.3734993,62.4360022 83.5205,61.988 C83.6675007,61.5399978 83.8821653,61.153835 84.1645,60.8295 C84.4468347,60.505165 84.7944979,60.2520009 85.2075,60.07 C85.6205021,59.8879991 86.0953306,59.797 86.632,59.797 C87.1313358,59.797 87.5711648,59.8774992 87.9515,60.0385 C88.3318352,60.1995008 88.6689985,60.4269985 88.963,60.721 L88.634,61.169 Z M91.672,56.689 L91.672,67 L90.426,67 L90.426,56.689 L91.672,56.689 Z M98.434,62.681 C98.434,62.3916652 98.3931671,62.1268345 98.3115,61.8865 C98.2298329,61.6461655 98.1108341,61.4385009 97.9545,61.2635 C97.7981659,61.0884991 97.6080011,60.9531671 97.384,60.8575 C97.1599989,60.7618329 96.9056681,60.714 96.621,60.714 C96.0236637,60.714 95.5511684,60.8878316 95.2035,61.2355 C94.8558316,61.5831684 94.6400004,62.0649969 94.556,62.681 L98.434,62.681 Z M99.442,66.006 C99.2879992,66.1926676 99.1036677,66.3548326 98.889,66.4925 C98.6743323,66.6301674 98.4445012,66.7433329 98.1995,66.832 C97.9544988,66.9206671 97.7013346,66.9871664 97.44,67.0315 C97.1786654,67.0758336 96.919668,67.098 96.663,67.098 C96.1729976,67.098 95.7215021,67.0151675 95.3085,66.8495 C94.8954979,66.6838325 94.5385015,66.4411683 94.2375,66.1215 C93.9364985,65.8018317 93.7020008,65.4063357 93.534,64.935 C93.3659992,64.4636643 93.282,63.9223364 93.282,63.311 C93.282,62.8163309 93.3578326,62.3543355 93.5095,61.925 C93.6611674,61.4956645 93.8793319,61.1235016 94.164,60.8085 C94.4486681,60.4934984 94.7963313,60.2461676 95.207,60.0665 C95.6176687,59.8868324 96.0796641,59.797 96.593,59.797 C97.0176688,59.797 97.4108315,59.868166 97.7725,60.0105 C98.1341685,60.152834 98.446832,60.3581653 98.7105,60.6265 C98.974168,60.8948347 99.1806659,61.2261647 99.33,61.6205 C99.4793341,62.0148353 99.554,62.4639975 99.554,62.968 C99.554,63.164001 99.5330002,63.2946663 99.491,63.36 C99.4489998,63.4253337 99.3696673,63.458 99.253,63.458 L94.514,63.458 C94.5280001,63.9060022 94.5898328,64.295665 94.6995,64.627 C94.8091672,64.958335 94.961999,65.2348322 95.158,65.4565 C95.354001,65.6781678 95.587332,65.8438328 95.858,65.9535 C96.128668,66.0631672 96.4319983,66.118 96.768,66.118 C97.0806682,66.118 97.3501655,66.0818337 97.5765,66.0095 C97.8028345,65.9371663 97.9976659,65.8590004 98.161,65.775 C98.3243341,65.6909996 98.4608328,65.6128337 98.5705,65.5405 C98.6801672,65.4681663 98.7746663,65.432 98.854,65.432 C98.9566672,65.432 99.0359997,65.4716663 99.092,65.551 L99.442,66.006 Z" id="Full-Lifecycle" fill="#333F52"></path>
                <path d="M27.412,30.537 C27.3699998,30.6070003 27.3245002,30.6594998 27.2755,30.6945 C27.2264998,30.7295002 27.1670004,30.747 27.097,30.747 C27.0176663,30.747 26.9243339,30.7073337 26.817,30.628 C26.7096661,30.5486663 26.5755008,30.4611671 26.4145,30.3655 C26.2534992,30.2698329 26.0598345,30.1823337 25.8335,30.103 C25.6071655,30.0236663 25.3330016,29.984 25.011,29.984 C24.7076652,29.984 24.4405012,30.0248329 24.2095,30.1065 C23.9784988,30.1881671 23.7848341,30.2989993 23.6285,30.439 C23.4721659,30.5790007 23.3543337,30.7434991 23.275,30.9325 C23.1956663,31.1215009 23.156,31.3256656 23.156,31.545 C23.156,31.8250014 23.2248326,32.0571657 23.3625,32.2415 C23.5001674,32.4258343 23.6821655,32.5833327 23.9085,32.714 C24.1348345,32.8446673 24.3914986,32.9578329 24.6785,33.0535 C24.9655014,33.1491671 25.2594985,33.2483328 25.5605,33.351 C25.8615015,33.4536672 26.1554986,33.569166 26.4425,33.6975 C26.7295014,33.825834 26.9861655,33.987999 27.2125,34.184 C27.4388345,34.380001 27.6208326,34.6203319 27.7585,34.905 C27.8961674,35.1896681 27.965,35.5396646 27.965,35.955 C27.965,36.3936689 27.8903341,36.8054981 27.741,37.1905 C27.5916659,37.5755019 27.3735014,37.9103319 27.0865,38.195 C26.7994986,38.4796681 26.4471688,38.7036659 26.0295,38.867 C25.6118312,39.0303342 25.1370027,39.112 24.605,39.112 C23.9516634,39.112 23.3590027,38.9941678 22.827,38.7585 C22.2949973,38.5228322 21.8400019,38.2043353 21.462,37.803 L21.854,37.159 C21.8913335,37.1076664 21.9368331,37.0645002 21.9905,37.0295 C22.0441669,36.9944998 22.1036663,36.977 22.169,36.977 C22.229667,36.977 22.2984996,37.0014998 22.3755,37.0505 C22.4525004,37.0995002 22.5399995,37.161333 22.638,37.236 C22.7360005,37.310667 22.8479994,37.3923329 22.974,37.481 C23.1000006,37.5696671 23.2434992,37.651333 23.4045,37.726 C23.5655008,37.800667 23.7486656,37.8624998 23.954,37.9115 C24.1593344,37.9605002 24.3903321,37.985 24.647,37.985 C24.9690016,37.985 25.2559987,37.9406671 25.508,37.852 C25.7600013,37.7633329 25.9734991,37.6385008 26.1485,37.4775 C26.3235009,37.3164992 26.4576662,37.1240011 26.551,36.9 C26.6443338,36.6759989 26.691,36.4263347 26.691,36.151 C26.691,35.8476651 26.6221674,35.5991676 26.4845,35.4055 C26.3468326,35.2118324 26.1660011,35.0496673 25.942,34.919 C25.7179989,34.7883327 25.4613348,34.6775005 25.172,34.5865 C24.8826652,34.4954995 24.5886682,34.4021671 24.29,34.3065 C23.9913318,34.2108329 23.6973348,34.1000006 23.408,33.974 C23.1186652,33.8479994 22.8620011,33.6846677 22.638,33.484 C22.4139989,33.2833323 22.2331674,33.0325015 22.0955,32.7315 C21.9578326,32.4304985 21.889,32.0583356 21.889,31.615 C21.889,31.2603316 21.9578326,30.917335 22.0955,30.586 C22.2331674,30.254665 22.433832,29.960668 22.6975,29.704 C22.961168,29.447332 23.2854981,29.2420008 23.6705,29.088 C24.0555019,28.9339992 24.4976642,28.857 24.997,28.857 C25.5570028,28.857 26.066831,28.9456658 26.5265,29.123 C26.986169,29.3003342 27.3909983,29.5569983 27.741,29.893 L27.412,30.537 Z M34.286,34.681 C34.286,34.3916652 34.2451671,34.1268345 34.1635,33.8865 C34.0818329,33.6461655 33.9628341,33.4385009 33.8065,33.2635 C33.6501659,33.0884991 33.4600011,32.9531671 33.236,32.8575 C33.0119989,32.7618329 32.7576681,32.714 32.473,32.714 C31.8756637,32.714 31.4031684,32.8878316 31.0555,33.2355 C30.7078316,33.5831684 30.4920004,34.0649969 30.408,34.681 L34.286,34.681 Z M35.294,38.006 C35.1399992,38.1926676 34.9556677,38.3548326 34.741,38.4925 C34.5263323,38.6301674 34.2965012,38.7433329 34.0515,38.832 C33.8064988,38.9206671 33.5533346,38.9871664 33.292,39.0315 C33.0306654,39.0758336 32.771668,39.098 32.515,39.098 C32.0249976,39.098 31.5735021,39.0151675 31.1605,38.8495 C30.7474979,38.6838325 30.3905015,38.4411683 30.0895,38.1215 C29.7884985,37.8018317 29.5540008,37.4063357 29.386,36.935 C29.2179992,36.4636643 29.134,35.9223364 29.134,35.311 C29.134,34.8163309 29.2098326,34.3543355 29.3615,33.925 C29.5131674,33.4956645 29.7313319,33.1235016 30.016,32.8085 C30.3006681,32.4934984 30.6483313,32.2461676 31.059,32.0665 C31.4696687,31.8868324 31.9316641,31.797 32.445,31.797 C32.8696688,31.797 33.2628315,31.868166 33.6245,32.0105 C33.9861685,32.152834 34.298832,32.3581653 34.5625,32.6265 C34.826168,32.8948347 35.0326659,33.2261647 35.182,33.6205 C35.3313341,34.0148353 35.406,34.4639975 35.406,34.968 C35.406,35.164001 35.3850002,35.2946663 35.343,35.36 C35.3009998,35.4253337 35.2216672,35.458 35.105,35.458 L30.366,35.458 C30.3800001,35.9060022 30.4418328,36.295665 30.5515,36.627 C30.6611672,36.958335 30.813999,37.2348322 31.01,37.4565 C31.206001,37.6781678 31.439332,37.8438328 31.71,37.9535 C31.980668,38.0631672 32.2839983,38.118 32.62,38.118 C32.9326682,38.118 33.2021655,38.0818337 33.4285,38.0095 C33.6548345,37.9371663 33.8496659,37.8590004 34.013,37.775 C34.1763342,37.6909996 34.3128328,37.6128337 34.4225,37.5405 C34.5321672,37.4681663 34.6266663,37.432 34.706,37.432 C34.8086672,37.432 34.8879997,37.4716663 34.944,37.551 L35.294,38.006 Z M40.775,35.808 C40.2009971,35.8266668 39.7121687,35.8721663 39.3085,35.9445 C38.9048313,36.0168337 38.5758346,36.1113328 38.3215,36.228 C38.0671654,36.3446673 37.8828339,36.4823325 37.7685,36.641 C37.6541661,36.7996675 37.597,36.976999 37.597,37.173 C37.597,37.3596676 37.627333,37.520666 37.688,37.656 C37.748667,37.791334 37.8314995,37.9021662 37.9365,37.9885 C38.0415005,38.0748338 38.165166,38.1378331 38.3075,38.1775 C38.449834,38.2171669 38.6026659,38.237 38.766,38.237 C38.9853344,38.237 39.1859991,38.2148336 39.368,38.1705 C39.5500009,38.1261664 39.7214992,38.0620004 39.8825,37.978 C40.0435008,37.8939996 40.1974993,37.7936672 40.3445,37.677 C40.4915007,37.5603328 40.6349993,37.4273341 40.775,37.278 L40.775,35.808 Z M36.75,32.91 C37.142002,32.5319981 37.5643311,32.2496676 38.017,32.063 C38.4696689,31.8763324 38.9713306,31.783 39.522,31.783 C39.9186687,31.783 40.2709985,31.8483327 40.579,31.979 C40.8870015,32.1096673 41.1459989,32.2916655 41.356,32.525 C41.566001,32.7583345 41.7246661,33.040665 41.832,33.372 C41.9393339,33.703335 41.993,34.0673314 41.993,34.464 L41.993,39 L41.44,39 C41.3186661,39 41.2253337,38.9801669 41.16,38.9405 C41.0946663,38.9008331 41.0433335,38.8226673 41.006,38.706 L40.866,38.034 C40.6793324,38.2066675 40.4973342,38.3594993 40.32,38.4925 C40.1426658,38.6255007 39.956001,38.7374995 39.76,38.8285 C39.563999,38.9195005 39.3551678,38.9894998 39.1335,39.0385 C38.9118322,39.0875002 38.665668,39.112 38.395,39.112 C38.1196653,39.112 37.8606679,39.0735004 37.618,38.9965 C37.3753321,38.9194996 37.1641676,38.8040008 36.9845,38.65 C36.8048324,38.4959992 36.6625005,38.3011678 36.5575,38.0655 C36.4524995,37.8298322 36.4,37.5510016 36.4,37.229 C36.4,36.9489986 36.4769992,36.6795013 36.631,36.4205 C36.7850008,36.1614987 37.0346649,35.9316677 37.38,35.731 C37.7253351,35.5303323 38.1756639,35.365834 38.731,35.2375 C39.2863361,35.109166 39.9676626,35.0356668 40.775,35.017 L40.775,34.464 C40.775,33.9133306 40.6560012,33.4968347 40.418,33.2145 C40.1799988,32.9321653 39.8323356,32.791 39.375,32.791 C39.0669985,32.791 38.8091677,32.8294996 38.6015,32.9065 C38.3938323,32.9835004 38.2141674,33.0698329 38.0625,33.1655 C37.9108326,33.2611671 37.7801672,33.3474996 37.6705,33.4245 C37.5608328,33.5015004 37.4523339,33.54 37.345,33.54 C37.2609996,33.54 37.188667,33.5178336 37.128,33.4735 C37.067333,33.4291664 37.0160002,33.3743337 36.974,33.309 L36.75,32.91 Z M43.89,39 L43.89,31.909 L44.639,31.909 C44.8163342,31.909 44.9259998,31.9953325 44.968,32.168 L45.059,32.896 C45.3203346,32.5739984 45.6143317,32.3103344 45.941,32.105 C46.2676683,31.8996656 46.6456645,31.797 47.075,31.797 C47.5510024,31.797 47.9371652,31.9299987 48.2335,32.196 C48.5298348,32.4620013 48.7433327,32.8213311 48.874,33.274 C48.9766672,33.0173321 49.1084992,32.7956676 49.2695,32.609 C49.4305008,32.4223324 49.6113323,32.2683339 49.812,32.147 C50.0126677,32.0256661 50.2261655,31.9370003 50.4525,31.881 C50.6788345,31.8249997 50.9086655,31.797 51.142,31.797 C51.5153352,31.797 51.8478319,31.8564994 52.1395,31.9755 C52.4311681,32.0945006 52.678499,32.2683322 52.8815,32.497 C53.084501,32.7256678 53.2396661,33.0068317 53.347,33.3405 C53.4543339,33.6741683 53.508,34.0556645 53.508,34.485 L53.508,39 L52.255,39 L52.255,34.485 C52.255,33.9296639 52.1336679,33.5085014 51.891,33.2215 C51.6483321,32.9344986 51.2983356,32.791 50.841,32.791 C50.6356656,32.791 50.4408343,32.8271663 50.2565,32.8995 C50.0721657,32.9718337 49.9100007,33.0779993 49.77,33.218 C49.6299993,33.3580007 49.5191671,33.5341656 49.4375,33.7465 C49.3558329,33.9588344 49.315,34.2049986 49.315,34.485 L49.315,39 L48.062,39 L48.062,34.485 C48.062,33.9156638 47.9476678,33.4910014 47.719,33.211 C47.4903322,32.9309986 47.1566689,32.791 46.718,32.791 C46.4099985,32.791 46.1253346,32.8738325 45.864,33.0395 C45.6026654,33.2051675 45.3623344,33.4303319 45.143,33.715 L45.143,39 L43.89,39 Z M56.693,28.689 L56.693,39 L55.447,39 L55.447,28.689 L56.693,28.689 Z M63.455,34.681 C63.455,34.3916652 63.4141671,34.1268345 63.3325,33.8865 C63.2508329,33.6461655 63.1318341,33.4385009 62.9755,33.2635 C62.8191659,33.0884991 62.6290011,32.9531671 62.405,32.8575 C62.1809989,32.7618329 61.9266681,32.714 61.642,32.714 C61.0446637,32.714 60.5721684,32.8878316 60.2245,33.2355 C59.8768316,33.5831684 59.6610004,34.0649969 59.577,34.681 L63.455,34.681 Z M64.463,38.006 C64.3089992,38.1926676 64.1246677,38.3548326 63.91,38.4925 C63.6953323,38.6301674 63.4655012,38.7433329 63.2205,38.832 C62.9754988,38.9206671 62.7223346,38.9871664 62.461,39.0315 C62.1996654,39.0758336 61.940668,39.098 61.684,39.098 C61.1939976,39.098 60.7425021,39.0151675 60.3295,38.8495 C59.9164979,38.6838325 59.5595015,38.4411683 59.2585,38.1215 C58.9574985,37.8018317 58.7230008,37.4063357 58.555,36.935 C58.3869992,36.4636643 58.303,35.9223364 58.303,35.311 C58.303,34.8163309 58.3788326,34.3543355 58.5305,33.925 C58.6821674,33.4956645 58.9003319,33.1235016 59.185,32.8085 C59.4696681,32.4934984 59.8173313,32.2461676 60.228,32.0665 C60.6386687,31.8868324 61.1006641,31.797 61.614,31.797 C62.0386688,31.797 62.4318315,31.868166 62.7935,32.0105 C63.1551685,32.152834 63.467832,32.3581653 63.7315,32.6265 C63.995168,32.8948347 64.2016659,33.2261647 64.351,33.6205 C64.5003341,34.0148353 64.575,34.4639975 64.575,34.968 C64.575,35.164001 64.5540002,35.2946663 64.512,35.36 C64.4699998,35.4253337 64.3906673,35.458 64.274,35.458 L59.535,35.458 C59.5490001,35.9060022 59.6108328,36.295665 59.7205,36.627 C59.8301672,36.958335 59.982999,37.2348322 60.179,37.4565 C60.375001,37.6781678 60.608332,37.8438328 60.879,37.9535 C61.149668,38.0631672 61.4529983,38.118 61.789,38.118 C62.1016682,38.118 62.3711655,38.0818337 62.5975,38.0095 C62.8238345,37.9371663 63.0186659,37.8590004 63.182,37.775 C63.3453341,37.6909996 63.4818328,37.6128337 63.5915,37.5405 C63.7011672,37.4681663 63.7956663,37.432 63.875,37.432 C63.9776672,37.432 64.0569997,37.4716663 64.113,37.551 L64.463,38.006 Z M70.231,33.078 C70.1749997,33.1806672 70.0886673,33.232 69.972,33.232 C69.9019997,33.232 69.8226671,33.2063336 69.734,33.155 C69.6453329,33.1036664 69.536834,33.0465003 69.4085,32.9835 C69.280166,32.9204997 69.1273342,32.8621669 68.95,32.8085 C68.7726658,32.7548331 68.5626679,32.728 68.32,32.728 C68.109999,32.728 67.9210008,32.7548331 67.753,32.8085 C67.5849992,32.8621669 67.4415006,32.9356662 67.3225,33.029 C67.2034994,33.1223338 67.1125003,33.2308327 67.0495,33.3545 C66.9864997,33.4781673 66.955,33.6123326 66.955,33.757 C66.955,33.9390009 67.0074995,34.0906661 67.1125,34.212 C67.2175005,34.3333339 67.3563325,34.4383329 67.529,34.527 C67.7016675,34.6156671 67.8976656,34.693833 68.117,34.7615 C68.3363344,34.829167 68.5614988,34.9014996 68.7925,34.9785 C69.0235012,35.0555004 69.2486656,35.1406662 69.468,35.234 C69.6873344,35.3273338 69.8833325,35.4439993 70.056,35.584 C70.2286675,35.7240007 70.3674995,35.895499 70.4725,36.0985 C70.5775005,36.301501 70.63,36.5453319 70.63,36.83 C70.63,37.1566683 70.5716673,37.4588319 70.455,37.7365 C70.3383328,38.0141681 70.1656678,38.254499 69.937,38.4575 C69.7083322,38.660501 69.428335,38.8203327 69.097,38.937 C68.765665,39.0536673 68.3830022,39.112 67.949,39.112 C67.4543309,39.112 67.0063353,39.0315008 66.605,38.8705 C66.2036647,38.7094992 65.8630014,38.5030013 65.583,38.251 L65.877,37.775 C65.9143335,37.714333 65.9586664,37.6676668 66.01,37.635 C66.0613336,37.6023332 66.1266663,37.586 66.206,37.586 C66.2900004,37.586 66.3786662,37.6186663 66.472,37.684 C66.5653338,37.7493337 66.6784993,37.8216663 66.8115,37.901 C66.9445007,37.9803337 67.1066657,38.0526663 67.298,38.118 C67.4893343,38.1833337 67.7273319,38.216 68.012,38.216 C68.2546679,38.216 68.4669991,38.1845003 68.649,38.1215 C68.8310009,38.0584997 68.9826661,37.9733339 69.104,37.866 C69.2253339,37.7586661 69.3151664,37.6350007 69.3735,37.495 C69.4318336,37.3549993 69.461,37.2056675 69.461,37.047 C69.461,36.850999 69.4085005,36.688834 69.3035,36.5605 C69.1984995,36.432166 69.0596675,36.3225005 68.887,36.2315 C68.7143325,36.1404995 68.5171678,36.061167 68.2955,35.9935 C68.0738322,35.925833 67.8475012,35.854667 67.6165,35.78 C67.3854988,35.705333 67.1591678,35.6201671 66.9375,35.5245 C66.7158322,35.4288329 66.5186675,35.3086674 66.346,35.164 C66.1733325,35.0193326 66.0345005,34.8408344 65.9295,34.6285 C65.8244995,34.4161656 65.772,34.1583349 65.772,33.855 C65.772,33.584332 65.8279994,33.3241679 65.94,33.0745 C66.0520006,32.8248321 66.2153323,32.6055009 66.43,32.4165 C66.6446677,32.2274991 66.9083318,32.0770006 67.221,31.965 C67.5336682,31.8529994 67.8906647,31.797 68.292,31.797 C68.758669,31.797 69.1774981,31.8704993 69.5485,32.0175 C69.9195019,32.1645007 70.240332,32.366332 70.511,32.623 L70.231,33.078 Z M76.293,33.078 C76.2369997,33.1806672 76.1506673,33.232 76.034,33.232 C75.9639997,33.232 75.8846671,33.2063336 75.796,33.155 C75.7073329,33.1036664 75.598834,33.0465003 75.4705,32.9835 C75.342166,32.9204997 75.1893342,32.8621669 75.012,32.8085 C74.8346658,32.7548331 74.6246679,32.728 74.382,32.728 C74.171999,32.728 73.9830008,32.7548331 73.815,32.8085 C73.6469992,32.8621669 73.5035006,32.9356662 73.3845,33.029 C73.2654994,33.1223338 73.1745003,33.2308327 73.1115,33.3545 C73.0484997,33.4781673 73.017,33.6123326 73.017,33.757 C73.017,33.9390009 73.0694995,34.0906661 73.1745,34.212 C73.2795005,34.3333339 73.4183325,34.4383329 73.591,34.527 C73.7636675,34.6156671 73.9596656,34.693833 74.179,34.7615 C74.3983344,34.829167 74.6234988,34.9014996 74.8545,34.9785 C75.0855012,35.0555004 75.3106656,35.1406662 75.53,35.234 C75.7493344,35.3273338 75.9453325,35.4439993 76.118,35.584 C76.2906675,35.7240007 76.4294995,35.895499 76.5345,36.0985 C76.6395005,36.301501 76.692,36.5453319 76.692,36.83 C76.692,37.1566683 76.6336673,37.4588319 76.517,37.7365 C76.4003328,38.0141681 76.2276678,38.254499 75.999,38.4575 C75.7703322,38.660501 75.490335,38.8203327 75.159,38.937 C74.827665,39.0536673 74.4450022,39.112 74.011,39.112 C73.5163309,39.112 73.0683353,39.0315008 72.667,38.8705 C72.2656647,38.7094992 71.9250014,38.5030013 71.645,38.251 L71.939,37.775 C71.9763335,37.714333 72.0206664,37.6676668 72.072,37.635 C72.1233336,37.6023332 72.1886663,37.586 72.268,37.586 C72.3520004,37.586 72.4406662,37.6186663 72.534,37.684 C72.6273338,37.7493337 72.7404993,37.8216663 72.8735,37.901 C73.0065007,37.9803337 73.1686657,38.0526663 73.36,38.118 C73.5513343,38.1833337 73.7893319,38.216 74.074,38.216 C74.3166679,38.216 74.5289991,38.1845003 74.711,38.1215 C74.8930009,38.0584997 75.0446661,37.9733339 75.166,37.866 C75.2873339,37.7586661 75.3771664,37.6350007 75.4355,37.495 C75.4938336,37.3549993 75.523,37.2056675 75.523,37.047 C75.523,36.850999 75.4705005,36.688834 75.3655,36.5605 C75.2604995,36.432166 75.1216675,36.3225005 74.949,36.2315 C74.7763325,36.1404995 74.5791678,36.061167 74.3575,35.9935 C74.1358322,35.925833 73.9095012,35.854667 73.6785,35.78 C73.4474988,35.705333 73.2211678,35.6201671 72.9995,35.5245 C72.7778322,35.4288329 72.5806675,35.3086674 72.408,35.164 C72.2353325,35.0193326 72.0965005,34.8408344 71.9915,34.6285 C71.8864995,34.4161656 71.834,34.1583349 71.834,33.855 C71.834,33.584332 71.8899994,33.3241679 72.002,33.0745 C72.1140006,32.8248321 72.2773323,32.6055009 72.492,32.4165 C72.7066677,32.2274991 72.9703318,32.0770006 73.283,31.965 C73.5956682,31.8529994 73.9526647,31.797 74.354,31.797 C74.820669,31.797 75.2394981,31.8704993 75.6105,32.0175 C75.9815019,32.1645007 76.302332,32.366332 76.573,32.623 L76.293,33.078 Z M85.974,37.922 C86.3893354,37.922 86.7603317,37.8520007 87.087,37.712 C87.4136683,37.5719993 87.6901655,37.3760013 87.9165,37.124 C88.1428345,36.8719987 88.3154994,36.5710018 88.4345,36.221 C88.5535006,35.8709982 88.613,35.4860021 88.613,35.066 L88.613,28.969 L89.964,28.969 L89.964,35.066 C89.964,35.6446696 89.8718343,36.1813309 89.6875,36.676 C89.5031657,37.1706691 89.2395017,37.5988315 88.8965,37.9605 C88.5534983,38.3221685 88.1346691,38.6056656 87.64,38.811 C87.1453309,39.0163344 86.5900031,39.119 85.974,39.119 C85.3579969,39.119 84.8026691,39.0163344 84.308,38.811 C83.8133309,38.6056656 83.3933351,38.3221685 83.048,37.9605 C82.7026649,37.5988315 82.4378343,37.1706691 82.2535,36.676 C82.0691657,36.1813309 81.977,35.6446696 81.977,35.066 L81.977,28.969 L83.328,28.969 L83.328,35.059 C83.328,35.4790021 83.3874994,35.8639983 83.5065,36.214 C83.6255006,36.5640018 83.7981655,36.8649987 84.0245,37.117 C84.2508345,37.3690013 84.5284984,37.566166 84.8575,37.7085 C85.1865016,37.850834 85.5586646,37.922 85.974,37.922 Z M93.149,37.292 C93.3776678,37.6000015 93.627332,37.8169994 93.898,37.943 C94.168668,38.0690006 94.4719983,38.132 94.808,38.132 C95.47067,38.132 95.9793316,37.8963357 96.334,37.425 C96.6886684,36.9536643 96.866,36.281671 96.866,35.409 C96.866,34.9469977 96.8251671,34.550335 96.7435,34.219 C96.6618329,33.887665 96.5440008,33.6158344 96.39,33.4035 C96.2359992,33.1911656 96.0470011,33.0360005 95.823,32.938 C95.5989989,32.8399995 95.3446681,32.791 95.06,32.791 C94.653998,32.791 94.2981682,32.8843324 93.9925,33.071 C93.6868318,33.2576676 93.405668,33.5213316 93.149,33.862 L93.149,37.292 Z M93.086,33.008 C93.3846682,32.6393315 93.729998,32.3430011 94.122,32.119 C94.514002,31.8949989 94.9619975,31.783 95.466,31.783 C95.8766687,31.783 96.247665,31.8611659 96.579,32.0175 C96.910335,32.1738341 97.1926655,32.4048318 97.426,32.7105 C97.6593345,33.0161682 97.8389994,33.3953311 97.965,33.848 C98.0910006,34.3006689 98.154,34.8209971 98.154,35.409 C98.154,35.9316693 98.0840007,36.4181644 97.944,36.8685 C97.8039993,37.3188356 97.602168,37.7084984 97.3385,38.0375 C97.074832,38.3665016 96.7528352,38.6254991 96.3725,38.8145 C95.9921648,39.0035009 95.5640024,39.098 95.088,39.098 C94.6539978,39.098 94.2818349,39.0245007 93.9715,38.8775 C93.6611651,38.7304993 93.3870012,38.5263346 93.149,38.265 L93.149,41.401 L91.896,41.401 L91.896,31.909 L92.645,31.909 C92.8223342,31.909 92.9319998,31.9953325 92.974,32.168 L93.086,33.008 Z M102.214,35.535 C102.466001,35.535 102.687666,35.5000004 102.879,35.43 C103.070334,35.3599996 103.231333,35.2620006 103.362,35.136 C103.492667,35.0099994 103.590666,34.8595009 103.656,34.6845 C103.721334,34.5094991 103.754,34.3170011 103.754,34.107 C103.754,33.6729978 103.622168,33.3276679 103.3585,33.071 C103.094832,32.8143321 102.713336,32.686 102.214,32.686 C101.709997,32.686 101.326168,32.8143321 101.0625,33.071 C100.798832,33.3276679 100.667,33.6729978 100.667,34.107 C100.667,34.3170011 100.700833,34.5094991 100.7685,34.6845 C100.836167,34.8595009 100.935333,35.0099994 101.066,35.136 C101.196667,35.2620006 101.357666,35.3599996 101.549,35.43 C101.740334,35.5000004 101.961999,35.535 102.214,35.535 Z M104.461,39.385 C104.461,39.2123325 104.412,39.0723339 104.314,38.965 C104.216,38.8576661 104.084167,38.773667 103.9185,38.713 C103.752833,38.652333 103.560334,38.6091668 103.341,38.5835 C103.121666,38.5578332 102.889501,38.5380001 102.6445,38.524 C102.399499,38.5099999 102.151001,38.4960001 101.899,38.482 C101.646999,38.4679999 101.404335,38.4446668 101.171,38.412 C100.909665,38.5333339 100.696167,38.6861657 100.5305,38.8705 C100.364833,39.0548343 100.282,39.2706654 100.282,39.518 C100.282,39.6766675 100.322833,39.8248326 100.4045,39.9625 C100.486167,40.1001674 100.610999,40.2191662 100.779,40.3195 C100.947001,40.4198338 101.158165,40.4991664 101.4125,40.5575 C101.666835,40.6158336 101.966665,40.645 102.312,40.645 C102.648002,40.645 102.948999,40.614667 103.215,40.554 C103.481001,40.493333 103.706166,40.4070006 103.8905,40.295 C104.074834,40.1829994 104.216,40.0500008 104.314,39.896 C104.412,39.7419992 104.461,39.5716676 104.461,39.385 Z M105.728,32.189 L105.728,32.651 C105.728,32.8050008 105.630001,32.9029998 105.434,32.945 L104.629,33.05 C104.787667,33.3580015 104.867,33.6986648 104.867,34.072 C104.867,34.4173351 104.800501,34.7311653 104.6675,35.0135 C104.534499,35.2958347 104.351334,35.5373323 104.118,35.738 C103.884665,35.9386677 103.604668,36.0926661 103.278,36.2 C102.951332,36.3073339 102.596669,36.361 102.214,36.361 C101.882665,36.361 101.570001,36.3213337 101.276,36.242 C101.126666,36.3353338 101.012334,36.4344995 100.933,36.5395 C100.853666,36.6445005 100.814,36.7506661 100.814,36.858 C100.814,37.0260008 100.882833,37.1531662 101.0205,37.2395 C101.158167,37.3258338 101.338999,37.3876665 101.563,37.425 C101.787001,37.4623335 102.042499,37.4856666 102.3295,37.495 C102.616501,37.5043334 102.910498,37.5194999 103.2115,37.5405 C103.512502,37.5615001 103.806499,37.5976664 104.0935,37.649 C104.380501,37.7003336 104.635999,37.7843328 104.86,37.901 C105.084001,38.0176673 105.264833,38.1786656 105.4025,38.384 C105.540167,38.5893344 105.609,38.8553317 105.609,39.182 C105.609,39.4853349 105.533167,39.7793319 105.3815,40.064 C105.229833,40.3486681 105.011668,40.6018322 104.727,40.8235 C104.442332,41.0451678 104.093502,41.2224993 103.6805,41.3555 C103.267498,41.4885007 102.802003,41.555 102.284,41.555 C101.765997,41.555 101.313335,41.5036672 100.926,41.401 C100.538665,41.2983328 100.216668,41.1606675 99.96,40.988 C99.703332,40.8153325 99.510834,40.6158345 99.3825,40.3895 C99.254166,40.1631655 99.19,39.9263346 99.19,39.679 C99.19,39.3289982 99.2996656,39.0326679 99.519,38.79 C99.7383344,38.5473321 100.039331,38.3536674 100.422,38.209 C100.211999,38.1156662 100.045167,37.9908341 99.9215,37.8345 C99.7978327,37.6781659 99.736,37.4670013 99.736,37.201 C99.736,37.0983328 99.7546665,36.9921672 99.792,36.8825 C99.8293335,36.7728328 99.8864996,36.6631672 99.9635,36.5535 C100.0405,36.4438328 100.134999,36.3400005 100.247,36.242 C100.359001,36.1439995 100.489666,36.057667 100.639,35.983 C100.288998,35.786999 100.016001,35.526835 99.82,35.2025 C99.623999,34.878165 99.526,34.5013355 99.526,34.072 C99.526,33.7266649 99.5924993,33.4128347 99.7255,33.1305 C99.8585007,32.8481653 100.043999,32.6078343 100.282,32.4095 C100.520001,32.2111657 100.803498,32.0583339 101.1325,31.951 C101.461502,31.8436661 101.821998,31.79 102.214,31.79 C102.522002,31.79 102.808999,31.823833 103.075,31.8915 C103.341001,31.959167 103.583666,32.0583327 103.803,32.189 L105.728,32.189 Z M108.206,33.33 C108.430001,32.8446642 108.705332,32.4655014 109.032,32.1925 C109.358668,31.9194986 109.757664,31.783 110.229,31.783 C110.378334,31.783 110.521833,31.7993332 110.6595,31.832 C110.797167,31.8646668 110.919666,31.9159996 111.027,31.986 L110.936,32.917 C110.908,33.0336673 110.838001,33.092 110.726,33.092 C110.660666,33.092 110.565001,33.0780001 110.439,33.05 C110.312999,33.0219999 110.170667,33.008 110.012,33.008 C109.787999,33.008 109.588501,33.0406663 109.4135,33.106 C109.238499,33.1713337 109.082167,33.268166 108.9445,33.3965 C108.806833,33.524834 108.683167,33.6834991 108.5735,33.8725 C108.463833,34.0615009 108.364667,34.2773321 108.276,34.52 L108.276,39 L107.023,39 L107.023,31.909 L107.737,31.909 C107.872334,31.909 107.965666,31.9346664 108.017,31.986 C108.068334,32.0373336 108.103333,32.1259994 108.122,32.252 L108.206,33.33 Z M115.85,35.808 C115.275997,35.8266668 114.787169,35.8721663 114.3835,35.9445 C113.979831,36.0168337 113.650835,36.1113328 113.3965,36.228 C113.142165,36.3446673 112.957834,36.4823325 112.8435,36.641 C112.729166,36.7996675 112.672,36.976999 112.672,37.173 C112.672,37.3596676 112.702333,37.520666 112.763,37.656 C112.823667,37.791334 112.906499,37.9021662 113.0115,37.9885 C113.116501,38.0748338 113.240166,38.1378331 113.3825,38.1775 C113.524834,38.2171669 113.677666,38.237 113.841,38.237 C114.060334,38.237 114.260999,38.2148336 114.443,38.1705 C114.625001,38.1261664 114.796499,38.0620004 114.9575,37.978 C115.118501,37.8939996 115.272499,37.7936672 115.4195,37.677 C115.566501,37.5603328 115.709999,37.4273341 115.85,37.278 L115.85,35.808 Z M111.825,32.91 C112.217002,32.5319981 112.639331,32.2496676 113.092,32.063 C113.544669,31.8763324 114.046331,31.783 114.597,31.783 C114.993669,31.783 115.345998,31.8483327 115.654,31.979 C115.962002,32.1096673 116.220999,32.2916655 116.431,32.525 C116.641001,32.7583345 116.799666,33.040665 116.907,33.372 C117.014334,33.703335 117.068,34.0673314 117.068,34.464 L117.068,39 L116.515,39 C116.393666,39 116.300334,38.9801669 116.235,38.9405 C116.169666,38.9008331 116.118334,38.8226673 116.081,38.706 L115.941,38.034 C115.754332,38.2066675 115.572334,38.3594993 115.395,38.4925 C115.217666,38.6255007 115.031001,38.7374995 114.835,38.8285 C114.638999,38.9195005 114.430168,38.9894998 114.2085,39.0385 C113.986832,39.0875002 113.740668,39.112 113.47,39.112 C113.194665,39.112 112.935668,39.0735004 112.693,38.9965 C112.450332,38.9194996 112.239168,38.8040008 112.0595,38.65 C111.879832,38.4959992 111.737501,38.3011678 111.6325,38.0655 C111.527499,37.8298322 111.475,37.5510016 111.475,37.229 C111.475,36.9489986 111.551999,36.6795013 111.706,36.4205 C111.860001,36.1614987 112.109665,35.9316677 112.455,35.731 C112.800335,35.5303323 113.250664,35.365834 113.806,35.2375 C114.361336,35.109166 115.042663,35.0356668 115.85,35.017 L115.85,34.464 C115.85,33.9133306 115.731001,33.4968347 115.493,33.2145 C115.254999,32.9321653 114.907336,32.791 114.45,32.791 C114.141998,32.791 113.884168,32.8294996 113.6765,32.9065 C113.468832,32.9835004 113.289167,33.0698329 113.1375,33.1655 C112.985833,33.2611671 112.855167,33.3474996 112.7455,33.4245 C112.635833,33.5015004 112.527334,33.54 112.42,33.54 C112.336,33.54 112.263667,33.5178336 112.203,33.4735 C112.142333,33.4291664 112.091,33.3743337 112.049,33.309 L111.825,32.91 Z M123.585,33.596 C123.351666,33.2833318 123.099668,33.0651673 122.829,32.9415 C122.558332,32.8178327 122.255002,32.756 121.919,32.756 C121.260997,32.756 120.754668,32.9916643 120.4,33.463 C120.045332,33.9343357 119.868,34.606329 119.868,35.479 C119.868,35.9410023 119.907666,36.3364984 119.987,36.6655 C120.066334,36.9945016 120.182999,37.2651656 120.337,37.4775 C120.491001,37.6898344 120.679999,37.8449995 120.904,37.943 C121.128001,38.0410005 121.382332,38.09 121.667,38.09 C122.077669,38.09 122.435832,37.9966676 122.7415,37.81 C123.047168,37.6233324 123.328332,37.3596684 123.585,37.019 L123.585,33.596 Z M124.831,28.689 L124.831,39 L124.089,39 C123.911666,39 123.799667,38.9136675 123.753,38.741 L123.641,37.88 C123.337665,38.2440018 122.992335,38.5379989 122.605,38.762 C122.217665,38.9860011 121.769669,39.098 121.261,39.098 C120.854998,39.098 120.486335,39.0198341 120.155,38.8635 C119.823665,38.7071659 119.541335,38.4773348 119.308,38.174 C119.074665,37.8706652 118.895001,37.4926689 118.769,37.04 C118.642999,36.5873311 118.58,36.0670029 118.58,35.479 C118.58,34.9563307 118.649999,34.4698356 118.79,34.0195 C118.930001,33.5691644 119.130665,33.178335 119.392,32.847 C119.653335,32.515665 119.974165,32.2555009 120.3545,32.0665 C120.734835,31.8774991 121.162998,31.783 121.639,31.783 C122.073002,31.783 122.445165,31.8564993 122.7555,32.0035 C123.065835,32.1505007 123.342332,32.3546654 123.585,32.616 L123.585,28.689 L124.831,28.689 Z M131.551,34.681 C131.551,34.3916652 131.510167,34.1268345 131.4285,33.8865 C131.346833,33.6461655 131.227834,33.4385009 131.0715,33.2635 C130.915166,33.0884991 130.725001,32.9531671 130.501,32.8575 C130.276999,32.7618329 130.022668,32.714 129.738,32.714 C129.140664,32.714 128.668168,32.8878316 128.3205,33.2355 C127.972832,33.5831684 127.757,34.0649969 127.673,34.681 L131.551,34.681 Z M132.559,38.006 C132.404999,38.1926676 132.220668,38.3548326 132.006,38.4925 C131.791332,38.6301674 131.561501,38.7433329 131.3165,38.832 C131.071499,38.9206671 130.818335,38.9871664 130.557,39.0315 C130.295665,39.0758336 130.036668,39.098 129.78,39.098 C129.289998,39.098 128.838502,39.0151675 128.4255,38.8495 C128.012498,38.6838325 127.655502,38.4411683 127.3545,38.1215 C127.053498,37.8018317 126.819001,37.4063357 126.651,36.935 C126.482999,36.4636643 126.399,35.9223364 126.399,35.311 C126.399,34.8163309 126.474833,34.3543355 126.6265,33.925 C126.778167,33.4956645 126.996332,33.1235016 127.281,32.8085 C127.565668,32.4934984 127.913331,32.2461676 128.324,32.0665 C128.734669,31.8868324 129.196664,31.797 129.71,31.797 C130.134669,31.797 130.527832,31.868166 130.8895,32.0105 C131.251168,32.152834 131.563832,32.3581653 131.8275,32.6265 C132.091168,32.8948347 132.297666,33.2261647 132.447,33.6205 C132.596334,34.0148353 132.671,34.4639975 132.671,34.968 C132.671,35.164001 132.65,35.2946663 132.608,35.36 C132.566,35.4253337 132.486667,35.458 132.37,35.458 L127.631,35.458 C127.645,35.9060022 127.706833,36.295665 127.8165,36.627 C127.926167,36.958335 128.078999,37.2348322 128.275,37.4565 C128.471001,37.6781678 128.704332,37.8438328 128.975,37.9535 C129.245668,38.0631672 129.548998,38.118 129.885,38.118 C130.197668,38.118 130.467166,38.0818337 130.6935,38.0095 C130.919834,37.9371663 131.114666,37.8590004 131.278,37.775 C131.441334,37.6909996 131.577833,37.6128337 131.6875,37.5405 C131.797167,37.4681663 131.891666,37.432 131.971,37.432 C132.073667,37.432 132.153,37.4716663 132.209,37.551 L132.559,38.006 Z M138.327,33.078 C138.271,33.1806672 138.184667,33.232 138.068,33.232 C137.998,33.232 137.918667,33.2063336 137.83,33.155 C137.741333,33.1036664 137.632834,33.0465003 137.5045,32.9835 C137.376166,32.9204997 137.223334,32.8621669 137.046,32.8085 C136.868666,32.7548331 136.658668,32.728 136.416,32.728 C136.205999,32.728 136.017001,32.7548331 135.849,32.8085 C135.680999,32.8621669 135.537501,32.9356662 135.4185,33.029 C135.299499,33.1223338 135.2085,33.2308327 135.1455,33.3545 C135.0825,33.4781673 135.051,33.6123326 135.051,33.757 C135.051,33.9390009 135.103499,34.0906661 135.2085,34.212 C135.313501,34.3333339 135.452332,34.4383329 135.625,34.527 C135.797668,34.6156671 135.993666,34.693833 136.213,34.7615 C136.432334,34.829167 136.657499,34.9014996 136.8885,34.9785 C137.119501,35.0555004 137.344666,35.1406662 137.564,35.234 C137.783334,35.3273338 137.979332,35.4439993 138.152,35.584 C138.324668,35.7240007 138.463499,35.895499 138.5685,36.0985 C138.673501,36.301501 138.726,36.5453319 138.726,36.83 C138.726,37.1566683 138.667667,37.4588319 138.551,37.7365 C138.434333,38.0141681 138.261668,38.254499 138.033,38.4575 C137.804332,38.660501 137.524335,38.8203327 137.193,38.937 C136.861665,39.0536673 136.479002,39.112 136.045,39.112 C135.550331,39.112 135.102335,39.0315008 134.701,38.8705 C134.299665,38.7094992 133.959001,38.5030013 133.679,38.251 L133.973,37.775 C134.010334,37.714333 134.054666,37.6676668 134.106,37.635 C134.157334,37.6023332 134.222666,37.586 134.302,37.586 C134.386,37.586 134.474666,37.6186663 134.568,37.684 C134.661334,37.7493337 134.774499,37.8216663 134.9075,37.901 C135.040501,37.9803337 135.202666,38.0526663 135.394,38.118 C135.585334,38.1833337 135.823332,38.216 136.108,38.216 C136.350668,38.216 136.562999,38.1845003 136.745,38.1215 C136.927001,38.0584997 137.078666,37.9733339 137.2,37.866 C137.321334,37.7586661 137.411166,37.6350007 137.4695,37.495 C137.527834,37.3549993 137.557,37.2056675 137.557,37.047 C137.557,36.850999 137.504501,36.688834 137.3995,36.5605 C137.294499,36.432166 137.155668,36.3225005 136.983,36.2315 C136.810332,36.1404995 136.613168,36.061167 136.3915,35.9935 C136.169832,35.925833 135.943501,35.854667 135.7125,35.78 C135.481499,35.705333 135.255168,35.6201671 135.0335,35.5245 C134.811832,35.4288329 134.614668,35.3086674 134.442,35.164 C134.269332,35.0193326 134.130501,34.8408344 134.0255,34.6285 C133.920499,34.4161656 133.868,34.1583349 133.868,33.855 C133.868,33.584332 133.923999,33.3241679 134.036,33.0745 C134.148001,32.8248321 134.311332,32.6055009 134.526,32.4165 C134.740668,32.2274991 135.004332,32.0770006 135.317,31.965 C135.629668,31.8529994 135.986665,31.797 136.388,31.797 C136.854669,31.797 137.273498,31.8704993 137.6445,32.0175 C138.015502,32.1645007 138.336332,32.366332 138.607,32.623 L138.327,33.078 Z" id="Seamless-Upgrades" fill="#333F52"></path>
                <path d="M10.03125,4.734375 C10.03125,4.58854094 9.98437547,4.46875047 9.890625,4.375 L9.1796875,3.671875 C9.08072867,3.57291617 8.96354234,3.5234375 8.828125,3.5234375 C8.69270766,3.5234375 8.57552133,3.57291617 8.4765625,3.671875 L5.2890625,6.8515625 L3.5234375,5.0859375 C3.42447867,4.98697867 3.30729234,4.9375 3.171875,4.9375 C3.03645766,4.9375 2.91927133,4.98697867 2.8203125,5.0859375 L2.109375,5.7890625 C2.01562453,5.88281297 1.96875,6.00260344 1.96875,6.1484375 C1.96875,6.2890632 2.01562453,6.40624953 2.109375,6.5 L4.9375,9.328125 C5.03645883,9.42708383 5.15364516,9.4765625 5.2890625,9.4765625 C5.4296882,9.4765625 5.54947867,9.42708383 5.6484375,9.328125 L9.890625,5.0859375 C9.98437547,4.99218703 10.03125,4.8750007 10.03125,4.734375 Z M11.1953125,2.9921875 C11.7317735,3.90885875 12,4.91145289 12,6 C12,7.08854711 11.7317735,8.09244332 11.1953125,9.01171875 C10.6588515,9.93099418 9.93099418,10.6588515 9.01171875,11.1953125 C8.09244332,11.7317735 7.08854711,12 6,12 C4.91145289,12 3.90755668,11.7317735 2.98828125,11.1953125 C2.06900582,10.6588515 1.34114852,9.93099418 0.8046875,9.01171875 C0.268226484,8.09244332 0,7.08854711 0,6 C0,4.91145289 0.268226484,3.90755668 0.8046875,2.98828125 C1.34114852,2.06900582 2.06900582,1.34114852 2.98828125,0.8046875 C3.90755668,0.268226484 4.91145289,0 6,0 C7.08854711,0 8.09244332,0.268226484 9.01171875,0.8046875 C9.93099418,1.34114852 10.6588515,2.07030789 11.1953125,2.9921875 Z" id="" fill="#1991EB"></path>
                <path d="M10.03125,32.734375 C10.03125,32.5885409 9.98437547,32.4687505 9.890625,32.375 L9.1796875,31.671875 C9.08072867,31.5729162 8.96354234,31.5234375 8.828125,31.5234375 C8.69270766,31.5234375 8.57552133,31.5729162 8.4765625,31.671875 L5.2890625,34.8515625 L3.5234375,33.0859375 C3.42447867,32.9869787 3.30729234,32.9375 3.171875,32.9375 C3.03645766,32.9375 2.91927133,32.9869787 2.8203125,33.0859375 L2.109375,33.7890625 C2.01562453,33.882813 1.96875,34.0026034 1.96875,34.1484375 C1.96875,34.2890632 2.01562453,34.4062495 2.109375,34.5 L4.9375,37.328125 C5.03645883,37.4270838 5.15364516,37.4765625 5.2890625,37.4765625 C5.4296882,37.4765625 5.54947867,37.4270838 5.6484375,37.328125 L9.890625,33.0859375 C9.98437547,32.992187 10.03125,32.8750007 10.03125,32.734375 Z M11.1953125,30.9921875 C11.7317735,31.9088587 12,32.9114529 12,34 C12,35.0885471 11.7317735,36.0924433 11.1953125,37.0117187 C10.6588515,37.9309942 9.93099418,38.6588515 9.01171875,39.1953125 C8.09244332,39.7317735 7.08854711,40 6,40 C4.91145289,40 3.90755668,39.7317735 2.98828125,39.1953125 C2.06900582,38.6588515 1.34114852,37.9309942 0.8046875,37.0117187 C0.268226484,36.0924433 0,35.0885471 0,34 C0,32.9114529 0.268226484,31.9075567 0.8046875,30.9882812 C1.34114852,30.0690058 2.06900582,29.3411485 2.98828125,28.8046875 C3.90755668,28.2682265 4.91145289,28 6,28 C7.08854711,28 8.09244332,28.2682265 9.01171875,28.8046875 C9.93099418,29.3411485 10.6588515,30.0703079 11.1953125,30.9921875 Z" id="" fill="#1991EB"></path>
                <path d="M10.03125,60.734375 C10.03125,60.5885409 9.98437547,60.4687505 9.890625,60.375 L9.1796875,59.671875 C9.08072867,59.5729162 8.96354234,59.5234375 8.828125,59.5234375 C8.69270766,59.5234375 8.57552133,59.5729162 8.4765625,59.671875 L5.2890625,62.8515625 L3.5234375,61.0859375 C3.42447867,60.9869787 3.30729234,60.9375 3.171875,60.9375 C3.03645766,60.9375 2.91927133,60.9869787 2.8203125,61.0859375 L2.109375,61.7890625 C2.01562453,61.882813 1.96875,62.0026034 1.96875,62.1484375 C1.96875,62.2890632 2.01562453,62.4062495 2.109375,62.5 L4.9375,65.328125 C5.03645883,65.4270838 5.15364516,65.4765625 5.2890625,65.4765625 C5.4296882,65.4765625 5.54947867,65.4270838 5.6484375,65.328125 L9.890625,61.0859375 C9.98437547,60.992187 10.03125,60.8750007 10.03125,60.734375 Z M11.1953125,58.9921875 C11.7317735,59.9088587 12,60.9114529 12,62 C12,63.0885471 11.7317735,64.0924433 11.1953125,65.0117187 C10.6588515,65.9309942 9.93099418,66.6588515 9.01171875,67.1953125 C8.09244332,67.7317735 7.08854711,68 6,68 C4.91145289,68 3.90755668,67.7317735 2.98828125,67.1953125 C2.06900582,66.6588515 1.34114852,65.9309942 0.8046875,65.0117187 C0.268226484,64.0924433 0,63.0885471 0,62 C0,60.9114529 0.268226484,59.9075567 0.8046875,58.9882812 C1.34114852,58.0690058 2.06900582,57.3411485 2.98828125,56.8046875 C3.90755668,56.2682265 4.91145289,56 6,56 C7.08854711,56 8.09244332,56.2682265 9.01171875,56.8046875 C9.93099418,57.3411485 10.6588515,58.0703079 11.1953125,58.9921875 Z" id="" fill="#1991EB"></path>
                <path d="M7.9375,113.398437 C7.32291359,113.132811 6.67708672,113 6,113 C5.32291328,113 4.67578434,113.132811 4.05859375,113.398437 C3.44140316,113.664064 2.91015848,114.019529 2.46484375,114.464844 C2.01952902,114.910158 1.66406383,115.441403 1.3984375,116.058594 C1.13281117,116.675784 1,117.322913 1,118 C1,118.677087 1.13281117,119.324216 1.3984375,119.941406 C1.66406383,120.558597 2.01952902,121.089842 2.46484375,121.535156 C2.91015848,121.980471 3.44140316,122.335936 4.05859375,122.601562 C4.67578434,122.867189 5.32291328,123 6,123 C6.67708672,123 7.32421566,122.867189 7.94140625,122.601562 C8.55859684,122.335936 9.08984152,121.980471 9.53515625,121.535156 C9.98047098,121.089842 10.3359362,120.558597 10.6015625,119.941406 C10.8671888,119.324216 11,118.677087 11,118 C11,117.322913 10.8671888,116.675784 10.6015625,116.058594 C10.3359362,115.441403 9.98047098,114.910158 9.53515625,114.464844 C9.08984152,114.019529 8.55729477,113.664064 7.9375,113.398437 Z M11.1953125,114.992188 C11.7317735,115.908859 12,116.911453 12,118 C12,119.088547 11.7317735,120.092443 11.1953125,121.011719 C10.6588515,121.930994 9.93099418,122.658851 9.01171875,123.195312 C8.09244332,123.731774 7.08854711,124 6,124 C4.91145289,124 3.90755668,123.731774 2.98828125,123.195312 C2.06900582,122.658851 1.34114852,121.930994 0.8046875,121.011719 C0.268226484,120.092443 0,119.088547 0,118 C0,116.911453 0.268226484,115.907557 0.8046875,114.988281 C1.34114852,114.069006 2.06900582,113.341149 2.98828125,112.804688 C3.90755668,112.268226 4.91145289,112 6,112 C7.08854711,112 8.09244332,112.268226 9.01171875,112.804688 C9.93099418,113.341149 10.6588515,114.070308 11.1953125,114.992188 Z" id="Circle-Outlined-Thin---FontAwesome" fill-opacity="0.4" fill="#333F52" transform="translate(6.000000, 118.000000) scale(-1, 1) translate(-6.000000, -118.000000) "></path>
                <path d="M10.03125,88.734375 C10.03125,88.5885409 9.98437547,88.4687505 9.890625,88.375 L9.1796875,87.671875 C9.08072867,87.5729162 8.96354234,87.5234375 8.828125,87.5234375 C8.69270766,87.5234375 8.57552133,87.5729162 8.4765625,87.671875 L5.2890625,90.8515625 L3.5234375,89.0859375 C3.42447867,88.9869787 3.30729234,88.9375 3.171875,88.9375 C3.03645766,88.9375 2.91927133,88.9869787 2.8203125,89.0859375 L2.109375,89.7890625 C2.01562453,89.882813 1.96875,90.0026034 1.96875,90.1484375 C1.96875,90.2890632 2.01562453,90.4062495 2.109375,90.5 L4.9375,93.328125 C5.03645883,93.4270838 5.15364516,93.4765625 5.2890625,93.4765625 C5.4296882,93.4765625 5.54947867,93.4270838 5.6484375,93.328125 L9.890625,89.0859375 C9.98437547,88.992187 10.03125,88.8750007 10.03125,88.734375 Z M11.1953125,86.9921875 C11.7317735,87.9088587 12,88.9114529 12,90 C12,91.0885471 11.7317735,92.0924433 11.1953125,93.0117187 C10.6588515,93.9309942 9.93099418,94.6588515 9.01171875,95.1953125 C8.09244332,95.7317735 7.08854711,96 6,96 C4.91145289,96 3.90755668,95.7317735 2.98828125,95.1953125 C2.06900582,94.6588515 1.34114852,93.9309942 0.8046875,93.0117187 C0.268226484,92.0924433 0,91.0885471 0,90 C0,88.9114529 0.268226484,87.9075567 0.8046875,86.9882812 C1.34114852,86.0690058 2.06900582,85.3411485 2.98828125,84.8046875 C3.90755668,84.2682265 4.91145289,84 6,84 C7.08854711,84 8.09244332,84.2682265 9.01171875,84.8046875 C9.93099418,85.3411485 10.6588515,86.0703079 11.1953125,86.9921875 Z" id="" fill="#1991EB"></path>
                <path d="M6,15 L6,25" id="Line-3" stroke="#333F52" stroke-width="0.8" stroke-linecap="square"></path>
                <path d="M6,43 L6,53" id="Line-3" stroke="#333F52" stroke-width="0.8" stroke-linecap="square"></path>
                <path d="M6,71 L6,81" id="Line-3" stroke="#333F52" stroke-width="0.8" stroke-linecap="square"></path>
                <path d="M6,99 L6,109" id="Line-3" stroke="#333F52" stroke-width="0.8" opacity="0.5" stroke-linecap="square"></path>
            </g>
        </g>
    </g>
</svg>