<?xml version="1.0" encoding="UTF-8"?>
<svg version="1.1" viewBox="0 0 139 124" xmlns="http://www.w3.org/2000/svg">
<title>level-4</title>
<desc>Created with Sketch.</desc>
<g fill="none" fill-rule="evenodd">
<g transform="translate(-1267 -710)">
<g transform="translate(1267 710)">
<path d="m25.802 9.922c0.38734 0 0.721-0.044333 1.001-0.133s0.50983-0.2135 0.6895-0.3745c0.17967-0.161 0.3115-0.35233 0.3955-0.574 0.084-0.22167 0.126-0.4655 0.126-0.7315 0-0.518-0.18433-0.9275-0.553-1.2285-0.36867-0.301-0.92166-0.4515-1.659-0.4515h-2.17v3.493h2.17zm-2.17-7.882v3.423h1.792c0.38267 0 0.71517-0.042 0.9975-0.126s0.51567-0.20067 0.7-0.35 0.32083-0.33017 0.4095-0.5425c0.088667-0.21233 0.133-0.4445 0.133-0.6965 0-0.59267-0.17733-1.0255-0.532-1.2985-0.35467-0.273-0.90533-0.4095-1.652-0.4095h-1.848zm1.848-1.071c0.616 0 1.1468 0.060666 1.5925 0.182s0.812 0.294 1.099 0.518 0.49817 0.49817 0.6335 0.8225c0.13533 0.32433 0.203 0.6895 0.203 1.0955 0 0.24733-0.0385 0.48417-0.1155 0.7105-0.077 0.22633-0.1925 0.4375-0.3465 0.6335s-0.34883 0.37217-0.5845 0.5285c-0.23567 0.15633-0.51217 0.2835-0.8295 0.3815 0.73734 0.14 1.2915 0.4025 1.6625 0.7875 0.371 0.385 0.5565 0.89016 0.5565 1.5155 0 0.42467-0.078166 0.812-0.2345 1.162s-0.385 0.651-0.686 0.903c-0.301 0.252-0.67083 0.44683-1.1095 0.5845s-0.938 0.2065-1.498 0.2065h-3.542v-10.031h3.199zm9.289 6.839c-0.574 0.018667-1.0628 0.064166-1.4665 0.1365-0.40367 0.072334-0.73267 0.16683-0.987 0.2835s-0.43867 0.25433-0.553 0.413-0.1715 0.336-0.1715 0.532c0 0.18667 0.030333 0.34767 0.091 0.483s0.1435 0.24617 0.2485 0.3325c0.105 0.086334 0.22867 0.14933 0.371 0.189s0.29517 0.0595 0.4585 0.0595c0.21933 0 0.42-0.022166 0.602-0.0665s0.3535-0.1085 0.5145-0.1925c0.161-0.084 0.315-0.18433 0.462-0.301s0.2905-0.24967 0.4305-0.399v-1.47zm-4.025-2.898c0.392-0.378 0.81433-0.66033 1.267-0.847s0.95433-0.28 1.505-0.28c0.39667 0 0.749 0.065333 1.057 0.196s0.567 0.31267 0.777 0.546c0.21 0.23333 0.36867 0.51567 0.476 0.847s0.161 0.69533 0.161 1.092v4.536h-0.553c-0.12133 0-0.21467-0.019833-0.28-0.0595s-0.11667-0.11783-0.154-0.2345l-0.14-0.672c-0.18667 0.17267-0.36867 0.3255-0.546 0.4585s-0.364 0.245-0.56 0.336-0.40483 0.161-0.6265 0.21-0.46783 0.0735-0.7385 0.0735c-0.27533 0-0.53433-0.0385-0.777-0.1155s-0.45383-0.1925-0.6335-0.3465-0.322-0.34883-0.427-0.5845c-0.105-0.23567-0.1575-0.5145-0.1575-0.8365 0-0.28 0.076999-0.5495 0.231-0.8085 0.154-0.259 0.40366-0.48883 0.749-0.6895s0.79566-0.36517 1.351-0.4935c0.55534-0.12833 1.2367-0.20183 2.044-0.2205v-0.553c0-0.55067-0.119-0.96717-0.357-1.2495-0.238-0.28233-0.58566-0.4235-1.043-0.4235-0.308 0-0.56583 0.0385-0.7735 0.1155-0.20767 0.077-0.38733 0.16333-0.539 0.259-0.15167 0.095667-0.28233 0.182-0.392 0.259-0.10967 0.077-0.21817 0.1155-0.3255 0.1155-0.084 0-0.15633-0.022166-0.217-0.0665-0.060667-0.044334-0.112-0.099166-0.154-0.1645l-0.224-0.399zm11.27 0.168c-0.056 0.10267-0.14233 0.154-0.259 0.154-0.07 0-0.14933-0.025666-0.238-0.077s-0.19717-0.1085-0.3255-0.1715c-0.12833-0.063-0.28117-0.12133-0.4585-0.175-0.17733-0.053667-0.38733-0.0805-0.63-0.0805-0.21 0-0.399 0.026833-0.567 0.0805-0.168 0.053667-0.3115 0.12717-0.4305 0.2205s-0.21 0.20183-0.273 0.3255c-0.063 0.12367-0.0945 0.25783-0.0945 0.4025 0 0.182 0.0525 0.33367 0.1575 0.455s0.24383 0.22633 0.4165 0.315 0.36867 0.16683 0.588 0.2345c0.21933 0.067667 0.4445 0.14 0.6755 0.217 0.231 0.077 0.45617 0.16217 0.6755 0.2555s0.41533 0.21 0.588 0.35 0.3115 0.3115 0.4165 0.5145c0.105 0.203 0.1575 0.44683 0.1575 0.7315 0 0.32667-0.058333 0.62883-0.175 0.9065-0.11667 0.27767-0.28933 0.518-0.518 0.721s-0.50866 0.36283-0.84 0.4795c-0.33134 0.11667-0.714 0.175-1.148 0.175-0.49467 0-0.94266-0.080499-1.344-0.2415s-0.742-0.3675-1.022-0.6195l0.294-0.476c0.037334-0.060667 0.081666-0.10733 0.133-0.14s0.11667-0.049 0.196-0.049c0.084 0 0.17267 0.032666 0.266 0.098s0.2065 0.13767 0.3395 0.217 0.29517 0.15167 0.4865 0.217 0.42933 0.098 0.714 0.098c0.24267 0 0.455-0.0315 0.637-0.0945s0.33367-0.14817 0.455-0.2555 0.21117-0.231 0.2695-0.371 0.0875-0.28933 0.0875-0.448c0-0.196-0.0525-0.35817-0.1575-0.4865-0.105-0.12833-0.24383-0.238-0.4165-0.329-0.17267-0.091-0.36983-0.17033-0.5915-0.238-0.22167-0.067667-0.448-0.13883-0.679-0.2135s-0.45733-0.15983-0.679-0.2555c-0.22167-0.095667-0.41883-0.21583-0.5915-0.3605s-0.3115-0.32317-0.4165-0.5355c-0.105-0.21233-0.1575-0.47017-0.1575-0.7735 0-0.27067 0.055999-0.53083 0.168-0.7805 0.112-0.24967 0.27533-0.469 0.49-0.658 0.21467-0.189 0.47833-0.3395 0.791-0.4515s0.66966-0.168 1.071-0.168c0.46667 0 0.8855 0.073499 1.2565 0.2205 0.371 0.147 0.69183 0.34883 0.9625 0.6055l-0.28 0.455zm3.248-1.169v7.091h-1.246v-7.091h1.246zm0.266-2.226c0 0.12133-0.0245 0.2345-0.0735 0.3395-0.049 0.105-0.11433 0.19833-0.196 0.28-0.081667 0.081667-0.17733 0.14583-0.287 0.1925s-0.22517 0.07-0.3465 0.07-0.2345-0.023333-0.3395-0.07-0.19717-0.11083-0.2765-0.1925c-0.079334-0.081667-0.14233-0.175-0.189-0.28-0.046667-0.105-0.07-0.21817-0.07-0.3395s0.023333-0.23683 0.07-0.3465c0.046667-0.10967 0.10967-0.20533 0.189-0.287 0.079334-0.081667 0.1715-0.14583 0.2765-0.1925s0.21817-0.07 0.3395-0.07 0.23683 0.023333 0.3465 0.07 0.20533 0.11083 0.287 0.1925c0.081667 0.081667 0.147 0.17733 0.196 0.287 0.049 0.10967 0.0735 0.22517 0.0735 0.3465zm6.713 3.486c-0.037334 0.051334-0.074666 0.091-0.112 0.119s-0.088666 0.042-0.154 0.042c-0.07 0-0.147-0.029166-0.231-0.0875-0.084-0.058334-0.18783-0.1225-0.3115-0.1925s-0.27533-0.13417-0.455-0.1925c-0.17967-0.058334-0.40017-0.0875-0.6615-0.0875-0.35 0-0.658 0.061833-0.924 0.1855-0.266 0.12367-0.48883 0.30217-0.6685 0.5355s-0.315 0.51567-0.406 0.847-0.1365 0.70233-0.1365 1.113c0 0.42934 0.049 0.81083 0.147 1.1445 0.098 0.33367 0.23683 0.61367 0.4165 0.84 0.17967 0.22633 0.39667 0.399 0.651 0.518s0.54017 0.1785 0.8575 0.1785c0.30333 0 0.553-0.036166 0.749-0.1085s0.35817-0.15283 0.4865-0.2415 0.23567-0.16917 0.322-0.2415c0.086334-0.072334 0.1715-0.1085 0.2555-0.1085 0.10267 0 0.182 0.039666 0.238 0.119l0.35 0.455c-0.154 0.19133-0.329 0.35467-0.525 0.49s-0.40717 0.2485-0.6335 0.3395-0.46317 0.1575-0.7105 0.1995-0.49933 0.063-0.756 0.063c-0.44334 0-0.85516-0.081666-1.2355-0.245-0.38034-0.16333-0.7105-0.40017-0.9905-0.7105-0.28-0.31033-0.49933-0.69183-0.658-1.1445s-0.238-0.96833-0.238-1.547c0-0.52734 0.073499-1.015 0.2205-1.463s0.36167-0.83417 0.644-1.1585c0.28233-0.32433 0.63-0.5775 1.043-0.7595s0.88783-0.273 1.4245-0.273c0.49934 0 0.93916 0.080499 1.3195 0.2415 0.38034 0.161 0.7175 0.3885 1.0115 0.6825l-0.329 0.448zm6.986 5.831h-1.358v-10.031h1.358v10.031zm3.339-6.062c0.154-0.17267 0.31733-0.329 0.49-0.469s0.35583-0.26017 0.5495-0.3605c0.19367-0.10033 0.399-0.17733 0.616-0.231 0.217-0.053667 0.4515-0.0805 0.7035-0.0805 0.38734 0 0.72917 0.064166 1.0255 0.1925 0.29633 0.12833 0.54367 0.31033 0.742 0.546 0.19833 0.23567 0.34883 0.51917 0.4515 0.8505s0.154 0.69766 0.154 1.099v4.515h-1.253v-4.515c0-0.53667-0.1225-0.95317-0.3675-1.2495-0.245-0.29633-0.61716-0.4445-1.1165-0.4445-0.36867 0-0.71283 0.088666-1.0325 0.266s-0.61483 0.41767-0.8855 0.721v5.222h-1.253v-7.091h0.749c0.17733 0 0.287 0.086332 0.329 0.259l0.098 0.77zm10.766 0.14c-0.056 0.10267-0.14233 0.154-0.259 0.154-0.07 0-0.14933-0.025666-0.238-0.077s-0.19717-0.1085-0.3255-0.1715c-0.12833-0.063-0.28117-0.12133-0.4585-0.175-0.17733-0.053667-0.38733-0.0805-0.63-0.0805-0.21 0-0.399 0.026833-0.567 0.0805-0.168 0.053667-0.3115 0.12717-0.4305 0.2205s-0.21 0.20183-0.273 0.3255c-0.063 0.12367-0.0945 0.25783-0.0945 0.4025 0 0.182 0.0525 0.33367 0.1575 0.455s0.24383 0.22633 0.4165 0.315 0.36867 0.16683 0.588 0.2345c0.21933 0.067667 0.4445 0.14 0.6755 0.217 0.231 0.077 0.45617 0.16217 0.6755 0.2555s0.41533 0.21 0.588 0.35 0.3115 0.3115 0.4165 0.5145c0.105 0.203 0.1575 0.44683 0.1575 0.7315 0 0.32667-0.058333 0.62883-0.175 0.9065-0.11667 0.27767-0.28933 0.518-0.518 0.721s-0.50866 0.36283-0.84 0.4795c-0.33134 0.11667-0.714 0.175-1.148 0.175-0.49467 0-0.94266-0.080499-1.344-0.2415s-0.742-0.3675-1.022-0.6195l0.294-0.476c0.037334-0.060667 0.081666-0.10733 0.133-0.14s0.11667-0.049 0.196-0.049c0.084 0 0.17267 0.032666 0.266 0.098s0.2065 0.13767 0.3395 0.217 0.29517 0.15167 0.4865 0.217 0.42933 0.098 0.714 0.098c0.24267 0 0.455-0.0315 0.637-0.0945s0.33367-0.14817 0.455-0.2555 0.21117-0.231 0.2695-0.371 0.0875-0.28933 0.0875-0.448c0-0.196-0.0525-0.35817-0.1575-0.4865-0.105-0.12833-0.24383-0.238-0.4165-0.329-0.17267-0.091-0.36983-0.17033-0.5915-0.238-0.22167-0.067667-0.448-0.13883-0.679-0.2135s-0.45733-0.15983-0.679-0.2555c-0.22167-0.095667-0.41883-0.21583-0.5915-0.3605s-0.3115-0.32317-0.4165-0.5355c-0.105-0.21233-0.1575-0.47017-0.1575-0.7735 0-0.27067 0.055999-0.53083 0.168-0.7805 0.112-0.24967 0.27533-0.469 0.49-0.658 0.21467-0.189 0.47833-0.3395 0.791-0.4515s0.66966-0.168 1.071-0.168c0.46667 0 0.8855 0.073499 1.2565 0.2205 0.371 0.147 0.69183 0.34883 0.9625 0.6055l-0.28 0.455zm4.109 6.034c-0.56 0-0.9905-0.15633-1.2915-0.469s-0.4515-0.763-0.4515-1.351v-4.34h-0.854c-0.074667 0-0.13767-0.022166-0.189-0.0665-0.051334-0.044334-0.077-0.11317-0.077-0.2065v-0.497l1.162-0.147 0.287-2.191c0.014-0.07 0.0455-0.12717 0.0945-0.1715 0.049-0.044334 0.11317-0.0665 0.1925-0.0665h0.63v2.443h2.051v0.903h-2.051v4.256c0 0.29867 0.072333 0.52033 0.217 0.665 0.14467 0.14467 0.33133 0.217 0.56 0.217 0.13067 0 0.24383-0.0175 0.3395-0.0525s0.1785-0.0735 0.2485-0.1155c0.07-0.042 0.1295-0.0805 0.1785-0.1155 0.049-0.035 0.092166-0.0525 0.1295-0.0525 0.065334 0 0.12367 0.039666 0.175 0.119l0.364 0.595c-0.21467 0.20067-0.47367 0.35817-0.777 0.4725-0.30333 0.11433-0.616 0.1715-0.938 0.1715zm6.685-3.304c-0.574 0.018667-1.0628 0.064166-1.4665 0.1365-0.40367 0.072334-0.73267 0.16683-0.987 0.2835s-0.43867 0.25433-0.553 0.413-0.1715 0.336-0.1715 0.532c0 0.18667 0.030333 0.34767 0.091 0.483s0.1435 0.24617 0.2485 0.3325c0.105 0.086334 0.22867 0.14933 0.371 0.189s0.29517 0.0595 0.4585 0.0595c0.21933 0 0.42-0.022166 0.602-0.0665s0.3535-0.1085 0.5145-0.1925c0.161-0.084 0.315-0.18433 0.462-0.301s0.2905-0.24967 0.4305-0.399v-1.47zm-4.025-2.898c0.392-0.378 0.81433-0.66033 1.267-0.847s0.95433-0.28 1.505-0.28c0.39667 0 0.749 0.065333 1.057 0.196s0.567 0.31267 0.777 0.546c0.21 0.23333 0.36867 0.51567 0.476 0.847s0.161 0.69533 0.161 1.092v4.536h-0.553c-0.12133 0-0.21467-0.019833-0.28-0.0595s-0.11667-0.11783-0.154-0.2345l-0.14-0.672c-0.18667 0.17267-0.36867 0.3255-0.546 0.4585s-0.364 0.245-0.56 0.336-0.40483 0.161-0.6265 0.21-0.46783 0.0735-0.7385 0.0735c-0.27533 0-0.53433-0.0385-0.777-0.1155s-0.45383-0.1925-0.6335-0.3465-0.322-0.34883-0.427-0.5845c-0.105-0.23567-0.1575-0.5145-0.1575-0.8365 0-0.28 0.076999-0.5495 0.231-0.8085 0.154-0.259 0.40366-0.48883 0.749-0.6895s0.79566-0.36517 1.351-0.4935c0.55534-0.12833 1.2367-0.20183 2.044-0.2205v-0.553c0-0.55067-0.119-0.96717-0.357-1.2495-0.238-0.28233-0.58566-0.4235-1.043-0.4235-0.308 0-0.56583 0.0385-0.7735 0.1155-0.20767 0.077-0.38733 0.16333-0.539 0.259-0.15167 0.095667-0.28233 0.182-0.392 0.259-0.10967 0.077-0.21817 0.1155-0.3255 0.1155-0.084 0-0.15633-0.022166-0.217-0.0665-0.060667-0.044334-0.112-0.099166-0.154-0.1645l-0.224-0.399zm8.428-4.221v10.311h-1.246v-10.311h1.246zm3.304 0v10.311h-1.246v-10.311h1.246z" fill="#333F52"/>
<path d="m30.975 89.988c0 0.75134-0.119 1.435-0.357 2.051s-0.574 1.1433-1.008 1.582-0.9555 0.77817-1.5645 1.0185-1.2822 0.3605-2.0195 0.3605h-3.745v-10.031h3.745c0.73734 0 1.4105 0.12017 2.0195 0.3605s1.1305 0.581 1.5645 1.022 0.77 0.9695 1.008 1.5855 0.357 1.2997 0.357 2.051zm-1.393 0c0-0.616-0.083999-1.1667-0.252-1.652s-0.406-0.896-0.714-1.232-0.68133-0.59267-1.12-0.77-0.92866-0.266-1.47-0.266h-2.387v7.833h2.387c0.54134 0 1.0313-0.088666 1.47-0.266s0.812-0.43283 1.12-0.7665 0.546-0.74316 0.714-1.2285 0.252-1.036 0.252-1.652zm7.7 0.693c0-0.28933-0.040833-0.55417-0.1225-0.7945s-0.20067-0.448-0.357-0.623-0.3465-0.31033-0.5705-0.406-0.47833-0.1435-0.763-0.1435c-0.59734 0-1.0698 0.17383-1.4175 0.5215s-0.5635 0.8295-0.6475 1.4455h3.878zm1.008 3.325c-0.154 0.18667-0.33833 0.34883-0.553 0.4865s-0.4445 0.25083-0.6895 0.3395-0.49817 0.15517-0.7595 0.1995-0.52033 0.0665-0.777 0.0665c-0.49 0-0.9415-0.082832-1.3545-0.2485s-0.77-0.40833-1.071-0.728-0.5355-0.71516-0.7035-1.1865-0.252-1.0127-0.252-1.624c0-0.49467 0.075833-0.95666 0.2275-1.386s0.36983-0.8015 0.6545-1.1165 0.63233-0.56233 1.043-0.742 0.87266-0.2695 1.386-0.2695c0.42467 0 0.81783 0.071166 1.1795 0.2135s0.67433 0.34767 0.938 0.616 0.47017 0.59966 0.6195 0.994 0.224 0.8435 0.224 1.3475c0 0.196-0.021 0.32667-0.063 0.392s-0.12133 0.098-0.238 0.098h-4.739c0.014 0.448 0.075833 0.83766 0.1855 1.169s0.2625 0.60783 0.4585 0.8295 0.42933 0.38733 0.7 0.497 0.574 0.1645 0.91 0.1645c0.31267 0 0.58217-0.036166 0.8085-0.1085s0.42117-0.1505 0.5845-0.2345 0.29983-0.16217 0.4095-0.2345 0.20417-0.1085 0.2835-0.1085c0.10267 0 0.182 0.039666 0.238 0.119l0.35 0.455zm6.384-3.325c0-0.28933-0.040833-0.55417-0.1225-0.7945s-0.20067-0.448-0.357-0.623-0.3465-0.31033-0.5705-0.406-0.47833-0.1435-0.763-0.1435c-0.59734 0-1.0698 0.17383-1.4175 0.5215s-0.5635 0.8295-0.6475 1.4455h3.878zm1.008 3.325c-0.154 0.18667-0.33833 0.34883-0.553 0.4865s-0.4445 0.25083-0.6895 0.3395-0.49817 0.15517-0.7595 0.1995-0.52033 0.0665-0.777 0.0665c-0.49 0-0.9415-0.082832-1.3545-0.2485s-0.77-0.40833-1.071-0.728-0.5355-0.71516-0.7035-1.1865-0.252-1.0127-0.252-1.624c0-0.49467 0.075833-0.95666 0.2275-1.386s0.36983-0.8015 0.6545-1.1165 0.63233-0.56233 1.043-0.742 0.87266-0.2695 1.386-0.2695c0.42467 0 0.81783 0.071166 1.1795 0.2135s0.67433 0.34767 0.938 0.616 0.47017 0.59966 0.6195 0.994 0.224 0.8435 0.224 1.3475c0 0.196-0.021 0.32667-0.063 0.392s-0.12133 0.098-0.238 0.098h-4.739c0.014 0.448 0.075833 0.83766 0.1855 1.169s0.2625 0.60783 0.4585 0.8295 0.42933 0.38733 0.7 0.497 0.574 0.1645 0.91 0.1645c0.31267 0 0.58217-0.036166 0.8085-0.1085s0.42117-0.1505 0.5845-0.2345 0.29983-0.16217 0.4095-0.2345 0.20417-0.1085 0.2835-0.1085c0.10267 0 0.182 0.039666 0.238 0.119l0.35 0.455zm2.891-0.714c0.22867 0.308 0.47833 0.525 0.749 0.651s0.574 0.189 0.91 0.189c0.66267 0 1.1713-0.23566 1.526-0.707s0.532-1.1433 0.532-2.016c0-0.462-0.040833-0.85866-0.1225-1.19s-0.1995-0.60317-0.3535-0.8155-0.343-0.3675-0.567-0.4655-0.47833-0.147-0.763-0.147c-0.406 0-0.76183 0.093332-1.0675 0.28s-0.58683 0.45033-0.8435 0.791v3.43zm-0.063-4.284c0.29867-0.36867 0.644-0.665 1.036-0.889s0.84-0.336 1.344-0.336c0.41067 0 0.78166 0.078166 1.113 0.2345s0.61367 0.38733 0.847 0.693 0.413 0.68483 0.539 1.1375 0.189 0.973 0.189 1.561c0 0.52267-0.069999 1.0092-0.21 1.4595s-0.34183 0.84-0.6055 1.169-0.58566 0.588-0.966 0.777-0.8085 0.2835-1.2845 0.2835c-0.434 0-0.80617-0.073499-1.1165-0.2205s-0.5845-0.35117-0.8225-0.6125v3.136h-1.253v-9.492h0.749c0.17733 0 0.287 0.086332 0.329 0.259l0.112 0.84zm11.893 5.992h-1.358v-10.031h1.358v10.031zm3.339-6.062c0.154-0.17267 0.31733-0.329 0.49-0.469s0.35583-0.26017 0.5495-0.3605 0.399-0.17733 0.616-0.231 0.4515-0.0805 0.7035-0.0805c0.38734 0 0.72917 0.064166 1.0255 0.1925s0.54367 0.31033 0.742 0.546 0.34883 0.51916 0.4515 0.8505 0.154 0.69766 0.154 1.099v4.515h-1.253v-4.515c0-0.53667-0.1225-0.95317-0.3675-1.2495s-0.61716-0.4445-1.1165-0.4445c-0.36867 0-0.71283 0.088666-1.0325 0.266s-0.61483 0.41767-0.8855 0.721v5.222h-1.253v-7.091h0.749c0.17733 0 0.287 0.086332 0.329 0.259l0.098 0.77zm10.766 0.14c-0.056 0.10267-0.14233 0.154-0.259 0.154-0.07 0-0.14933-0.025666-0.238-0.077s-0.19717-0.1085-0.3255-0.1715-0.28117-0.12133-0.4585-0.175-0.38733-0.0805-0.63-0.0805c-0.21 0-0.399 0.026833-0.567 0.0805s-0.3115 0.12717-0.4305 0.2205-0.21 0.20183-0.273 0.3255-0.0945 0.25783-0.0945 0.4025c0 0.182 0.0525 0.33367 0.1575 0.455s0.24383 0.22633 0.4165 0.315 0.36867 0.16683 0.588 0.2345 0.4445 0.14 0.6755 0.217 0.45617 0.16217 0.6755 0.2555 0.41533 0.21 0.588 0.35 0.3115 0.3115 0.4165 0.5145 0.1575 0.44683 0.1575 0.7315c0 0.32667-0.058333 0.62883-0.175 0.9065s-0.28933 0.518-0.518 0.721-0.50866 0.36283-0.84 0.4795c-0.33134 0.11667-0.714 0.175-1.148 0.175-0.49467 0-0.94266-0.080499-1.344-0.2415s-0.742-0.3675-1.022-0.6195l0.294-0.476c0.037334-0.060667 0.081666-0.10733 0.133-0.14s0.11667-0.049 0.196-0.049c0.084 0 0.17267 0.032666 0.266 0.098s0.2065 0.13767 0.3395 0.217 0.29517 0.15167 0.4865 0.217 0.42933 0.098 0.714 0.098c0.24267 0 0.455-0.0315 0.637-0.0945s0.33367-0.14817 0.455-0.2555 0.21117-0.231 0.2695-0.371 0.0875-0.28933 0.0875-0.448c0-0.196-0.0525-0.35817-0.1575-0.4865s-0.24383-0.238-0.4165-0.329-0.36983-0.17033-0.5915-0.238-0.448-0.13883-0.679-0.2135-0.45733-0.15983-0.679-0.2555-0.41883-0.21583-0.5915-0.3605-0.3115-0.32317-0.4165-0.5355-0.1575-0.47017-0.1575-0.7735c0-0.27067 0.055999-0.53083 0.168-0.7805s0.27533-0.469 0.49-0.658 0.47833-0.3395 0.791-0.4515 0.66966-0.168 1.071-0.168c0.46667 0 0.8855 0.073499 1.2565 0.2205s0.69183 0.34883 0.9625 0.6055l-0.28 0.455zm3.248-1.169v7.091h-1.246v-7.091h1.246zm0.266-2.226c0 0.12133-0.0245 0.2345-0.0735 0.3395s-0.11433 0.19833-0.196 0.28-0.17733 0.14583-0.287 0.1925-0.22517 0.07-0.3465 0.07-0.2345-0.023333-0.3395-0.07-0.19717-0.11083-0.2765-0.1925-0.14233-0.175-0.189-0.28-0.07-0.21817-0.07-0.3395 0.023333-0.23683 0.07-0.3465 0.10967-0.20533 0.189-0.287 0.1715-0.14583 0.2765-0.1925 0.21817-0.07 0.3395-0.07 0.23683 0.023333 0.3465 0.07 0.20533 0.11083 0.287 0.1925 0.147 0.17733 0.196 0.287 0.0735 0.22517 0.0735 0.3465zm4.249 5.852c0.252 0 0.47367-0.035 0.665-0.105 0.19133-0.07 0.35233-0.168 0.483-0.294s0.22867-0.2765 0.294-0.4515 0.098-0.3675 0.098-0.5775c0-0.434-0.13183-0.77933-0.3955-1.036-0.26367-0.25667-0.64516-0.385-1.1445-0.385-0.504 0-0.88783 0.12833-1.1515 0.385-0.26367 0.25667-0.3955 0.602-0.3955 1.036 0 0.21 0.033833 0.4025 0.1015 0.5775s0.16683 0.3255 0.2975 0.4515 0.29167 0.224 0.483 0.294c0.19133 0.07 0.413 0.105 0.665 0.105zm2.247 3.85c0-0.17267-0.049-0.31267-0.147-0.42s-0.22983-0.19133-0.3955-0.252-0.35817-0.10383-0.5775-0.1295-0.4515-0.0455-0.6965-0.0595-0.4935-0.028-0.7455-0.042-0.49467-0.037333-0.728-0.07c-0.26133 0.12133-0.47483 0.27417-0.6405 0.4585s-0.2485 0.40017-0.2485 0.6475c0 0.15867 0.040833 0.30683 0.1225 0.4445s0.2065 0.25667 0.3745 0.357 0.37917 0.17967 0.6335 0.238 0.55416 0.0875 0.8995 0.0875c0.336 0 0.637-0.030333 0.903-0.091s0.49117-0.147 0.6755-0.259 0.3255-0.245 0.4235-0.399 0.147-0.32433 0.147-0.511zm1.267-7.196v0.462c0 0.154-0.097999 0.252-0.294 0.294l-0.805 0.105c0.15867 0.308 0.238 0.64866 0.238 1.022 0 0.34534-0.066499 0.65917-0.1995 0.9415s-0.31617 0.52383-0.5495 0.7245-0.51333 0.35467-0.84 0.462-0.68133 0.161-1.064 0.161c-0.33134 0-0.644-0.039666-0.938-0.119-0.14933 0.093334-0.26367 0.1925-0.343 0.2975s-0.119 0.21117-0.119 0.3185c0 0.168 0.068833 0.29517 0.2065 0.3815s0.3185 0.14817 0.5425 0.1855 0.4795 0.060667 0.7665 0.07 0.581 0.0245 0.882 0.0455 0.595 0.057166 0.882 0.1085 0.5425 0.13533 0.7665 0.252c0.224 0.11667 0.40483 0.27767 0.5425 0.483s0.2065 0.47133 0.2065 0.798c0 0.30333-0.075833 0.59733-0.2275 0.882s-0.36983 0.53783-0.6545 0.7595-0.6335 0.399-1.0465 0.532-0.8785 0.1995-1.3965 0.1995-0.97066-0.051333-1.358-0.154-0.70933-0.24033-0.966-0.413-0.44917-0.37217-0.5775-0.5985-0.1925-0.46317-0.1925-0.7105c0-0.35 0.10967-0.64633 0.329-0.889s0.52033-0.43633 0.903-0.581c-0.21-0.093334-0.37683-0.21817-0.5005-0.3745s-0.1855-0.3675-0.1855-0.6335c0-0.10267 0.018666-0.20883 0.056-0.3185s0.0945-0.21933 0.1715-0.329 0.1715-0.2135 0.2835-0.3115 0.24267-0.18433 0.392-0.259c-0.35-0.196-0.623-0.45616-0.819-0.7805s-0.294-0.70116-0.294-1.1305c0-0.34534 0.066499-0.65917 0.1995-0.9415s0.3185-0.52267 0.5565-0.721 0.5215-0.35117 0.8505-0.4585 0.6895-0.161 1.0815-0.161c0.308 0 0.595 0.033833 0.861 0.1015s0.50867 0.16683 0.728 0.2975h1.925zm2.548 0.665c0.30333-0.322 0.63933-0.57867 1.008-0.77s0.79333-0.287 1.274-0.287c0.38734 0 0.72917 0.064166 1.0255 0.1925s0.54367 0.31033 0.742 0.546 0.34883 0.51916 0.4515 0.8505 0.154 0.69766 0.154 1.099v4.515h-1.253v-4.515c0-0.53667-0.1225-0.95317-0.3675-1.2495s-0.61716-0.4445-1.1165-0.4445c-0.36867 0-0.71283 0.088666-1.0325 0.266s-0.61483 0.41767-0.8855 0.721v5.222h-1.253v-10.311h1.253v4.165zm8.638 6.258c-0.56 0-0.9905-0.15633-1.2915-0.469s-0.4515-0.763-0.4515-1.351v-4.34h-0.854c-0.074667 0-0.13767-0.022166-0.189-0.0665s-0.077-0.11317-0.077-0.2065v-0.497l1.162-0.147 0.287-2.191c0.014-0.07 0.0455-0.12717 0.0945-0.1715s0.11317-0.0665 0.1925-0.0665h0.63v2.443h2.051v0.903h-2.051v4.256c0 0.29867 0.072333 0.52033 0.217 0.665s0.33133 0.217 0.56 0.217c0.13067 0 0.24383-0.0175 0.3395-0.0525s0.1785-0.0735 0.2485-0.1155c0.07-0.042 0.1295-0.0805 0.1785-0.1155s0.092166-0.0525 0.1295-0.0525c0.065334 0 0.12367 0.039666 0.175 0.119l0.364 0.595c-0.21467 0.20067-0.47367 0.35817-0.777 0.4725-0.30333 0.11433-0.616 0.1715-0.938 0.1715zm6.972-6.034c-0.056 0.10267-0.14233 0.154-0.259 0.154-0.07 0-0.14933-0.025666-0.238-0.077s-0.19717-0.1085-0.3255-0.1715-0.28117-0.12133-0.4585-0.175-0.38733-0.0805-0.63-0.0805c-0.21 0-0.399 0.026833-0.567 0.0805s-0.3115 0.12717-0.4305 0.2205-0.21 0.20183-0.273 0.3255-0.0945 0.25783-0.0945 0.4025c0 0.182 0.052499 0.33367 0.1575 0.455s0.24383 0.22633 0.4165 0.315 0.36867 0.16683 0.588 0.2345 0.4445 0.14 0.6755 0.217 0.45617 0.16217 0.6755 0.2555 0.41533 0.21 0.588 0.35 0.3115 0.3115 0.4165 0.5145 0.1575 0.44683 0.1575 0.7315c0 0.32667-0.058333 0.62883-0.175 0.9065s-0.28933 0.518-0.518 0.721-0.50866 0.36283-0.84 0.4795c-0.33134 0.11667-0.714 0.175-1.148 0.175-0.49467 0-0.94266-0.080499-1.344-0.2415-0.40134-0.161-0.742-0.3675-1.022-0.6195l0.294-0.476c0.037334-0.060667 0.081666-0.10733 0.133-0.14s0.11667-0.049 0.196-0.049c0.084 0 0.17267 0.032666 0.266 0.098s0.2065 0.13767 0.3395 0.217 0.29517 0.15167 0.4865 0.217 0.42933 0.098 0.714 0.098c0.24267 0 0.455-0.0315 0.637-0.0945s0.33367-0.14817 0.455-0.2555 0.21117-0.231 0.2695-0.371 0.0875-0.28933 0.0875-0.448c0-0.196-0.052499-0.35817-0.1575-0.4865s-0.24383-0.238-0.4165-0.329-0.36983-0.17033-0.5915-0.238-0.448-0.13883-0.679-0.2135-0.45733-0.15983-0.679-0.2555-0.41883-0.21583-0.5915-0.3605c-0.17267-0.14467-0.3115-0.32317-0.4165-0.5355s-0.1575-0.47017-0.1575-0.7735c0-0.27067 0.055999-0.53083 0.168-0.7805s0.27533-0.469 0.49-0.658c0.21467-0.189 0.47833-0.3395 0.791-0.4515s0.66966-0.168 1.071-0.168c0.46667 0 0.8855 0.073499 1.2565 0.2205s0.69183 0.34883 0.9625 0.6055l-0.28 0.455z" fill="#333F52"/>
<path d="m27.608 119.28l-1.575-4.081c-0.046667-0.12133-0.095666-0.2625-0.147-0.4235s-0.10033-0.3325-0.147-0.5145c-0.098 0.378-0.19833 0.693-0.301 0.945l-1.575 4.074h3.745zm2.828 3.724h-1.05c-0.12133 0-0.21933-0.030333-0.294-0.091s-0.13067-0.13767-0.168-0.231l-0.938-2.422h-4.501l-0.938 2.422c-0.028 0.084-0.081666 0.15867-0.161 0.224s-0.17733 0.098-0.294 0.098h-1.05l4.011-10.031h1.372l4.011 10.031zm6.685-7.091v7.091h-0.742c-0.17733 0-0.28933-0.086332-0.336-0.259l-0.098-0.763c-0.308 0.34067-0.65333 0.61483-1.036 0.8225s-0.82133 0.3115-1.316 0.3115c-0.38734 0-0.72917-0.064166-1.0255-0.1925s-0.54483-0.30917-0.7455-0.5425c-0.20067-0.23334-0.35117-0.51566-0.4515-0.847s-0.1505-0.69766-0.1505-1.099v-4.522h1.246v4.522c0 0.53667 0.1225 0.952 0.3675 1.246s0.6195 0.441 1.1235 0.441c0.36867 0 0.71283-0.087499 1.0325-0.2625s0.61483-0.4165 0.8855-0.7245v-5.222h1.246zm4.151 7.203c-0.56 0-0.9905-0.15633-1.2915-0.469s-0.4515-0.763-0.4515-1.351v-4.34h-0.854c-0.074667 0-0.13767-0.022166-0.189-0.0665s-0.077-0.11317-0.077-0.2065v-0.497l1.162-0.147 0.287-2.191c0.014-0.07 0.0455-0.12717 0.0945-0.1715s0.11317-0.0665 0.1925-0.0665h0.63v2.443h2.051v0.903h-2.051v4.256c0 0.29867 0.072333 0.52033 0.217 0.665s0.33133 0.217 0.56 0.217c0.13067 0 0.24383-0.0175 0.3395-0.0525s0.1785-0.0735 0.2485-0.1155 0.1295-0.0805 0.1785-0.1155 0.092166-0.0525 0.1295-0.0525c0.065334 0 0.12367 0.039666 0.175 0.119l0.364 0.595c-0.21467 0.20067-0.47367 0.35817-0.777 0.4725s-0.616 0.1715-0.938 0.1715zm5.796-7.315c0.518 0 0.98466 0.086332 1.4 0.259s0.77 0.41766 1.064 0.735 0.51917 0.70116 0.6755 1.1515 0.2345 0.95316 0.2345 1.5085c0 0.56-0.078166 1.064-0.2345 1.512s-0.3815 0.83066-0.6755 1.148-0.64866 0.56117-1.064 0.7315-0.882 0.2555-1.4 0.2555c-0.52267 0-0.99283-0.085166-1.4105-0.2555s-0.7735-0.41416-1.0675-0.7315-0.51917-0.7-0.6755-1.148-0.2345-0.952-0.2345-1.512c0-0.55534 0.078166-1.0582 0.2345-1.5085s0.3815-0.83416 0.6755-1.1515 0.64983-0.56233 1.0675-0.735 0.88783-0.259 1.4105-0.259zm0 6.328c0.7 0 1.2227-0.2345 1.568-0.7035s0.518-1.1235 0.518-1.9635c0-0.84467-0.17266-1.5027-0.518-1.974s-0.868-0.707-1.568-0.707c-0.35467 0-0.66383 0.060666-0.9275 0.182s-0.483 0.29633-0.658 0.525-0.30567 0.50983-0.392 0.8435-0.1295 0.7105-0.1295 1.1305c0 0.84 0.17383 1.4945 0.5215 1.9635s0.87616 0.7035 1.5855 0.7035zm11.788-3.955c0.38734 0 0.72917-0.051333 1.0255-0.154s0.546-0.24617 0.749-0.4305 0.35583-0.40483 0.4585-0.6615 0.154-0.539 0.154-0.847c0-0.63934-0.19716-1.1387-0.5915-1.498s-0.99283-0.539-1.7955-0.539h-1.61v4.13h1.61zm0-5.201c0.63467 0 1.1865 0.073499 1.6555 0.2205s0.8575 0.35583 1.1655 0.6265 0.53783 0.59733 0.6895 0.98 0.2275 0.80966 0.2275 1.281c0 0.46667-0.081666 0.89366-0.245 1.281-0.16333 0.38734-0.4025 0.721-0.7175 1.001s-0.70466 0.49817-1.169 0.6545-0.99983 0.2345-1.6065 0.2345h-1.61v3.752h-1.351v-10.031h2.961zm6.426 2.94v7.091h-1.246v-7.091h1.246zm0.266-2.226c0 0.12133-0.0245 0.2345-0.0735 0.3395s-0.11433 0.19833-0.196 0.28-0.17733 0.14583-0.287 0.1925-0.22517 0.07-0.3465 0.07-0.2345-0.023333-0.3395-0.07-0.19717-0.11083-0.2765-0.1925-0.14233-0.175-0.189-0.28-0.07-0.21817-0.07-0.3395 0.023333-0.23683 0.07-0.3465 0.10967-0.20533 0.189-0.287 0.1715-0.14583 0.2765-0.1925 0.21817-0.07 0.3395-0.07 0.23683 0.023333 0.3465 0.07 0.20533 0.11083 0.287 0.1925 0.147 0.17733 0.196 0.287 0.0735 0.22517 0.0735 0.3465zm3.066-0.994v10.311h-1.246v-10.311h1.246zm5.005 3.108c0.518 0 0.98466 0.086332 1.4 0.259s0.77 0.41766 1.064 0.735 0.51917 0.70116 0.6755 1.1515 0.2345 0.95316 0.2345 1.5085c0 0.56-0.078166 1.064-0.2345 1.512s-0.3815 0.83066-0.6755 1.148-0.64866 0.56117-1.064 0.7315-0.882 0.2555-1.4 0.2555c-0.52267 0-0.99283-0.085166-1.4105-0.2555s-0.7735-0.41416-1.0675-0.7315-0.51917-0.7-0.6755-1.148-0.2345-0.952-0.2345-1.512c0-0.55534 0.078166-1.0582 0.2345-1.5085s0.3815-0.83416 0.6755-1.1515 0.64983-0.56233 1.0675-0.735 0.88783-0.259 1.4105-0.259zm0 6.328c0.7 0 1.2227-0.2345 1.568-0.7035s0.518-1.1235 0.518-1.9635c0-0.84467-0.17266-1.5027-0.518-1.974s-0.868-0.707-1.568-0.707c-0.35467 0-0.66383 0.060666-0.9275 0.182s-0.483 0.29633-0.658 0.525-0.30567 0.50983-0.392 0.8435-0.1295 0.7105-0.1295 1.1305c0 0.84 0.17383 1.4945 0.5215 1.9635s0.87616 0.7035 1.5855 0.7035zm7 0.987c-0.56 0-0.9905-0.15633-1.2915-0.469s-0.4515-0.763-0.4515-1.351v-4.34h-0.854c-0.074667 0-0.13767-0.022166-0.189-0.0665s-0.077-0.11317-0.077-0.2065v-0.497l1.162-0.147 0.287-2.191c0.014-0.07 0.0455-0.12717 0.0945-0.1715s0.11317-0.0665 0.1925-0.0665h0.63v2.443h2.051v0.903h-2.051v4.256c0 0.29867 0.072333 0.52033 0.217 0.665s0.33133 0.217 0.56 0.217c0.13067 0 0.24383-0.0175 0.3395-0.0525s0.1785-0.0735 0.2485-0.1155c0.07-0.042 0.1295-0.0805 0.1785-0.1155s0.092166-0.0525 0.1295-0.0525c0.065334 0 0.12367 0.039666 0.175 0.119l0.364 0.595c-0.21467 0.20067-0.47367 0.35817-0.777 0.4725-0.30333 0.11433-0.616 0.1715-0.938 0.1715z" fill="#333F52" opacity=".5"/>
<path d="m23.639 58.075v3.507h4.123v1.106h-4.123v4.312h-1.358v-10.031h6.181v1.106h-4.823zm11.571 1.834v7.091h-0.742c-0.17733 0-0.28933-0.086332-0.336-0.259l-0.098-0.763c-0.308 0.34067-0.65333 0.61483-1.036 0.8225s-0.82133 0.3115-1.316 0.3115c-0.38734 0-0.72917-0.064166-1.0255-0.1925s-0.54483-0.30917-0.7455-0.5425-0.35117-0.51566-0.4515-0.847-0.1505-0.69766-0.1505-1.099v-4.522h1.246v4.522c0 0.53667 0.1225 0.952 0.3675 1.246s0.6195 0.441 1.1235 0.441c0.36867 0 0.71283-0.087499 1.0325-0.2625s0.61483-0.4165 0.8855-0.7245v-5.222h1.246zm3.262-3.22v10.311h-1.246v-10.311h1.246zm3.304 0v10.311h-1.246v-10.311h1.246zm11.585 9.17v1.141h-5.691v-10.031h1.351v8.89h4.34zm2.52-5.95v7.091h-1.246v-7.091h1.246zm0.266-2.226c0 0.12133-0.0245 0.2345-0.0735 0.3395s-0.11433 0.19833-0.196 0.28-0.17733 0.14583-0.287 0.1925-0.22517 0.07-0.3465 0.07-0.2345-0.023333-0.3395-0.07-0.19717-0.11083-0.2765-0.1925-0.14233-0.175-0.189-0.28-0.07-0.21817-0.07-0.3395 0.023333-0.23683 0.07-0.3465 0.10967-0.20533 0.189-0.287 0.1715-0.14583 0.2765-0.1925 0.21817-0.07 0.3395-0.07 0.23683 0.023333 0.3465 0.07 0.20533 0.11083 0.287 0.1925 0.147 0.17733 0.196 0.287 0.0735 0.22517 0.0735 0.3465zm2.24 9.317v-6.027l-0.784-0.091c-0.098-0.023334-0.1785-0.0595-0.2415-0.1085s-0.0945-0.12017-0.0945-0.2135v-0.511h1.12v-0.686c0-0.406 0.057166-0.7665 0.1715-1.0815s0.27767-0.581 0.49-0.798 0.46783-0.3815 0.7665-0.4935 0.63466-0.168 1.008-0.168c0.31733 0 0.609 0.046666 0.875 0.14l-0.028 0.623c-0.0093334 0.112-0.071166 0.17267-0.1855 0.182s-0.26717 0.014-0.4585 0.014c-0.21467 0-0.4095 0.028-0.5845 0.084s-0.3255 0.147-0.4515 0.273-0.22283 0.29167-0.2905 0.497-0.1015 0.45967-0.1015 0.763v0.651h2.044v0.903h-2.002v6.048h-1.253zm8.96-4.319c0-0.28933-0.040833-0.55417-0.1225-0.7945s-0.20067-0.448-0.357-0.623-0.3465-0.31033-0.5705-0.406-0.47833-0.1435-0.763-0.1435c-0.59734 0-1.0698 0.17383-1.4175 0.5215s-0.5635 0.8295-0.6475 1.4455h3.878zm1.008 3.325c-0.154 0.18667-0.33833 0.34883-0.553 0.4865s-0.4445 0.25083-0.6895 0.3395-0.49817 0.15517-0.7595 0.1995-0.52033 0.0665-0.777 0.0665c-0.49 0-0.9415-0.082832-1.3545-0.2485s-0.77-0.40833-1.071-0.728-0.5355-0.71516-0.7035-1.1865-0.252-1.0127-0.252-1.624c0-0.49467 0.075833-0.95666 0.2275-1.386s0.36983-0.8015 0.6545-1.1165 0.63233-0.56233 1.043-0.742 0.87266-0.2695 1.386-0.2695c0.42467 0 0.81783 0.071166 1.1795 0.2135s0.67433 0.34767 0.938 0.616 0.47017 0.59966 0.6195 0.994 0.224 0.8435 0.224 1.3475c0 0.196-0.021 0.32667-0.063 0.392s-0.12133 0.098-0.238 0.098h-4.739c0.014 0.448 0.075833 0.83766 0.1855 1.169s0.2625 0.60783 0.4585 0.8295 0.42933 0.38733 0.7 0.497 0.574 0.1645 0.91 0.1645c0.31267 0 0.58217-0.036166 0.8085-0.1085s0.42117-0.1505 0.5845-0.2345c0.16333-0.084 0.29983-0.16217 0.4095-0.2345s0.20417-0.1085 0.2835-0.1085c0.10267 0 0.182 0.039666 0.238 0.119l0.35 0.455zm6.573-4.837c-0.037334 0.051334-0.074666 0.091-0.112 0.119s-0.088666 0.042-0.154 0.042c-0.07 0-0.147-0.029166-0.231-0.0875s-0.18783-0.1225-0.3115-0.1925c-0.12367-0.07-0.27533-0.13417-0.455-0.1925s-0.40017-0.0875-0.6615-0.0875c-0.35 0-0.658 0.061833-0.924 0.1855s-0.48883 0.30217-0.6685 0.5355-0.315 0.51566-0.406 0.847-0.1365 0.70233-0.1365 1.113c0 0.42934 0.049 0.81083 0.147 1.1445s0.23683 0.61367 0.4165 0.84 0.39667 0.399 0.651 0.518 0.54017 0.1785 0.8575 0.1785c0.30333 0 0.553-0.036166 0.749-0.1085s0.35817-0.15283 0.4865-0.2415 0.23567-0.16917 0.322-0.2415 0.1715-0.1085 0.2555-0.1085c0.10267 0 0.182 0.039666 0.238 0.119l0.35 0.455c-0.154 0.19133-0.329 0.35467-0.525 0.49s-0.40717 0.2485-0.6335 0.3395-0.46317 0.1575-0.7105 0.1995-0.49933 0.063-0.756 0.063c-0.44334 0-0.85516-0.081666-1.2355-0.245s-0.7105-0.40017-0.9905-0.7105-0.49933-0.69183-0.658-1.1445-0.238-0.96833-0.238-1.547c0-0.52734 0.073499-1.015 0.2205-1.463s0.36167-0.83416 0.644-1.1585 0.63-0.5775 1.043-0.7595 0.88783-0.273 1.4245-0.273c0.49934 0 0.93916 0.080499 1.3195 0.2415s0.7175 0.3885 1.0115 0.6825l-0.329 0.448zm7.868-1.26l-3.955 9.184c-0.042 0.093334-0.0945 0.168-0.1575 0.224s-0.15983 0.084-0.2905 0.084h-0.924l1.295-2.814-2.926-6.678h1.078c0.10733 0 0.1925 0.026833 0.2555 0.0805s0.10617 0.11317 0.1295 0.1785l1.897 4.466c0.074667 0.196 0.13767 0.40133 0.189 0.616 0.065334-0.21933 0.13533-0.427 0.21-0.623l1.841-4.459c0.028-0.074667 0.075833-0.1365 0.1435-0.1855s0.1435-0.0735 0.2275-0.0735h0.987zm5.838 1.26c-0.037334 0.051334-0.074666 0.091-0.112 0.119s-0.088666 0.042-0.154 0.042c-0.07 0-0.147-0.029166-0.231-0.0875s-0.18783-0.1225-0.3115-0.1925c-0.12367-0.07-0.27533-0.13417-0.455-0.1925s-0.40017-0.0875-0.6615-0.0875c-0.35 0-0.658 0.061833-0.924 0.1855s-0.48883 0.30217-0.6685 0.5355-0.315 0.51566-0.406 0.847-0.1365 0.70233-0.1365 1.113c0 0.42934 0.049 0.81083 0.147 1.1445s0.23683 0.61367 0.4165 0.84 0.39667 0.399 0.651 0.518 0.54017 0.1785 0.8575 0.1785c0.30333 0 0.553-0.036166 0.749-0.1085s0.35817-0.15283 0.4865-0.2415 0.23567-0.16917 0.322-0.2415 0.1715-0.1085 0.2555-0.1085c0.10267 0 0.182 0.039666 0.238 0.119l0.35 0.455c-0.154 0.19133-0.329 0.35467-0.525 0.49s-0.40717 0.2485-0.6335 0.3395-0.46317 0.1575-0.7105 0.1995-0.49933 0.063-0.756 0.063c-0.44334 0-0.85516-0.081666-1.2355-0.245s-0.7105-0.40017-0.9905-0.7105-0.49933-0.69183-0.658-1.1445-0.238-0.96833-0.238-1.547c0-0.52734 0.073499-1.015 0.2205-1.463s0.36167-0.83416 0.644-1.1585 0.63-0.5775 1.043-0.7595 0.88783-0.273 1.4245-0.273c0.49934 0 0.93916 0.080499 1.3195 0.2415s0.7175 0.3885 1.0115 0.6825l-0.329 0.448zm3.038-4.48v10.311h-1.246v-10.311h1.246zm6.762 5.992c0-0.28933-0.040833-0.55417-0.1225-0.7945s-0.20067-0.448-0.357-0.623-0.3465-0.31033-0.5705-0.406-0.47833-0.1435-0.763-0.1435c-0.59734 0-1.0698 0.17383-1.4175 0.5215s-0.5635 0.8295-0.6475 1.4455h3.878zm1.008 3.325c-0.154 0.18667-0.33833 0.34883-0.553 0.4865s-0.4445 0.25083-0.6895 0.3395-0.49817 0.15517-0.7595 0.1995-0.52033 0.0665-0.777 0.0665c-0.49 0-0.9415-0.082832-1.3545-0.2485s-0.77-0.40833-1.071-0.728-0.5355-0.71516-0.7035-1.1865-0.252-1.0127-0.252-1.624c0-0.49467 0.075833-0.95666 0.2275-1.386s0.36983-0.8015 0.6545-1.1165 0.63233-0.56233 1.043-0.742 0.87266-0.2695 1.386-0.2695c0.42467 0 0.81783 0.071166 1.1795 0.2135s0.67433 0.34767 0.938 0.616 0.47017 0.59966 0.6195 0.994 0.224 0.8435 0.224 1.3475c0 0.196-0.021 0.32667-0.063 0.392s-0.12133 0.098-0.238 0.098h-4.739c0.014 0.448 0.075833 0.83766 0.1855 1.169s0.2625 0.60783 0.4585 0.8295 0.42933 0.38733 0.7 0.497 0.574 0.1645 0.91 0.1645c0.31267 0 0.58217-0.036166 0.8085-0.1085s0.42117-0.1505 0.5845-0.2345 0.29983-0.16217 0.4095-0.2345 0.20417-0.1085 0.2835-0.1085c0.10267 0 0.182 0.039666 0.238 0.119l0.35 0.455z" fill="#333F52"/>
<path d="m27.412 30.537c-0.042 0.07-0.0875 0.1225-0.1365 0.1575s-0.1085 0.0525-0.1785 0.0525c-0.079334 0-0.17267-0.039666-0.28-0.119s-0.2415-0.16683-0.4025-0.2625-0.35467-0.18317-0.581-0.2625-0.5005-0.119-0.8225-0.119c-0.30333 0-0.5705 0.040833-0.8015 0.1225s-0.42467 0.1925-0.581 0.3325-0.27417 0.3045-0.3535 0.4935-0.119 0.39317-0.119 0.6125c0 0.28 0.068833 0.51217 0.2065 0.6965s0.31967 0.34183 0.546 0.4725 0.483 0.24383 0.77 0.3395 0.581 0.19483 0.882 0.2975 0.595 0.21817 0.882 0.3465 0.54367 0.2905 0.77 0.4865 0.40833 0.43633 0.546 0.721 0.2065 0.63466 0.2065 1.05c0 0.43867-0.074666 0.8505-0.224 1.2355s-0.3675 0.71983-0.6545 1.0045-0.63933 0.50867-1.057 0.672c-0.41767 0.16333-0.8925 0.245-1.4245 0.245-0.65334 0-1.246-0.11783-1.778-0.3535s-0.987-0.55416-1.365-0.9555l0.392-0.644c0.037334-0.051334 0.082833-0.0945 0.1365-0.1295s0.11317-0.0525 0.1785-0.0525c0.060667 0 0.1295 0.0245 0.2065 0.0735s0.1645 0.11083 0.2625 0.1855 0.21 0.15633 0.336 0.245 0.2695 0.17033 0.4305 0.245 0.34417 0.1365 0.5495 0.1855 0.43633 0.0735 0.693 0.0735c0.322 0 0.609-0.044333 0.861-0.133s0.4655-0.2135 0.6405-0.3745 0.30917-0.3535 0.4025-0.5775 0.14-0.47367 0.14-0.749c0-0.30333-0.068833-0.55183-0.2065-0.7455s-0.3185-0.35583-0.5425-0.4865-0.48067-0.2415-0.77-0.3325-0.58333-0.18433-0.882-0.28-0.59267-0.2065-0.882-0.3325-0.546-0.28933-0.77-0.49-0.40483-0.4515-0.5425-0.7525-0.2065-0.67316-0.2065-1.1165c0-0.35467 0.068833-0.69766 0.2065-1.029s0.33833-0.62533 0.602-0.882 0.588-0.462 0.973-0.616 0.82716-0.231 1.3265-0.231c0.56 0 1.0698 0.088666 1.5295 0.266s0.8645 0.434 1.2145 0.77l-0.329 0.644zm6.874 4.144c0-0.28933-0.040833-0.55417-0.1225-0.7945s-0.20067-0.448-0.357-0.623-0.3465-0.31033-0.5705-0.406-0.47833-0.1435-0.763-0.1435c-0.59734 0-1.0698 0.17383-1.4175 0.5215s-0.5635 0.8295-0.6475 1.4455h3.878zm1.008 3.325c-0.154 0.18667-0.33833 0.34883-0.553 0.4865s-0.4445 0.25083-0.6895 0.3395-0.49817 0.15517-0.7595 0.1995-0.52033 0.0665-0.777 0.0665c-0.49 0-0.9415-0.082832-1.3545-0.2485s-0.77-0.40833-1.071-0.728-0.5355-0.71516-0.7035-1.1865-0.252-1.0127-0.252-1.624c0-0.49467 0.075833-0.95666 0.2275-1.386s0.36983-0.8015 0.6545-1.1165 0.63233-0.56233 1.043-0.742 0.87266-0.2695 1.386-0.2695c0.42467 0 0.81783 0.071166 1.1795 0.2135s0.67433 0.34767 0.938 0.616 0.47017 0.59966 0.6195 0.994 0.224 0.8435 0.224 1.3475c0 0.196-0.021 0.32667-0.063 0.392s-0.12133 0.098-0.238 0.098h-4.739c0.014 0.448 0.075833 0.83766 0.1855 1.169s0.2625 0.60783 0.4585 0.8295 0.42933 0.38733 0.7 0.497 0.574 0.1645 0.91 0.1645c0.31267 0 0.58217-0.036166 0.8085-0.1085s0.42117-0.1505 0.5845-0.2345c0.16333-0.084 0.29983-0.16217 0.4095-0.2345s0.20417-0.1085 0.2835-0.1085c0.10267 0 0.182 0.039666 0.238 0.119l0.35 0.455zm5.481-2.198c-0.574 0.018667-1.0628 0.064166-1.4665 0.1365s-0.73267 0.16683-0.987 0.2835c-0.25433 0.11667-0.43867 0.25433-0.553 0.413s-0.1715 0.336-0.1715 0.532c0 0.18667 0.030333 0.34767 0.091 0.483s0.1435 0.24617 0.2485 0.3325 0.22867 0.14933 0.371 0.189 0.29517 0.0595 0.4585 0.0595c0.21933 0 0.42-0.022166 0.602-0.0665s0.3535-0.1085 0.5145-0.1925 0.315-0.18433 0.462-0.301 0.2905-0.24967 0.4305-0.399v-1.47zm-4.025-2.898c0.392-0.378 0.81433-0.66033 1.267-0.847s0.95433-0.28 1.505-0.28c0.39667 0 0.749 0.065333 1.057 0.196s0.567 0.31267 0.777 0.546c0.21 0.23333 0.36867 0.51566 0.476 0.847s0.161 0.69533 0.161 1.092v4.536h-0.553c-0.12133 0-0.21467-0.019833-0.28-0.0595s-0.11667-0.11783-0.154-0.2345l-0.14-0.672c-0.18667 0.17267-0.36867 0.3255-0.546 0.4585s-0.364 0.245-0.56 0.336-0.40483 0.161-0.6265 0.21-0.46783 0.0735-0.7385 0.0735c-0.27533 0-0.53433-0.0385-0.777-0.1155s-0.45383-0.1925-0.6335-0.3465-0.322-0.34883-0.427-0.5845-0.1575-0.5145-0.1575-0.8365c0-0.28 0.076999-0.5495 0.231-0.8085s0.40366-0.48883 0.749-0.6895 0.79566-0.36517 1.351-0.4935 1.2367-0.20183 2.044-0.2205v-0.553c0-0.55067-0.119-0.96717-0.357-1.2495s-0.58566-0.4235-1.043-0.4235c-0.308 0-0.56583 0.0385-0.7735 0.1155s-0.38733 0.16333-0.539 0.259-0.28233 0.182-0.392 0.259-0.21817 0.1155-0.3255 0.1155c-0.084 0-0.15633-0.022166-0.217-0.0665s-0.112-0.099166-0.154-0.1645l-0.224-0.399zm7.14 6.09v-7.091h0.749c0.17733 0 0.287 0.086332 0.329 0.259l0.091 0.728c0.26133-0.322 0.55533-0.58567 0.882-0.791s0.70466-0.308 1.134-0.308c0.476 0 0.86217 0.133 1.1585 0.399s0.50983 0.62533 0.6405 1.078c0.10267-0.25667 0.2345-0.47833 0.3955-0.665s0.34183-0.34067 0.5425-0.462 0.41417-0.21 0.6405-0.266 0.45617-0.084 0.6895-0.084c0.37334 0 0.70583 0.059499 0.9975 0.1785s0.539 0.29283 0.742 0.5215 0.35817 0.50983 0.4655 0.8435 0.161 0.71516 0.161 1.1445v4.515h-1.253v-4.515c0-0.55534-0.12133-0.9765-0.364-1.2635s-0.59266-0.4305-1.05-0.4305c-0.20533 0-0.40017 0.036166-0.5845 0.1085s-0.3465 0.1785-0.4865 0.3185-0.25083 0.31617-0.3325 0.5285-0.1225 0.4585-0.1225 0.7385v4.515h-1.253v-4.515c0-0.56934-0.11433-0.994-0.343-1.274s-0.56233-0.42-1.001-0.42c-0.308 0-0.59267 0.082832-0.854 0.2485s-0.50167 0.39083-0.721 0.6755v5.285h-1.253zm12.803-10.311v10.311h-1.246v-10.311h1.246zm6.762 5.992c0-0.28933-0.040833-0.55417-0.1225-0.7945s-0.20067-0.448-0.357-0.623-0.3465-0.31033-0.5705-0.406-0.47833-0.1435-0.763-0.1435c-0.59734 0-1.0698 0.17383-1.4175 0.5215s-0.5635 0.8295-0.6475 1.4455h3.878zm1.008 3.325c-0.154 0.18667-0.33833 0.34883-0.553 0.4865s-0.4445 0.25083-0.6895 0.3395-0.49817 0.15517-0.7595 0.1995-0.52033 0.0665-0.777 0.0665c-0.49 0-0.9415-0.082832-1.3545-0.2485s-0.77-0.40833-1.071-0.728-0.5355-0.71516-0.7035-1.1865-0.252-1.0127-0.252-1.624c0-0.49467 0.075833-0.95666 0.2275-1.386s0.36983-0.8015 0.6545-1.1165 0.63233-0.56233 1.043-0.742 0.87266-0.2695 1.386-0.2695c0.42467 0 0.81783 0.071166 1.1795 0.2135s0.67433 0.34767 0.938 0.616 0.47017 0.59966 0.6195 0.994 0.224 0.8435 0.224 1.3475c0 0.196-0.021 0.32667-0.063 0.392s-0.12133 0.098-0.238 0.098h-4.739c0.014 0.448 0.075833 0.83766 0.1855 1.169s0.2625 0.60783 0.4585 0.8295 0.42933 0.38733 0.7 0.497 0.574 0.1645 0.91 0.1645c0.31267 0 0.58217-0.036166 0.8085-0.1085s0.42117-0.1505 0.5845-0.2345 0.29983-0.16217 0.4095-0.2345 0.20417-0.1085 0.2835-0.1085c0.10267 0 0.182 0.039666 0.238 0.119l0.35 0.455zm5.768-4.928c-0.056 0.10267-0.14233 0.154-0.259 0.154-0.07 0-0.14933-0.025666-0.238-0.077s-0.19717-0.1085-0.3255-0.1715-0.28117-0.12133-0.4585-0.175-0.38733-0.0805-0.63-0.0805c-0.21 0-0.399 0.026833-0.567 0.0805s-0.3115 0.12717-0.4305 0.2205-0.21 0.20183-0.273 0.3255-0.0945 0.25783-0.0945 0.4025c0 0.182 0.0525 0.33367 0.1575 0.455s0.24383 0.22633 0.4165 0.315 0.36867 0.16683 0.588 0.2345 0.4445 0.14 0.6755 0.217 0.45617 0.16217 0.6755 0.2555 0.41533 0.21 0.588 0.35 0.3115 0.3115 0.4165 0.5145 0.1575 0.44683 0.1575 0.7315c0 0.32667-0.058333 0.62883-0.175 0.9065-0.11667 0.27767-0.28933 0.518-0.518 0.721s-0.50866 0.36283-0.84 0.4795-0.714 0.175-1.148 0.175c-0.49467 0-0.94266-0.080499-1.344-0.2415s-0.742-0.3675-1.022-0.6195l0.294-0.476c0.037334-0.060667 0.081666-0.10733 0.133-0.14s0.11667-0.049 0.196-0.049c0.084 0 0.17267 0.032666 0.266 0.098s0.2065 0.13767 0.3395 0.217 0.29517 0.15167 0.4865 0.217 0.42933 0.098 0.714 0.098c0.24267 0 0.455-0.0315 0.637-0.0945s0.33367-0.14817 0.455-0.2555 0.21117-0.231 0.2695-0.371 0.0875-0.28933 0.0875-0.448c0-0.196-0.0525-0.35817-0.1575-0.4865s-0.24383-0.238-0.4165-0.329-0.36983-0.17033-0.5915-0.238-0.448-0.13883-0.679-0.2135-0.45733-0.15983-0.679-0.2555-0.41883-0.21583-0.5915-0.3605-0.3115-0.32317-0.4165-0.5355-0.1575-0.47017-0.1575-0.7735c0-0.27067 0.055999-0.53083 0.168-0.7805s0.27533-0.469 0.49-0.658 0.47833-0.3395 0.791-0.4515 0.66966-0.168 1.071-0.168c0.46667 0 0.8855 0.073499 1.2565 0.2205s0.69183 0.34883 0.9625 0.6055l-0.28 0.455zm6.062 0c-0.056 0.10267-0.14233 0.154-0.259 0.154-0.07 0-0.14933-0.025666-0.238-0.077s-0.19717-0.1085-0.3255-0.1715-0.28117-0.12133-0.4585-0.175-0.38733-0.0805-0.63-0.0805c-0.21 0-0.399 0.026833-0.567 0.0805s-0.3115 0.12717-0.4305 0.2205-0.21 0.20183-0.273 0.3255-0.0945 0.25783-0.0945 0.4025c0 0.182 0.0525 0.33367 0.1575 0.455s0.24383 0.22633 0.4165 0.315 0.36867 0.16683 0.588 0.2345 0.4445 0.14 0.6755 0.217 0.45617 0.16217 0.6755 0.2555 0.41533 0.21 0.588 0.35 0.3115 0.3115 0.4165 0.5145 0.1575 0.44683 0.1575 0.7315c0 0.32667-0.058333 0.62883-0.175 0.9065-0.11667 0.27767-0.28933 0.518-0.518 0.721s-0.50866 0.36283-0.84 0.4795-0.714 0.175-1.148 0.175c-0.49467 0-0.94266-0.080499-1.344-0.2415s-0.742-0.3675-1.022-0.6195l0.294-0.476c0.037334-0.060667 0.081666-0.10733 0.133-0.14s0.11667-0.049 0.196-0.049c0.084 0 0.17267 0.032666 0.266 0.098s0.2065 0.13767 0.3395 0.217 0.29517 0.15167 0.4865 0.217 0.42933 0.098 0.714 0.098c0.24267 0 0.455-0.0315 0.637-0.0945s0.33367-0.14817 0.455-0.2555 0.21117-0.231 0.2695-0.371 0.0875-0.28933 0.0875-0.448c0-0.196-0.0525-0.35817-0.1575-0.4865s-0.24383-0.238-0.4165-0.329-0.36983-0.17033-0.5915-0.238-0.448-0.13883-0.679-0.2135-0.45733-0.15983-0.679-0.2555-0.41883-0.21583-0.5915-0.3605-0.3115-0.32317-0.4165-0.5355-0.1575-0.47017-0.1575-0.7735c0-0.27067 0.055999-0.53083 0.168-0.7805s0.27533-0.469 0.49-0.658 0.47833-0.3395 0.791-0.4515 0.66966-0.168 1.071-0.168c0.46667 0 0.8855 0.073499 1.2565 0.2205s0.69183 0.34883 0.9625 0.6055l-0.28 0.455zm9.681 4.844c0.41534 0 0.78633-0.069999 1.113-0.21s0.60317-0.336 0.8295-0.588 0.399-0.553 0.518-0.903 0.1785-0.735 0.1785-1.155v-6.097h1.351v6.097c0 0.57867-0.092166 1.1153-0.2765 1.61s-0.448 0.92283-0.791 1.2845-0.76183 0.64517-1.2565 0.8505-1.05 0.308-1.666 0.308-1.1713-0.10267-1.666-0.308-0.91466-0.48883-1.26-0.8505-0.61017-0.78983-0.7945-1.2845-0.2765-1.0313-0.2765-1.61v-6.097h1.351v6.09c0 0.42 0.059499 0.805 0.1785 1.155 0.119 0.35 0.29167 0.651 0.518 0.903s0.504 0.44917 0.833 0.5915 0.70116 0.2135 1.1165 0.2135zm7.175-0.63c0.22867 0.308 0.47833 0.525 0.749 0.651s0.574 0.189 0.91 0.189c0.66267 0 1.1713-0.23566 1.526-0.707s0.532-1.1433 0.532-2.016c0-0.462-0.040833-0.85866-0.1225-1.19s-0.1995-0.60317-0.3535-0.8155-0.343-0.3675-0.567-0.4655-0.47833-0.147-0.763-0.147c-0.406 0-0.76183 0.093332-1.0675 0.28s-0.58683 0.45033-0.8435 0.791v3.43zm-0.063-4.284c0.29867-0.36867 0.644-0.665 1.036-0.889s0.84-0.336 1.344-0.336c0.41067 0 0.78166 0.078166 1.113 0.2345s0.61367 0.38733 0.847 0.693 0.413 0.68483 0.539 1.1375 0.189 0.973 0.189 1.561c0 0.52267-0.069999 1.0092-0.21 1.4595s-0.34183 0.84-0.6055 1.169-0.58566 0.588-0.966 0.777-0.8085 0.2835-1.2845 0.2835c-0.434 0-0.80617-0.073499-1.1165-0.2205s-0.5845-0.35117-0.8225-0.6125v3.136h-1.253v-9.492h0.749c0.17733 0 0.287 0.086332 0.329 0.259l0.112 0.84zm9.128 2.527c0.252 0 0.47367-0.035 0.665-0.105s0.35233-0.168 0.483-0.294 0.22867-0.2765 0.294-0.4515 0.098-0.3675 0.098-0.5775c0-0.434-0.13183-0.77933-0.3955-1.036s-0.64516-0.385-1.1445-0.385c-0.504 0-0.88783 0.12833-1.1515 0.385s-0.3955 0.602-0.3955 1.036c0 0.21 0.033833 0.4025 0.1015 0.5775s0.16683 0.3255 0.2975 0.4515 0.29167 0.224 0.483 0.294 0.413 0.105 0.665 0.105zm2.247 3.85c0-0.17267-0.049-0.31267-0.147-0.42s-0.22983-0.19133-0.3955-0.252-0.35817-0.10383-0.5775-0.1295-0.4515-0.0455-0.6965-0.0595-0.4935-0.028-0.7455-0.042-0.49466-0.037333-0.728-0.07c-0.26134 0.12133-0.47483 0.27417-0.6405 0.4585s-0.2485 0.40017-0.2485 0.6475c0 0.15867 0.040833 0.30683 0.1225 0.4445s0.2065 0.25667 0.3745 0.357 0.37916 0.17967 0.6335 0.238 0.55416 0.0875 0.8995 0.0875c0.336 0 0.637-0.030333 0.903-0.091s0.49117-0.147 0.6755-0.259 0.3255-0.245 0.4235-0.399 0.147-0.32433 0.147-0.511zm1.267-7.196v0.462c0 0.154-0.097999 0.252-0.294 0.294l-0.805 0.105c0.15867 0.308 0.238 0.64866 0.238 1.022 0 0.34534-0.066499 0.65917-0.1995 0.9415s-0.31617 0.52383-0.5495 0.7245c-0.23334 0.20067-0.51333 0.35467-0.84 0.462s-0.68133 0.161-1.064 0.161c-0.33134 0-0.644-0.039666-0.938-0.119-0.14933 0.093334-0.26367 0.1925-0.343 0.2975s-0.119 0.21117-0.119 0.3185c0 0.168 0.068833 0.29517 0.2065 0.3815s0.3185 0.14817 0.5425 0.1855 0.4795 0.060667 0.7665 0.07 0.581 0.0245 0.882 0.0455 0.595 0.057166 0.882 0.1085 0.5425 0.13533 0.7665 0.252c0.224 0.11667 0.40483 0.27767 0.5425 0.483s0.2065 0.47133 0.2065 0.798c0 0.30333-0.075833 0.59733-0.2275 0.882s-0.36983 0.53783-0.6545 0.7595-0.6335 0.399-1.0465 0.532-0.8785 0.1995-1.3965 0.1995-0.97066-0.051333-1.358-0.154-0.70933-0.24033-0.966-0.413-0.44917-0.37217-0.5775-0.5985-0.1925-0.46317-0.1925-0.7105c0-0.35 0.10967-0.64633 0.329-0.889s0.52033-0.43633 0.903-0.581c-0.21-0.093334-0.37683-0.21817-0.5005-0.3745-0.12367-0.15633-0.1855-0.3675-0.1855-0.6335 0-0.10267 0.018666-0.20883 0.056-0.3185s0.0945-0.21933 0.1715-0.329c0.077-0.10967 0.1715-0.2135 0.2835-0.3115s0.24267-0.18433 0.392-0.259c-0.35-0.196-0.623-0.45616-0.819-0.7805s-0.294-0.70116-0.294-1.1305c0-0.34534 0.066499-0.65917 0.1995-0.9415s0.3185-0.52267 0.5565-0.721 0.5215-0.35117 0.8505-0.4585 0.6895-0.161 1.0815-0.161c0.308 0 0.595 0.033833 0.861 0.1015s0.50867 0.16683 0.728 0.2975h1.925zm2.478 1.141c0.224-0.48534 0.49933-0.8645 0.826-1.1375s0.72566-0.4095 1.197-0.4095c0.14933 0 0.29283 0.016333 0.4305 0.049s0.26017 0.084 0.3675 0.154l-0.091 0.931c-0.028 0.11667-0.097999 0.175-0.21 0.175-0.065334 0-0.161-0.014-0.287-0.042s-0.26833-0.042-0.427-0.042c-0.224 0-0.4235 0.032666-0.5985 0.098s-0.33133 0.16217-0.469 0.2905-0.26133 0.287-0.371 0.476-0.20883 0.40483-0.2975 0.6475v4.48h-1.253v-7.091h0.714c0.13533 0 0.22867 0.025666 0.28 0.077s0.086333 0.14 0.105 0.266l0.084 1.078zm7.644 2.478c-0.574 0.018667-1.0628 0.064166-1.4665 0.1365s-0.73266 0.16683-0.987 0.2835c-0.25434 0.11667-0.43867 0.25433-0.553 0.413s-0.1715 0.336-0.1715 0.532c0 0.18667 0.030333 0.34767 0.091 0.483s0.1435 0.24617 0.2485 0.3325 0.22867 0.14933 0.371 0.189 0.29517 0.0595 0.4585 0.0595c0.21933 0 0.42-0.022166 0.602-0.0665s0.3535-0.1085 0.5145-0.1925 0.315-0.18433 0.462-0.301 0.2905-0.24967 0.4305-0.399v-1.47zm-4.025-2.898c0.392-0.378 0.81433-0.66033 1.267-0.847s0.95433-0.28 1.505-0.28c0.39667 0 0.749 0.065333 1.057 0.196s0.567 0.31267 0.777 0.546 0.36867 0.51566 0.476 0.847 0.161 0.69533 0.161 1.092v4.536h-0.553c-0.12133 0-0.21467-0.019833-0.28-0.0595s-0.11667-0.11783-0.154-0.2345l-0.14-0.672c-0.18667 0.17267-0.36867 0.3255-0.546 0.4585s-0.364 0.245-0.56 0.336-0.40483 0.161-0.6265 0.21-0.46783 0.0735-0.7385 0.0735c-0.27534 0-0.53433-0.0385-0.777-0.1155s-0.45383-0.1925-0.6335-0.3465-0.322-0.34883-0.427-0.5845-0.1575-0.5145-0.1575-0.8365c0-0.28 0.076999-0.5495 0.231-0.8085s0.40366-0.48883 0.749-0.6895 0.79566-0.36517 1.351-0.4935 1.2367-0.20183 2.044-0.2205v-0.553c0-0.55067-0.119-0.96717-0.357-1.2495s-0.58566-0.4235-1.043-0.4235c-0.308 0-0.56583 0.0385-0.7735 0.1155s-0.38733 0.16333-0.539 0.259-0.28233 0.182-0.392 0.259-0.21817 0.1155-0.3255 0.1155c-0.084 0-0.15633-0.022166-0.217-0.0665s-0.112-0.099166-0.154-0.1645l-0.224-0.399zm11.76 0.686c-0.23333-0.31267-0.48533-0.53083-0.756-0.6545s-0.574-0.1855-0.91-0.1855c-0.658 0-1.1643 0.23566-1.519 0.707s-0.532 1.1433-0.532 2.016c0 0.462 0.039666 0.8575 0.119 1.1865s0.196 0.59967 0.35 0.812 0.343 0.3675 0.567 0.4655 0.47833 0.147 0.763 0.147c0.41067 0 0.76883-0.093332 1.0745-0.28s0.58683-0.45033 0.8435-0.791v-3.423zm1.246-4.907v10.311h-0.742c-0.17733 0-0.28933-0.086332-0.336-0.259l-0.112-0.861c-0.30334 0.364-0.64866 0.658-1.036 0.882s-0.83533 0.336-1.344 0.336c-0.406 0-0.77466-0.078166-1.106-0.2345s-0.61366-0.38617-0.847-0.6895-0.413-0.68133-0.539-1.134-0.189-0.973-0.189-1.561c0-0.52267 0.069999-1.0092 0.21-1.4595s0.34066-0.84116 0.602-1.1725 0.58216-0.5915 0.9625-0.7805 0.8085-0.2835 1.2845-0.2835c0.434 0 0.80616 0.073499 1.1165 0.2205s0.58683 0.35117 0.8295 0.6125v-3.927h1.246zm6.72 5.992c0-0.28933-0.040833-0.55417-0.1225-0.7945s-0.20067-0.448-0.357-0.623-0.3465-0.31033-0.5705-0.406-0.47833-0.1435-0.763-0.1435c-0.59734 0-1.0698 0.17383-1.4175 0.5215s-0.5635 0.8295-0.6475 1.4455h3.878zm1.008 3.325c-0.154 0.18667-0.33833 0.34883-0.553 0.4865s-0.4445 0.25083-0.6895 0.3395-0.49816 0.15517-0.7595 0.1995-0.52033 0.0665-0.777 0.0665c-0.49 0-0.9415-0.082832-1.3545-0.2485s-0.77-0.40833-1.071-0.728-0.5355-0.71516-0.7035-1.1865-0.252-1.0127-0.252-1.624c0-0.49467 0.075833-0.95666 0.2275-1.386s0.36983-0.8015 0.6545-1.1165 0.63233-0.56233 1.043-0.742 0.87266-0.2695 1.386-0.2695c0.42467 0 0.81783 0.071166 1.1795 0.2135s0.67433 0.34767 0.938 0.616 0.47017 0.59966 0.6195 0.994 0.224 0.8435 0.224 1.3475c0 0.196-0.021 0.32667-0.063 0.392s-0.12133 0.098-0.238 0.098h-4.739c0.014 0.448 0.075833 0.83766 0.1855 1.169s0.2625 0.60783 0.4585 0.8295 0.42933 0.38733 0.7 0.497 0.574 0.1645 0.91 0.1645c0.31267 0 0.58217-0.036166 0.8085-0.1085s0.42117-0.1505 0.5845-0.2345 0.29983-0.16217 0.4095-0.2345 0.20417-0.1085 0.2835-0.1085c0.10267 0 0.182 0.039666 0.238 0.119l0.35 0.455zm5.768-4.928c-0.056 0.10267-0.14233 0.154-0.259 0.154-0.07 0-0.14933-0.025666-0.238-0.077s-0.19717-0.1085-0.3255-0.1715-0.28117-0.12133-0.4585-0.175-0.38733-0.0805-0.63-0.0805c-0.21 0-0.399 0.026833-0.567 0.0805s-0.3115 0.12717-0.4305 0.2205-0.21 0.20183-0.273 0.3255-0.0945 0.25783-0.0945 0.4025c0 0.182 0.052499 0.33367 0.1575 0.455s0.24383 0.22633 0.4165 0.315 0.36867 0.16683 0.588 0.2345 0.4445 0.14 0.6755 0.217 0.45617 0.16217 0.6755 0.2555 0.41533 0.21 0.588 0.35 0.3115 0.3115 0.4165 0.5145 0.1575 0.44683 0.1575 0.7315c0 0.32667-0.058333 0.62883-0.175 0.9065s-0.28933 0.518-0.518 0.721-0.50866 0.36283-0.84 0.4795-0.714 0.175-1.148 0.175c-0.49467 0-0.94266-0.080499-1.344-0.2415s-0.742-0.3675-1.022-0.6195l0.294-0.476c0.037334-0.060667 0.081666-0.10733 0.133-0.14s0.11667-0.049 0.196-0.049c0.084 0 0.17267 0.032666 0.266 0.098s0.2065 0.13767 0.3395 0.217 0.29517 0.15167 0.4865 0.217 0.42933 0.098 0.714 0.098c0.24267 0 0.455-0.0315 0.637-0.0945s0.33367-0.14817 0.455-0.2555 0.21117-0.231 0.2695-0.371 0.0875-0.28933 0.0875-0.448c0-0.196-0.052499-0.35817-0.1575-0.4865s-0.24383-0.238-0.4165-0.329-0.36983-0.17033-0.5915-0.238-0.448-0.13883-0.679-0.2135-0.45733-0.15983-0.679-0.2555-0.41883-0.21583-0.5915-0.3605-0.3115-0.32317-0.4165-0.5355-0.1575-0.47017-0.1575-0.7735c0-0.27067 0.055999-0.53083 0.168-0.7805s0.27533-0.469 0.49-0.658 0.47833-0.3395 0.791-0.4515 0.66966-0.168 1.071-0.168c0.46667 0 0.8855 0.073499 1.2565 0.2205s0.69183 0.34883 0.9625 0.6055l-0.28 0.455z" fill="#333F52"/>
<path d="m10.031 4.7344c0-0.14583-0.046875-0.26562-0.14062-0.35938l-0.71094-0.70312c-0.098959-0.098959-0.21615-0.14844-0.35156-0.14844s-0.2526 0.049479-0.35156 0.14844l-3.1875 3.1797-1.7656-1.7656c-0.098959-0.098959-0.21615-0.14844-0.35156-0.14844s-0.2526 0.049479-0.35156 0.14844l-0.71094 0.70312c-0.09375 0.09375-0.14062 0.21354-0.14062 0.35938 0 0.14063 0.046875 0.25781 0.14062 0.35156l2.8281 2.8281c0.098959 0.098959 0.21615 0.14844 0.35156 0.14844 0.14063 0 0.26042-0.049479 0.35938-0.14844l4.2422-4.2422c0.09375-0.09375 0.14062-0.21094 0.14062-0.35156zm1.1641-1.7422c0.53646 0.91667 0.80469 1.9193 0.80469 3.0078s-0.26823 2.0924-0.80469 3.0117-1.2643 1.6471-2.1836 2.1836-1.9232 0.80469-3.0117 0.80469-2.0924-0.26823-3.0117-0.80469-1.6471-1.2643-2.1836-2.1836c-0.53646-0.91928-0.80469-1.9232-0.80469-3.0117s0.26823-2.0924 0.80469-3.0117c0.53646-0.91928 1.2643-1.6471 2.1836-2.1836 0.91928-0.53646 1.9232-0.80469 3.0117-0.80469s2.0924 0.26823 3.0117 0.80469c0.91928 0.53646 1.6471 1.2656 2.1836 2.1875z" fill="#1991EB"/>
<path d="m10.031 32.734c0-0.14583-0.046875-0.26562-0.14062-0.35938l-0.71094-0.70312c-0.098959-0.098959-0.21615-0.14844-0.35156-0.14844s-0.2526 0.049479-0.35156 0.14844l-3.1875 3.1797-1.7656-1.7656c-0.098959-0.098959-0.21615-0.14844-0.35156-0.14844s-0.2526 0.049479-0.35156 0.14844l-0.71094 0.70312c-0.09375 0.09375-0.14062 0.21354-0.14062 0.35938 0 0.14063 0.046875 0.25781 0.14062 0.35156l2.8281 2.8281c0.098959 0.098959 0.21615 0.14844 0.35156 0.14844 0.14063 0 0.26042-0.049479 0.35938-0.14844l4.2422-4.2422c0.09375-0.09375 0.14062-0.21094 0.14062-0.35156zm1.1641-1.7422c0.53646 0.91667 0.80469 1.9193 0.80469 3.0078s-0.26823 2.0924-0.80469 3.0117c-0.53646 0.91928-1.2643 1.6471-2.1836 2.1836s-1.9232 0.80469-3.0117 0.80469-2.0924-0.26823-3.0117-0.80469-1.6471-1.2643-2.1836-2.1836c-0.53646-0.91928-0.80469-1.9232-0.80469-3.0117s0.26823-2.0924 0.80469-3.0117c0.53646-0.91928 1.2643-1.6471 2.1836-2.1836s1.9232-0.80469 3.0117-0.80469 2.0924 0.26823 3.0117 0.80469 1.6471 1.2656 2.1836 2.1875z" fill="#1991EB"/>
<path d="m10.031 60.734c0-0.14583-0.046875-0.26562-0.14062-0.35938l-0.71094-0.70312c-0.098959-0.098959-0.21615-0.14844-0.35156-0.14844s-0.2526 0.049479-0.35156 0.14844l-3.1875 3.1797-1.7656-1.7656c-0.098959-0.098959-0.21615-0.14844-0.35156-0.14844s-0.2526 0.049479-0.35156 0.14844l-0.71094 0.70312c-0.09375 0.09375-0.14062 0.21354-0.14062 0.35938 0 0.14063 0.046875 0.25781 0.14062 0.35156l2.8281 2.8281c0.098959 0.098959 0.21615 0.14844 0.35156 0.14844 0.14063 0 0.26042-0.049479 0.35938-0.14844l4.2422-4.2422c0.09375-0.09375 0.14062-0.21094 0.14062-0.35156zm1.1641-1.7422c0.53646 0.91667 0.80469 1.9193 0.80469 3.0078s-0.26823 2.0924-0.80469 3.0117c-0.53646 0.91928-1.2643 1.6471-2.1836 2.1836s-1.9232 0.80469-3.0117 0.80469-2.0924-0.26823-3.0117-0.80469-1.6471-1.2643-2.1836-2.1836c-0.53646-0.91928-0.80469-1.9232-0.80469-3.0117s0.26823-2.0924 0.80469-3.0117c0.53646-0.91928 1.2643-1.6471 2.1836-2.1836s1.9232-0.80469 3.0117-0.80469 2.0924 0.26823 3.0117 0.80469 1.6471 1.2656 2.1836 2.1875z" fill="#1991EB"/>
<path transform="translate(6 118) scale(-1 1) translate(-6 -118)" d="m7.9375 113.4c-0.61459-0.26563-1.2604-0.39844-1.9375-0.39844s-1.3242 0.13281-1.9414 0.39844c-0.61719 0.26563-1.1484 0.62109-1.5938 1.0664-0.44531 0.44531-0.80078 0.97656-1.0664 1.5938-0.26563 0.61719-0.39844 1.2643-0.39844 1.9414s0.13281 1.3242 0.39844 1.9414c0.26563 0.61719 0.62109 1.1484 1.0664 1.5938 0.44531 0.44532 0.97656 0.80078 1.5938 1.0664 0.61719 0.26563 1.2643 0.39844 1.9414 0.39844s1.3242-0.13281 1.9414-0.39844c0.61719-0.26563 1.1484-0.62109 1.5938-1.0664 0.44531-0.44531 0.80078-0.97656 1.0664-1.5938 0.26563-0.61719 0.39844-1.2643 0.39844-1.9414s-0.13281-1.3242-0.39844-1.9414c-0.26563-0.61719-0.62109-1.1484-1.0664-1.5938-0.44531-0.44532-0.97786-0.80078-1.5977-1.0664zm3.2578 1.5938c0.53646 0.91667 0.80469 1.9193 0.80469 3.0078s-0.26823 2.0924-0.80469 3.0117c-0.53646 0.91928-1.2643 1.6471-2.1836 2.1836-0.91928 0.53646-1.9232 0.80469-3.0117 0.80469s-2.0924-0.26823-3.0117-0.80469c-0.91928-0.53646-1.6471-1.2643-2.1836-2.1836-0.53646-0.91928-0.80469-1.9232-0.80469-3.0117s0.26823-2.0924 0.80469-3.0117c0.53646-0.91928 1.2643-1.6471 2.1836-2.1836 0.91928-0.53646 1.9232-0.80469 3.0117-0.80469s2.0924 0.26823 3.0117 0.80469c0.91928 0.53646 1.6471 1.2656 2.1836 2.1875z" fill="#333F52" fill-opacity=".4"/>
<path d="m10.031 88.734c0-0.14583-0.046875-0.26562-0.14062-0.35938l-0.71094-0.70312c-0.098959-0.098959-0.21615-0.14844-0.35156-0.14844s-0.2526 0.049479-0.35156 0.14844l-3.1875 3.1797-1.7656-1.7656c-0.098959-0.098959-0.21615-0.14844-0.35156-0.14844s-0.2526 0.049479-0.35156 0.14844l-0.71094 0.70312c-0.09375 0.09375-0.14062 0.21354-0.14062 0.35938 0 0.14063 0.046875 0.25781 0.14062 0.35156l2.8281 2.8281c0.098959 0.098959 0.21615 0.14844 0.35156 0.14844 0.14063 0 0.26042-0.049479 0.35938-0.14844l4.2422-4.2422c0.09375-0.09375 0.14062-0.21094 0.14062-0.35156zm1.1641-1.7422c0.53646 0.91667 0.80469 1.9193 0.80469 3.0078s-0.26823 2.0924-0.80469 3.0117c-0.53646 0.91928-1.2643 1.6471-2.1836 2.1836s-1.9232 0.80469-3.0117 0.80469-2.0924-0.26823-3.0117-0.80469-1.6471-1.2643-2.1836-2.1836c-0.53646-0.91928-0.80469-1.9232-0.80469-3.0117s0.26823-2.0924 0.80469-3.0117c0.53646-0.91928 1.2643-1.6471 2.1836-2.1836s1.9232-0.80469 3.0117-0.80469 2.0924 0.26823 3.0117 0.80469 1.6471 1.2656 2.1836 2.1875z" fill="#1991EB"/>
<path d="m6 15v10" stroke="#333F52" stroke-linecap="square" stroke-width=".8"/>
<path d="m6 43v10" stroke="#333F52" stroke-linecap="square" stroke-width=".8"/>
<path d="m6 71v10" stroke="#333F52" stroke-linecap="square" stroke-width=".8"/>
<path d="m6 99v10" opacity=".5" stroke="#333F52" stroke-linecap="square" stroke-width=".8"/>
</g>
</g>
</g>
</svg>
